<svg version="1.1" xmlns="http://www.w3.org/2000/svg" xmlns:xlink="http://www.w3.org/1999/xlink" width="172.58797" height="107.77838" viewBox="0,0,172.58797,107.77838"><g transform="translate(-202.71292,-81.71427)"><g data-paper-data="{&quot;isPaintingLayer&quot;:true}" fill-rule="nonzero" stroke="none" stroke-linecap="butt" stroke-linejoin="miter" stroke-miterlimit="10" stroke-dasharray="" stroke-dashoffset="0" style="mix-blend-mode: normal"><path d="M364.54086,113.4954v0c5.58367,-4.00173 14.59169,0.35931 8.99438,6.82396c-5.56456,6.42479 -16.34073,4.05779 -22.41769,0.17236c-5.4133,-3.45894 -8.30926,-7.23769 -14.57423,-3.27291c-5.23309,3.30877 -9.41393,9.74631 -16.28631,9.51077c-6.26407,-0.21515 -9.88774,-6.2901 -15.6101,-7.78412c-1.3333,-0.34893 -2.65969,-0.40026 -3.98516,-0.29651c0.88845,-0.9263 1.5095,-1.93779 1.84969,-3.00752c8.98945,1.17731 10.55812,6.65068 18.10688,5.28242c9.30053,-1.68387 12.38742,-10.23448 21.96117,-9.36642c6.62738,0.60085 12.27221,8.88207 21.96136,1.93798z" fill="#dd1a5a" stroke-width="0.53231"/><g stroke-width="0.53231"><path d="M287.67458,91.12139v0c0,0 -0.96689,5.23293 2.84754,7.01582c3.25271,1.0377 6.65159,1.63545 9.77925,3.07634c8.83747,4.07326 2.6151,13.72837 -2.88448,17.86553c-6.21929,4.67794 -14.58788,6.27371 -22.14338,5.94243c-4.21378,-0.18511 -7.61848,-0.96889 -12.36704,-3.43673c-3.60055,-1.8719 -6.204,-4.15371 -9.35769,-7.11756c-1.32656,-1.24612 -3.25854,0.96889 -2.39321,2.39303c3.93274,6.46556 15.41534,11.02135 24.02311,11.42544c8.17073,0.3828 16.56917,-1.95909 23.27008,-6.63611c0.03987,0.1114 0.08627,0.2268 0.14434,0.34602c3.34664,6.77554 2.9562,17.13216 2.65204,21.49811c0,0 -1.6269,18.38483 -4.26802,17.92469c-2.92235,-0.05333 -5.8445,-0.06207 -8.77068,-0.04933l-30.22201,0.21988l-12.27803,0.07645c-3.32042,0.06407 -6.84344,0.19385 -9.72883,0.31199c-0.00583,-0.00181 -0.01548,-0.00382 -0.01548,-0.00382c-3.79804,-1.1957 -3.50554,-17.70971 -3.47641,-19.0108c0.15799,0.1762 0.31108,0.34766 0.48145,0.54643c-3.71468,-15.37857 3.43782,-39.20874 20.4575,-43.07867c0.90992,-0.20732 1.31201,-1.17039 1.14236,-2.01133c-2.1664,-10.70846 12.33136,-21.63281 17.74357,-9.73847c0.54934,1.21299 1.86517,1.04935 2.39722,0.02713c2.35153,-4.52085 9.27724,-4.58001 11.80896,-1.1957c0.86223,1.15202 1.21116,2.46693 1.15783,3.60929z" fill="#6cbd45"/><path d="M299.94187,120.55088v0c0.08136,0.10175 0.16272,0.21405 0.23735,0.34983c3.76036,6.76389 4.11313,16.168 3.21394,21.09203l-1.46799,9.43723c-0.96889,14.0491 -4.57217,12.17137 -4.57217,12.17137c-3.2458,0.25483 -6.5178,0.39426 -9.79945,0.46416l-28.67483,0.22862l-12.40872,0.14525c-2.96985,0.00983 -6.27281,-0.05224 -9.39064,-0.26066c0,0 -3.9464,0.81491 -5.39983,-5.32119c-1.45325,-6.1361 -0.32254,-13.72546 -1.77598,-20.50792c0,0 0.04077,0.01948 0.10939,0.05825c-0.53659,-2.35261 -0.73245,-4.77477 -0.52221,-7.5555c0.39061,-5.13517 1.47673,-10.19208 3.56943,-14.91442c3.57051,-8.04586 9.46726,-15.65178 18.12254,-18.27834c-1.05718,-12.36722 15.21948,-22.22674 22.52599,-11.09016c8.83656,-9.54081 17.14582,0.81581 15.59955,5.33958c-0.03787,0.1114 -0.07663,0.22298 -0.12705,0.32654c0.01074,2.45419 1.34204,3.84756 1.68497,4.16445c0.05042,0.04642 0.08046,0.07172 0.08046,0.07172c5.2118,1.8011 11.44657,0.86606 14.87656,5.65066c4.3776,6.10297 -0.77996,14.41914 -5.80956,18.37337c-0.0222,0.01929 -0.04842,0.03586 -0.07172,0.05516zM290.5221,98.13519v0c-3.81443,-1.78089 -2.84754,-7.01381 -2.84754,-7.01381c0.05333,-1.14236 -0.2956,-2.45819 -1.15783,-3.60929c-2.53172,-3.38523 -9.45744,-3.32517 -11.80896,1.19569c-0.53204,1.02223 -1.84788,1.18587 -2.39722,-0.02713c-5.4122,-11.89433 -19.90998,-0.96998 -17.74357,9.73647c0.16965,0.84112 -0.23244,1.8042 -1.14236,2.01151c-17.01876,3.86976 -24.17127,27.69901 -20.4575,43.0785c-0.17037,-0.19859 -0.32345,-0.36913 -0.48145,-0.54643c-0.02913,1.30127 -0.32163,17.81529 3.47641,19.0108c0,0 0.00965,0.002 0.01548,0.004c2.88539,-0.11831 6.40841,-0.24809 9.72883,-0.31199l12.27803,-0.07663l30.22201,-0.21988c2.92617,-0.01165 5.84742,-0.00382 8.77068,0.04933c2.64021,0.46033 4.26802,-17.92469 4.26802,-17.92469c0.30506,-4.36486 0.6946,-14.72257 -2.65204,-21.49811c-0.05716,-0.11923 -0.10448,-0.23444 -0.14434,-0.34584c-6.70091,4.67775 -15.10027,7.01964 -23.27008,6.63593c-8.60777,-0.4039 -20.09036,-4.95971 -24.02311,-11.42526c-0.86533,-1.42431 1.06664,-3.63932 2.39321,-2.39321c3.15369,2.96384 5.75713,5.24566 9.35769,7.11756c4.74856,2.46784 8.15325,3.25271 12.36704,3.43673c7.5555,0.33128 15.92409,-1.26449 22.14338,-5.94225c5.49958,-4.13623 11.72195,-13.79244 2.88448,-17.8657c-3.12766,-1.44088 -6.52745,-2.03954 -9.77925,-3.07634z" fill="#000000"/></g><g stroke-width="0.53231"><path d="M304.16056,151.09761v0c-1.07938,1.52315 -2.35844,2.92125 -3.54922,4.35611c-1.3535,1.62781 -3.39505,3.72361 -3.63332,5.96556c-12.48043,-3.34172 -1.1917,-13.55581 4.0607,-17.67277c-0.55426,0.88353 0.67147,2.30493 1.63164,1.58122c4.38815,-3.31078 12.70141,-6.81231 14.704,0.74993c1.46418,5.52379 -5.13991,10.13183 -9.09213,12.29733c-1.15983,0.6367 -0.70351,2.11909 0.33237,2.53955c5.30573,2.16842 11.21503,3.59473 17.01585,4.22543c-3.69048,3.52392 -3.8552,7.97797 -0.80799,12.32062c-5.70016,-0.08919 -9.72301,2.00368 -11.44474,7.33271c-5.24274,-7.2164 -8.98764,-15.3631 -13.92715,-22.78973c-0.04933,-0.07262 -0.10175,-0.1356 -0.15891,-0.19367c0.33438,-0.42648 0.63089,-0.89245 0.9516,-1.37207c1.17803,-1.76724 2.70811,-3.3359 4.1022,-4.93077c1.83914,-2.09871 4.38543,-4.6033 4.67502,-7.49835c0.14926,-1.49895 -1.8526,-1.67914 -2.56085,-0.69277c-0.85842,1.19078 -1.43979,2.56759 -2.29911,3.78166z" fill="#6cbd45"/><path d="M329.44798,162.66248v0c1.34678,0.06098 1.95818,1.88828 0.69769,2.60144c-1.85843,1.05608 -4.41345,2.24886 -4.83102,4.6459c-0.63653,3.6548 1.25175,5.82794 3.64787,8.19403c1.07156,1.06099 -0.06681,2.48039 -1.33804,2.29838c-2.88922,-0.41191 -6.5857,-0.83912 -9.1349,0.99892c-2.39503,1.73229 -2.67898,3.95204 -3.02191,6.63794c-0.13669,1.04534 -1.53098,2.07632 -2.40195,0.9922c-6.30756,-7.84436 -10.42252,-16.9414 -15.71185,-25.43086l-0.21405,-1.2412l-0.16272,-0.94287c0.23827,-2.24195 2.27982,-4.33683 3.63332,-5.96556c1.19078,-1.43286 2.47075,-2.83115 3.55014,-4.35412c0.85932,-1.21407 1.44069,-2.59088 2.29911,-3.78166c0.70934,-0.98546 2.71011,-0.80617 2.56085,0.69277c-0.2896,2.89504 -2.83589,5.39965 -4.67502,7.49835c-1.3941,1.59577 -2.92307,3.16351 -4.1022,4.93077c-0.32073,0.47962 -0.61632,0.94559 -0.9516,1.37189c0.05716,0.05716 0.10958,0.12123 0.15891,0.19385c4.93949,7.42754 8.68439,15.57425 13.92715,22.78955c1.72265,-5.32884 5.74458,-7.42171 11.44474,-7.33271c-3.04721,-4.34356 -2.88248,-8.7967 0.80799,-12.32044c-5.80174,-0.63089 -11.71012,-2.05702 -17.01585,-4.22543c-1.03679,-0.41955 -1.49221,-1.90302 -0.33237,-2.53955c3.95222,-2.1655 10.5563,-6.77354 9.09213,-12.29732c-2.00368,-7.56133 -10.31675,-4.0607 -14.704,-0.74993c-0.96125,0.72371 -2.18588,-0.69769 -1.63164,-1.58122c0.01638,-0.0253 0.01839,-0.05533 0.03768,-0.07955l0.16965,-0.17237l2.14803,-1.50003c5.31538,-3.30587 13.32737,-5.5236 16.17582,1.83422c2.49987,6.44318 -2.29237,11.97661 -7.43919,15.45411c5.5296,1.92324 11.58526,3.11783 17.31728,3.38049z" fill="#000000"/></g><g stroke-width="0.53231"><path d="M232.96713,143.50917v0c0,0 18.41905,13.18286 2.99497,18.46528c-0.80709,-2.22939 -2.69446,-4.21943 -4.02393,-6.08277c-1.05027,-1.47164 -2.08213,-2.95129 -3.08198,-4.45787c-0.77122,-1.16366 -1.30509,-2.55994 -2.28673,-3.55195c-1.05608,-1.06883 -2.78838,0.0222 -2.44745,1.42522c0.65309,2.6828 3.59473,5.4122 5.29808,7.53039c1.59287,1.97838 3.10618,4.24855 4.985,6.00031c-4.54816,7.17872 -8.15435,14.90478 -13.12187,21.80336c-0.44085,-1.9145 -1.20916,-3.72068 -2.86993,-4.9202c-2.64421,-1.91067 -5.48501,-2.42706 -8.47689,-2.3457c1.55409,-2.00951 2.70501,-4.36487 2.1635,-6.90733c-0.58428,-2.75451 -2.22084,-4.04705 -4.27676,-5.14281c5.16138,-1.27233 10.60763,-1.43123 15.60228,-3.41253c0.97763,-0.38661 0.97381,-1.62581 0.37406,-2.12c-0.10849,-0.23062 -0.28977,-0.44285 -0.56791,-0.60559c-4.83574,-2.82915 -12.00664,-10.38756 -6.25223,-15.59736c4.41145,-3.9939 11.01263,-2.31876 14.81158,1.37481c0.87116,0.84585 2.02207,-0.39444 1.30036,-1.30217c-0.03677,-0.04842 -0.08136,-0.08627 -0.12014,-0.13379c-0.00109,-0.00674 -0.002,-0.01256 -0.004,-0.01929z" fill="#6cbd45"/><path d="M228.8562,151.43288v0c0.99985,1.50659 2.03171,2.98605 3.08198,4.45696c1.32948,1.86317 3.21686,3.8523 4.02393,6.08278l1.11815,2.20608c-0.1356,-0.00765 -0.27612,-0.01347 -0.41174,-0.02312c-4.90855,8.4323 -9.08648,17.2097 -15.24297,24.8553c-0.85842,1.06392 -2.2314,0.05042 -2.36209,-0.97854c-0.30616,-2.38157 -0.56499,-5.36488 -3.04339,-6.64103c-2.99388,-1.54335 -5.90457,-1.43578 -9.1329,-0.97472c-1.28671,0.18602 -2.44545,-1.25849 -1.3546,-2.33114c1.80601,-1.77889 6.89767,-7.15342 2.19372,-9.72883c-1.41466,-0.77596 -2.89613,-1.40192 -4.32918,-2.13839c-1.16657,-0.59394 -0.6975,-2.1402 0.33145,-2.52972c5.22327,-1.99112 10.89922,-1.90976 16.27466,-3.20812c-5.67868,-4.16336 -11.68701,-12.52121 -5.19615,-18.23284c4.15645,-3.6517 11.56287,-3.75927 16.17874,-0.52313c-0.06498,-0.1822 -0.12123,-0.36149 -0.18311,-0.54169c0.14525,0.13962 0.48436,0.47762 0.92813,0.94852c0.35276,0.37496 0.76831,0.82948 1.23629,1.37681c0.002,0.00691 0.00291,0.01274 0.004,0.01948c0.03877,0.04751 0.08336,0.08519 0.12014,0.13359c0.72171,0.90792 -0.4292,2.14821 -1.30036,1.30236c-3.79895,-3.69357 -10.40013,-5.36871 -14.81158,-1.37498c-5.75441,5.2098 1.41649,12.76822 6.25223,15.59754c0.27812,0.16272 0.45942,0.37496 0.56791,0.60559c0.59976,0.4931 0.60359,1.73339 -0.37406,2.11982c-4.99465,1.98057 -10.44089,2.14038 -15.60228,3.41252c2.05593,1.09595 3.69248,2.38848 4.27676,5.143c0.54152,2.54246 -0.6094,4.89781 -2.1635,6.90732c2.99188,-0.08136 5.83268,0.43503 8.47689,2.3457c1.66075,1.19952 2.42906,3.00462 2.86993,4.9202c4.96752,-6.89877 8.57373,-14.62482 13.12187,-21.80336c-1.87882,-1.75085 -3.39214,-4.02193 -4.985,-6.0005c-1.70335,-2.11708 -4.64498,-4.84648 -5.29808,-7.5302c-0.34093,-1.40411 1.39137,-2.49496 2.44745,-1.4254c0.98163,0.9922 1.51551,2.38848 2.28673,3.55214z" fill="#000000"/></g><g stroke-width="0.53231"><path d="M248.45328,148.64142v0c0.14234,-0.77322 -0.62979,-1.15693 -1.15019,-0.85368c0.01565,-0.07845 0.0253,-0.15599 0.04168,-0.23354c0,0 1.29162,-6.13702 5.81356,-5.9752c4.29605,0.15417 7.55933,2.5725 6.97613,7.69603c-0.20841,-1.42522 -2.74105,-1.83895 -3.44547,-0.09592c-1.80018,4.45987 -2.4156,9.75304 -0.55626,14.30392c1.063,2.60053 2.77399,4.82919 3.71777,7.48779c0.57155,1.60651 0.38552,3.40288 0.002,5.01504c-0.6105,2.56468 -3.5656,1.94654 -3.85047,-0.2703c-0.19295,-0.72663 -0.2936,-1.46599 -0.29651,-2.2121c-0.06007,-1.30309 -1.73139,-1.44453 -2.17715,-0.29742c-0.72863,1.87973 -1.40975,3.72361 -2.77109,5.25258c-1.89138,1.94835 -4.04122,-0.33055 -3.22358,-1.96692c0.3169,-1.08612 1.36917,-2.9562 2.01642,-3.87376c0.55808,-0.7887 -0.48745,-1.557 -1.21116,-1.21116c-0.66674,0.33728 -3.14896,1.80891 -3.46968,1.93596c-1.86808,0.73737 -3.60347,-1.67714 -2.09197,-2.86901c1.56774,-1.23338 4.03649,-1.78272 6.00832,-1.92415c0.82255,-0.06007 1.58996,-0.82164 1.29435,-1.70043c-0.76741,-2.28854 -1.65384,-4.53068 -2.32732,-6.84925c-1.18587,-4.082 -0.03185,-7.41315 0.7006,-11.35846z" fill="#6cbd45"/><path d="M261.13812,168.93419v0c1.17913,2.37483 1.64619,6.53036 0.17146,8.89172c-2.67698,4.29605 -5.59532,2.29328 -6.99161,-0.86824c-1.28471,2.59088 -3.09763,4.72927 -6.41805,4.09274c-3.32807,-0.63963 -2.59362,-4.13624 -1.36133,-6.79412c-2.85828,1.08338 -6.32686,1.39828 -7.07097,-2.0481c-0.72773,-3.37375 4.46078,-5.13918 7.56807,-5.95499c-0.20641,-0.61814 -0.39135,-1.21881 -0.56572,-1.81275l-0.76448,-2.77509c0.02312,0 0.04551,-0.00091 0.06771,-0.00091c-0.901,-4.42402 -0.67038,-8.50893 1.16657,-13.43877c0.07955,-0.21205 0.21224,-0.34783 0.36241,-0.43593c0.5213,-0.30416 1.29253,0.07935 1.1511,0.85258c-0.73245,3.9464 -1.88647,7.27647 -0.7006,11.35847c0.67347,2.31767 1.55992,4.56071 2.32732,6.84925c0.2956,0.8788 -0.4718,1.64038 -1.29435,1.70043c-1.97183,0.14052 -4.44058,0.69077 -6.00832,1.92432c-1.5115,1.1926 0.22389,3.60619 2.09197,2.86883c0.32073,-0.12687 2.80293,-1.59868 3.46968,-1.93579c0.72371,-0.34602 1.76924,0.42248 1.21116,1.21099c-0.64727,0.91756 -1.69952,2.78765 -2.01642,3.87377c-0.81764,1.63655 1.33221,3.91526 3.22358,1.96691c1.36133,-1.52898 2.04245,-3.37375 2.77109,-5.25238c0.44577,-1.14637 2.11708,-1.00585 2.17715,0.29742c0.00291,0.74502 0.10356,1.48528 0.29651,2.21192c0.28486,2.21683 3.23997,2.83406 3.85047,0.27031c0.38352,-1.61216 0.56954,-3.40852 -0.002,-5.01504c-0.94378,-2.6595 -2.65478,-4.88709 -3.71777,-7.48762c-1.85934,-4.55197 -1.24393,-9.84405 0.55626,-14.30392c0.70442,-1.74213 3.23797,-1.32948 3.44547,0.09592c0.03568,0.247 0.00965,0.52021 -0.11631,0.82255c-1.16948,2.79912 -2.5745,5.79591 -2.4136,8.90227c0.05042,0.92139 0.18602,1.77398 0.37987,2.58707l0.89517,2.7061c0.64144,1.52898 1.44853,3.00462 2.25851,4.64007z" fill="#000000"/></g><g stroke-width="0.53231"><path d="M285.79885,149.12578c0.73245,3.94548 1.88647,7.27664 0.70041,11.35864c-0.6733,2.31858 -1.55992,4.56053 -2.32732,6.84908c-0.29542,0.8788 0.4718,1.64038 1.29453,1.70043c1.97164,0.14143 4.4404,0.69095 6.00814,1.92432c1.51241,1.1917 -0.22279,3.60619 -2.09197,2.86883c-0.32054,-0.12687 -2.80293,-1.59869 -3.4695,-1.9358c-0.7239,-0.34584 -1.76924,0.42248 -1.21116,1.21116c0.64727,0.91756 1.69935,2.78747 2.01625,3.87359c0.81781,1.63655 -1.33221,3.91544 -3.22358,1.96692c-1.36133,-1.52898 -2.04245,-3.37285 -2.77109,-5.25239c-0.44559,-1.14728 -2.1169,-1.00585 -2.17715,0.29742c-0.00274,0.7461 -0.10356,1.48529 -0.29634,2.21192c-0.28486,2.21701 -3.24015,2.83516 -3.85047,0.27048c-0.3837,-1.61235 -0.56972,-3.40871 0.00181,-5.01522c0.94378,-2.6586 2.65495,-4.88708 3.71777,-7.48761c1.85934,-4.55088 1.24411,-9.84405 -0.55607,-14.30392c-0.70442,-1.74303 -3.23725,-1.3293 -3.44547,0.09592c-0.58337,-5.1237 2.67989,-7.54204 6.97613,-7.69603c4.52177,-0.16182 5.81338,5.9752 5.81338,5.9752c0.01656,0.07755 0.0262,0.15509 0.04168,0.23354c-0.5193,-0.30325 -1.29162,0.08046 -1.15,0.85349v0z" fill="#6cbd45"/><path d="M273.11473,169.41855c0.81017,-1.63545 1.61726,-3.11111 2.25851,-4.64007l0.89536,-2.70611c0.19385,-0.8129 0.32945,-1.66549 0.37987,-2.58688c0.16072,-3.10637 -1.24411,-6.10316 -2.4136,-8.90245c-0.12595,-0.30215 -0.15217,-0.57555 -0.11631,-0.82255c0.20732,-1.42522 2.74105,-1.83805 3.44547,-0.09592c1.80018,4.45987 2.41542,9.75212 0.55607,14.30392c-1.06282,2.60053 -2.77399,4.8281 -3.71759,7.48779c-0.57173,1.60633 -0.3857,3.40269 -0.002,5.01504c0.6105,2.56376 3.5656,1.94653 3.85047,-0.27031c0.19276,-0.72663 0.2936,-1.46691 0.29651,-2.2121c0.06007,-1.30309 1.73139,-1.4436 2.17715,-0.29742c0.72863,1.87863 1.40975,3.72361 2.77109,5.25239c1.89119,1.94854 4.04122,-0.33037 3.22341,-1.96673c-0.31671,-1.0863 -1.36898,-2.9562 -2.01625,-3.87376c-0.55808,-0.7887 0.48745,-1.557 1.21116,-1.21116c0.66656,0.33728 3.14896,1.80892 3.46968,1.93597c1.86808,0.73719 3.60328,-1.67623 2.09178,-2.86901c-1.56665,-1.23338 -4.03649,-1.78381 -6.00814,-1.92415c-0.82255,-0.06025 -1.58996,-0.82164 -1.29453,-1.70043c0.76741,-2.28854 1.65403,-4.53159 2.32732,-6.84925c1.18605,-4.082 0.03204,-7.41207 -0.70041,-11.35847c-0.14143,-0.77322 0.62979,-1.15693 1.1511,-0.85277c0.15017,0.08827 0.28286,0.22389 0.36222,0.43613c1.83714,4.92985 2.06775,9.01477 1.16657,13.43877c0.02239,0 0.04459,0.00091 0.0679,0.00091l-0.76448,2.7749c-0.17437,0.59394 -0.35949,1.19461 -0.56591,1.81292c3.10728,0.81581 8.29578,2.58105 7.56824,5.95481c-0.74519,3.44638 -4.21378,3.13148 -7.07114,2.04828c1.23246,2.65769 1.966,6.15448 -1.36133,6.79392c-3.32042,0.63653 -5.13317,-1.50186 -6.41805,-4.09255c-1.3961,3.16151 -4.31444,5.16411 -6.99161,0.86806c-1.47564,-2.36118 -1.00857,-6.51689 0.17146,-8.89172v0z" fill="#000000"/></g><g stroke-width="0.53231"><g><path d="M285.02453,103.37994c-3.49662,0 -6.34233,-3.09963 -6.34233,-6.90932c0,-3.80969 2.84571,-6.90915 6.34233,-6.90915c3.4968,0 6.34252,3.09944 6.34252,6.90915c0,3.80969 -2.84462,6.90932 -6.34252,6.90932z" fill="#ffffff"/><path d="M285.02453,90.53037c-2.96766,0 -5.37343,2.6595 -5.37343,5.94024c0,3.28074 2.40577,5.94043 5.37343,5.94043c2.96785,0 5.37362,-2.65969 5.37362,-5.94043c0,-3.28165 -2.40577,-5.94024 -5.37362,-5.94024M285.02453,90.53037v0v-1.93797v0c4.03176,0 7.31141,3.53375 7.31141,7.87822c0,4.34466 -3.27965,7.87823 -7.31141,7.87823c-4.03158,0 -7.31122,-3.53357 -7.31122,-7.87823c0,-4.34447 3.27965,-7.87822 7.31122,-7.87822z" fill="#000000"/></g><path d="M287.85678,94.73923c0.62396,0 1.18968,0.30234 1.5996,0.79161c0.40991,0.48836 0.66364,1.16366 0.66364,1.90867c0,0.74519 -0.25373,1.42049 -0.66364,1.90886c-0.40991,0.48927 -0.97563,0.79161 -1.5996,0.79161c-0.62396,0 -1.18987,-0.30234 -1.59978,-0.79161c-0.40973,-0.48836 -0.66364,-1.16366 -0.66364,-1.90886c0,-0.74502 0.25392,-1.42031 0.66364,-1.90867c0.40991,-0.48927 0.97582,-0.79161 1.59978,-0.79161z" fill="#231f20"/></g><g stroke-width="0.53231"><g><path d="M267.6512,105.8021c-4.42311,0 -8.02166,-3.76601 -8.02166,-8.39553c0,-4.62933 3.59855,-8.39553 8.02166,-8.39553c4.42292,0 8.02147,3.76619 8.02147,8.39553c0,4.62952 -3.59855,8.39553 -8.02147,8.39553z" fill="#ffffff"/><path d="M267.6512,89.97994c-3.89506,0 -7.05275,3.32533 -7.05275,7.42664c0,4.10148 3.1577,7.42664 7.05275,7.42664c3.89488,0 7.05258,-3.32516 7.05258,-7.42664c0,-4.10129 -3.1577,-7.42664 -7.05258,-7.42664M267.6512,89.97994v0v-1.93779v0c4.95678,0 8.99038,4.20123 8.99038,9.36442c0,5.16338 -4.03358,9.36461 -8.99038,9.36461c-4.95697,0 -8.99055,-4.20123 -8.99055,-9.36461c0,-5.16321 4.03358,-9.36442 8.99055,-9.36442z" fill="#000000"/></g><path d="M271.61306,95.0696c0.82638,0 1.57539,0.37005 2.11708,0.96889c0.54243,0.59885 0.87771,1.42522 0.87771,2.33696c0,0.91174 -0.33528,1.7383 -0.87771,2.33716c-0.54169,0.59866 -1.29071,0.96888 -2.11708,0.96888c-0.82655,0 -1.57557,-0.37022 -2.11708,-0.96888c-0.5426,-0.59885 -0.87788,-1.42541 -0.87788,-2.33716c0,-0.91174 0.33528,-1.73811 0.87788,-2.33696c0.54152,-0.59885 1.29052,-0.96889 2.11708,-0.96889z" fill="#231f20"/></g><path d="M307.4343,124.3795l-41.4427,41.6697c-1.6436,1.6531 -3.8325,2.5632 -6.1646,2.5632c0,0 0,0 -0.0006,0c-1.4574,0 -2.9009,-0.367 -4.1744,-1.0628c-0.1168,-0.0616 -0.2461,-0.1401 -0.3754,-0.2185l-0.0827,-0.0503c-0.0646,-0.0383 -0.1293,-0.0784 -0.1927,-0.1204c-0.5419,-0.3514 -1.055,-0.7717 -1.5023,-1.2346l-13.0866,-13.5488c-3.3343,-3.4523 -3.2385,-8.9738 0.2144,-12.3094c1.6309,-1.5753 3.778,-2.4429 6.0454,-2.4429c2.3836,0 4.6067,0.9443 6.2628,2.6578l6.9615,7.207l35.1944,-35.3859c1.6459,-1.6555 3.8385,-2.5668 6.173,-2.5668c2.3153,0 4.4953,0.8987 6.1364,2.5321c3.4032,3.3846 3.4182,8.908 0.0341,12.3106z" fill="#284a00" stroke-width="0.59874"/><path d="M306.1596,123.1138l-41.4427,41.6697c-2.2172,2.2297 -5.5767,2.6248 -8.2051,1.1902c-0.115,-0.0616 -0.2258,-0.1311 -0.3383,-0.1987c-0.0581,-0.0366 -0.1162,-0.0695 -0.1731,-0.1066c-0.4298,-0.2796 -0.8382,-0.6065 -1.21,-0.9915l-13.086,-13.5476c-2.6506,-2.7446 -2.5752,-7.1184 0.17,-9.7696c2.7435,-2.65 7.1166,-2.574 9.7678,0.1706l8.2357,8.5254l36.487,-36.6858c2.6907,-2.7057 7.0645,-2.7177 9.7684,-0.0275c2.7063,2.6913 2.7177,7.0651 0.0263,9.7714z" fill="#3cf300" stroke-width="0.59874"/></g></g></svg>