<svg version="1.1" xmlns="http://www.w3.org/2000/svg" xmlns:xlink="http://www.w3.org/1999/xlink" width="55.15557" height="54.672" viewBox="0,0,55.15557,54.672"><defs><linearGradient x1="212.42276" y1="180.0002" x2="267.57772" y2="180.0002" gradientUnits="userSpaceOnUse" id="color-1"><stop offset="0.012" stop-color="#a7a9ac"/><stop offset="1" stop-color="#414042"/></linearGradient><linearGradient x1="214.49144" y1="179.9993" x2="265.5085" y2="179.9993" gradientUnits="userSpaceOnUse" id="color-2"><stop offset="0" stop-color="#d1d2d3"/><stop offset="1" stop-color="#a4a5a8"/></linearGradient></defs><g transform="translate(-212.42222,-152.664)"><g data-paper-data="{&quot;isPaintingLayer&quot;:true}" fill-rule="nonzero" stroke-linejoin="miter" stroke-miterlimit="10" stroke-dasharray="" stroke-dashoffset="0" style="mix-blend-mode: normal"><path d="M267.57778,198.731c0,4.752 -2.3359,8.605 -5.21548,8.605h-44.72522c-2.88018,0 -5.21487,-3.854 -5.21487,-8.605v-37.463c0,-4.752 2.33469,-8.604 5.21487,-8.604h44.72461c2.88139,0 5.21548,3.852 5.21548,8.604v37.463z" fill="url(#color-1)" stroke="none" stroke-width="1" stroke-linecap="butt"/><path d="M265.50796,161.268v37.462c0,2.862 -1.41039,5.19 -3.14626,5.19h-44.72461c-1.73405,0 -3.14565,-2.328 -3.14565,-5.19v-37.463c0,-2.862 1.4116,-5.19 3.14565,-5.19h44.72461c1.73587,0 3.14626,2.329 3.14626,5.191z" fill="url(#color-2)" stroke="none" stroke-width="1" stroke-linecap="butt"/><path d="M223.33386,166.92798l33.20001,-0.10408" fill="none" stroke="#000000" stroke-width="4.5" stroke-linecap="round"/><path d="M223.70437,178.93834l33.20002,-0.10407" fill="none" stroke="#000000" stroke-width="4.5" stroke-linecap="round"/><path d="M223.94262,191.47779l33.20001,-0.10407" fill="none" stroke="#000000" stroke-width="4.5" stroke-linecap="round"/></g></g></svg>