<svg version="1.1" xmlns="http://www.w3.org/2000/svg" xmlns:xlink="http://www.w3.org/1999/xlink" width="149.37513" height="58.27622" viewBox="0,0,149.37513,58.27622"><g transform="translate(-165.20214,-150.88892)"><g data-paper-data="{&quot;isPaintingLayer&quot;:true}" fill-rule="nonzero" stroke="#000000" stroke-width="1" stroke-linecap="butt" stroke-linejoin="miter" stroke-miterlimit="10" stroke-dasharray="" stroke-dashoffset="0" style="mix-blend-mode: normal"><path d="M205.59905,187.23052c-0.51423,5.54634 -2.18181,9.75568 -5.08353,12.81902c-1.68961,1.78511 -4.19465,3.19557 -8.36726,4.69419c-0.08081,0.02938 -0.16896,0.05877 -0.25712,0.08815c-1.99815,0.63911 -4.17996,0.96969 -6.4793,0.96969c-3.50411,0 -6.75845,-0.69054 -9.67487,-2.04957c-4.31219,-2.01284 -6.45726,-4.82642 -7.52245,-7.19922c-0.15427,-0.25712 -0.31588,-0.52158 -0.47015,-0.80808c-0.44077,-0.80073 -0.74931,-1.66757 -0.89623,-2.57115c-0.21304,-1.26354 -0.55096,-3.16619 -1.01377,-5.69326c-0.08815,-0.48485 -0.13223,-0.96969 -0.13223,-1.46188v-6.39115c0,-0.79338 0.06612,-1.95407 0.54361,-5.09822c0.46281,-3.07803 0.66115,-4.03303 1.02846,-4.97334c0.96235,-2.5638 3.84203,-10.10095 10.82087,-11.59222c2.292,-0.48485 4.87049,-0.55096 7.30941,-0.2865c1.72634,-2.7695 4.81173,-4.42238 8.31584,-4.42238c6.08261,0 9.44714,4.011 10.07891,7.97791c0.06612,0.41873 0.0955,0.84481 0.0955,1.27088v10.2038c0,0.00735 0,0.01469 0,0.01469c0,0.00735 0,0.00735 0,0.01469c0,0 0,0 0,0.00735c0,0.6685 -0.08815,1.30761 -0.23508,1.93204c1.41781,1.60881 2.20384,3.59226 2.24057,5.7153c0.04408,2.13038 -0.05877,4.43707 -0.30119,6.83926z" fill="#8b3e3e"/><path d="M197.81875,180.52936c0.04187,1.80936 -0.04334,3.77004 -0.25858,5.87985c-0.346,3.7054 -1.31423,6.39702 -2.90834,8.07709c-0.73315,0.77575 -2.47712,1.65876 -5.23339,2.64902c-1.20697,0.38788 -2.5425,0.58181 -4.00659,0.58181c-2.32579,0 -4.41577,-0.43048 -6.26773,-1.29292c-2.02533,-0.94692 -3.27418,-2.17446 -3.748,-3.68336c-0.1719,-0.21524 -0.36657,-0.51643 -0.58108,-0.90431c-0.21671,-1.29219 -0.56051,-3.2301 -1.03434,-5.81521v-6.39702c0,-0.60312 0.1506,-1.89531 0.45252,-3.8773c0.30046,-1.98052 0.49513,-3.07877 0.58181,-3.29475c1.50743,-4.00659 3.16619,-6.20308 4.97481,-6.5917c0.81763,-0.17117 1.72267,-0.25858 2.71367,-0.25858c3.18749,0 6.07453,0.77575 8.6589,2.32652c0.17117,0.08668 0.38714,0.12929 0.64573,0.12929c0.04334,-0.12929 0.08595,-0.66703 0.13003,-1.61542c0.04261,0 0.04261,-0.75298 0,-2.26114c-0.04408,-1.03434 0.05803,-1.76601 0.3056,-2.19723c0.2461,-0.42975 0.74049,-0.64646 1.47951,-0.64646c1.27088,0 1.96877,0.38788 2.09218,1.16363c0,0.04334 0,1.63746 0,4.78161c0,2.36987 0,3.85599 0,4.45838c0,0.73315 0,1.05638 0,0.96896c-0.17337,0.64646 -0.47456,1.0336 -0.90505,1.16289c-1.16216,0.38788 -1.95995,0.41065 -2.39044,0.06465c-0.21598,0 -0.45179,-0.06465 -0.71111,-0.19394c-0.21598,-0.60238 -0.68907,-1.39871 -1.42148,-2.39044c-0.99173,-0.81763 -2.28392,-1.52873 -3.87656,-2.13259c-1.59485,-0.60238 -2.95168,-0.90431 -4.07123,-0.90431c-1.42221,0 -2.56307,1.09825 -3.42477,3.29548c-1.20697,3.01559 -1.74471,6.91346 -1.61542,11.6958c0.08595,2.11128 0.1506,3.44681 0.19467,4.00585c0.21451,1.76675 0.68907,3.27418 1.42148,4.52302c0.51717,0.86244 1.31349,1.57354 2.39117,2.13259c1.07621,0.56051 2.13185,0.8617 3.16619,0.90431c5.12687,0.21598 8.11969,-2.0459 8.98287,-6.7849c0.47383,-2.54103 0.51643,-4.67362 0.12929,-6.39702c-0.08742,-0.34453 -0.04481,-0.80808 0.12929,-1.38989c0.17043,-0.58108 0.92561,-0.93663 2.26114,-1.06593c0.30119,0 0.66703,0.14031 1.09898,0.4202c0.42755,0.28209 0.64426,0.57226 0.64426,0.87346z" fill="#ffffff"/><path d="M261.31848,163.62593c0,0.32323 -0.01469,0.64646 -0.05877,0.96969c-0.32323,2.70338 -1.74838,5.67857 -4.62807,7.58857c0.13223,2.57115 -0.04408,5.9063 -0.52892,10.15237c-0.26446,2.292 -0.52158,4.55461 -0.77869,6.80253c-0.01469,0.13958 -0.03673,0.27915 -0.05877,0.41873c-0.75665,4.51053 -2.10834,8.11749 -4.12119,11.02656c-0.94031,1.41046 -2.26996,2.72542 -4.04773,4.01834c-1.77777,1.28558 -3.46003,2.14507 -5.14965,2.62992c-3.18088,0.96235 -5.99445,1.4325 -8.60968,1.4325c-1.93938,0 -3.73184,-0.25712 -5.34065,-0.77135c-3.55553,-1.09458 -6.72907,-3.11477 -9.37368,-5.97242c-1.719,-1.85123 -2.98253,-3.68776 -3.87142,-5.61245c-1.05784,-2.26996 -1.66023,-5.39207 -1.94673,-10.07891c-0.00735,-0.05142 -0.00735,-0.0955 -0.00735,-0.14692c-0.13958,-3.11477 -0.36731,-7.48572 -0.68319,-13.0541c-2.84296,-1.44719 -4.8558,-4.011 -5.53899,-7.17718c-0.27915,-1.27823 -0.24242,-2.60054 0.11019,-3.86407c0.98438,-3.55553 3.58492,-6.35442 7.14045,-7.67672c0.94765,-0.35996 2.04957,-0.59504 4.06976,-0.85215c0.68319,-0.15427 1.49127,-0.29385 2.4683,-0.42608c0.14692,-0.02204 0.29385,-0.03673 0.44077,-0.05142c0.83746,-0.06612 1.83654,-0.08081 3.48942,-0.02938h2.01284c1.94673,-0.11019 3.96692,0.16162 6.04588,0.79338c1.61615,0.48485 3.01927,1.35904 4.11384,2.51238c0.02938,-0.00735 0.05877,-0.01469 0.0955,-0.02204c0.46281,-0.13223 1.15334,-0.29385 3.01192,-0.6685c0.13958,-0.02938 0.27915,-0.05142 0.41873,-0.07346c0.32323,-0.05877 1.70431,-0.30854 7.52245,-1.42515c2.59319,-0.52158 5.18638,-0.40404 7.39757,0.38935c1.52065,0.53627 3.58492,1.73369 5.06884,4.40034c0.58035,1.04315 1.337,2.6593 1.337,4.76765z" fill="#8b3e3e"/><path d="M252.95671,164.19087c-0.21524,1.76895 -1.72341,2.58805 -4.52229,2.45949c-0.12929,1.33773 -0.19394,3.32266 -0.19394,5.95479c0.17043,2.11422 0.0213,5.24294 -0.45179,9.38397c-0.26005,2.28832 -0.5179,4.55241 -0.77649,6.79592c-0.55978,3.32413 -1.50816,5.93422 -2.84222,7.83246c-0.38861,0.60459 -1.0887,1.27382 -2.10026,2.00697c-1.01303,0.73388 -1.90632,1.20771 -2.68134,1.42368c-2.41321,0.73315 -4.52302,1.10045 -6.33238,1.10045c-1.12029,0 -2.08998,-0.13076 -2.9076,-0.38861c-2.24057,-0.69201 -4.20053,-1.94379 -5.88059,-3.75976c-1.12029,-1.20918 -1.93865,-2.37648 -2.45582,-3.50191c-0.60312,-1.29659 -1.0123,-3.69438 -1.22754,-7.19555c-0.17263,-4.01981 -0.49586,-10.04953 -0.96896,-18.08768c0,-0.30193 -0.19394,-0.73388 -0.58181,-1.29659c-1.63746,-0.13003 -2.58437,-0.21524 -2.84296,-0.26005c-1.12029,-0.30193 -1.78805,-0.94986 -2.00329,-1.94452c0.29899,-1.08062 1.02626,-1.83654 2.18327,-2.26849c0.34086,-0.12929 1.24003,-0.28062 2.6953,-0.45399c0.47089,-0.12929 1.17685,-0.25932 2.11863,-0.38861c0.51276,-0.04261 1.41193,-0.04261 2.69604,0c-0.08668,0 0.71772,0 2.41394,0c1.04389,-0.08595 2.19576,0.06538 3.4571,0.45326c0.60826,0.1719 0.91313,0.60312 0.91313,1.29439c0,0.86317 -0.34527,1.48906 -1.0336,1.87694c-0.47456,0.3034 -1.27088,0.49733 -2.39044,0.58255c-0.77575,-0.04261 -1.74471,0.06612 -2.90834,0.32397c-0.30193,0.17263 -0.45179,0.47456 -0.45179,0.90651c0.04261,0.34527 0.06465,0.66923 0.06465,0.96969c-0.04408,1.38181 0.02057,3.34543 0.19394,5.89161c0.12929,1.81376 0.19394,2.93552 0.19394,3.36674v4.0132c0,0.12929 0.04261,0.45326 0.12929,0.97116c0.08595,0.5179 0.13003,0.81983 0.13003,0.90505v4.79042c0.12929,0.34527 0.25858,0.86317 0.38714,1.55298c0.12929,1.94232 1.13057,3.79943 3.00457,5.56764c1.874,1.76895 3.80163,2.65343 5.78362,2.65343c0.81763,0 2.32579,-0.30193 4.52302,-0.90651c0.86097,-0.25858 1.65802,-0.88448 2.39044,-1.87841c0.73241,-0.99246 1.1842,-1.94232 1.35683,-2.84884c0.21524,-0.38788 0.47383,-0.9932 0.77649,-1.81376c0.38714,-2.15756 0.88227,-5.43762 1.48613,-9.84163c0.42901,-4.92045 0.49366,-9.32446 0.19394,-13.20984c-0.5179,-0.04261 -1.31569,0.04408 -2.3919,0.25858c-1.20624,0.30193 -2.0459,0.45252 -2.51973,0.45252c-1.12029,0 -1.93865,-0.47383 -2.45582,-1.42221c-0.1719,-0.86097 0.27989,-1.50743 1.35757,-1.93865c0.30046,-0.08522 1.09825,-0.25858 2.39117,-0.51643c0.08522,0 2.71293,-0.49513 7.88241,-1.48613c1.29292,-0.25858 2.34709,-0.23581 3.16692,0.06465c0.25858,0.08668 0.49513,0.32397 0.71037,0.71184c0.21304,0.38935 0.32103,0.66997 0.32103,0.84334z" fill="#ffffff"/><path d="M314.08693,163.73572c-0.02938,0.12488 -0.05142,0.24977 -0.08815,0.37465c-0.11019,0.46281 -0.33792,1.55738 -0.56565,3.69511c0,0.03673 0,0.06612 -0.00735,0.08815c1.25619,5.05415 -0.8595,8.13218 -2.26261,9.5353c-0.08815,0.0955 -0.18365,0.18365 -0.2865,0.27181c-1.37373,1.24884 -3.77592,2.74011 -7.36084,2.74011c-1.78511,0 -3.45269,-0.39669 -4.90722,-1.12396c0.03673,2.0055 0.05877,4.76765 0.05877,8.60234c1.32231,0.46281 2.53442,1.21211 3.56288,2.1965c2.04223,1.96142 3.15884,4.58399 3.15884,7.38288c0,4.15792 -2.39484,7.77222 -6.25157,9.4251c-0.0955,0.04408 -0.19835,0.08815 -0.29385,0.12488c-1.29292,0.49219 -2.74746,0.73461 -4.45176,0.73461c-0.61708,0 -1.27823,-0.02938 -1.99815,-0.0955c-0.44077,-0.02204 -1.08723,-0.01469 -1.85123,0.00735c-1.38842,0.15427 -3.3425,0.30854 -5.95772,0.45546c-0.05142,0 -0.10285,0.00735 -0.16162,0.00735c-0.34527,0.01469 -0.67585,0.02204 -0.99908,0.02204c-4.67949,0 -8.09545,-1.48392 -10.15972,-4.40034c-0.04408,-0.05877 -0.08081,-0.11754 -0.11754,-0.17631c-2.101,-3.1368 -2.15977,-7.10372 -0.16162,-10.34337c0.01469,-0.03673 0.03673,-0.06612 0.05877,-0.10285c1.27088,-1.99815 3.12946,-3.4233 5.53899,-4.26076c0.02938,-1.41781 0.02204,-3.19557 -0.02204,-5.30392c-1.19742,0.49954 -2.5785,0.79338 -4.12853,0.79338c-4.0918,0 -7.47103,-2.43157 -8.64641,-6.12669c-0.24242,-0.74931 -0.47015,-1.84388 -0.99908,-4.31219c-0.02204,-0.08815 -0.03673,-0.17631 -0.05142,-0.26446l-1.08723,-6.07526c-0.03673,-0.13223 -0.08815,-0.2865 -0.14692,-0.46281c-0.56565,-1.60881 -0.83011,-2.97519 -0.83011,-4.29749c0,-1.63819 0.4775,-4.11384 2.74011,-6.58215c1.13865,-1.24884 3.21027,-2.865 6.54542,-3.38657c0.41138,-0.06612 0.83011,-0.10285 1.24884,-0.10285h8.12484c0.18365,0 0.36731,0.00735 0.55096,0.02204c3.10007,0.11019 5.87692,0.10285 8.25707,-0.00735c3.3278,-0.14692 6.64826,-0.43342 9.9026,-0.85215c0.36731,-0.11754 0.764,-0.23508 1.19008,-0.33792c0.40404,-0.10285 0.81542,-0.16896 1.22681,-0.21304c3.12946,-0.2865 6.04588,0.61708 8.31584,2.55646c2.81357,2.41688 4.05507,6.07526 3.31311,9.79241z" fill="#8b3e3e"/><path d="M306.1619,163.28766c-0.30119,1.20697 -0.55978,2.84296 -0.77502,4.9109c-0.08742,1.03434 -0.04481,1.874 0.12929,2.52046c0.29972,1.07768 0.27989,1.78879 -0.06465,2.13259c-0.47456,0.43048 -1.12029,0.64573 -1.93865,0.64573c-0.94839,0 -1.57428,-0.28136 -1.874,-0.84554c-0.04481,-1.73516 -0.02277,-3.36307 0.06465,-4.88225c0.08448,-1.86592 0.12929,-2.84222 0.12929,-2.92891c-0.04481,0 -0.10872,-0.04334 -0.19394,-0.13076c-4.00732,0.1741 -7.77663,0.43269 -11.30866,0.77796c-0.08668,0.43269 -0.08668,1.12249 0,2.07161c0.17117,1.33847 0.25858,2.11569 0.25858,2.3302c-0.1719,1.33847 -0.25858,3.3234 -0.25858,5.95699c0.17117,1.12249 0.25858,5.93569 0.25858,14.43885v4.72724c0,0.73388 0.10652,1.25178 0.32029,1.55371h3.96765c0.72506,-0.08595 1.31129,0.08668 1.76014,0.51717c0.44738,0.43122 0.67144,0.94765 0.67144,1.55004c0,0.94692 -0.45179,1.61542 -1.35683,2.00403c-0.56051,0.21451 -1.55077,0.25858 -2.97225,0.12929c-0.68907,-0.04408 -1.7021,-0.04408 -3.03763,0c-1.20624,0.14986 -3.14415,0.30046 -5.81521,0.45179c-2.32652,0.08595 -3.748,-0.23728 -4.26517,-0.96896c-0.34527,-0.51643 -0.34527,-1.05564 0,-1.61542c0.60238,-0.94692 2.17519,-1.42148 4.71769,-1.42148c0.90431,0 1.46335,-0.07493 1.67933,-0.22553c0.21524,-0.1506 0.32323,-0.4415 0.32323,-0.87199c0,-0.38641 0,-0.75151 0,-1.09604c0,-0.64426 0,-1.59044 0,-2.83708c0.12929,-2.19136 0.12929,-5.45966 0,-9.80196c-0.17263,-6.2332 -0.08668,-11.71343 0.25858,-16.44288c-0.04334,-0.04261 -0.10799,-0.10725 -0.19541,-0.19394c-1.55959,0.08668 -4.07197,0.04334 -7.53714,-0.13003c-0.39008,0 -1.71239,0.08742 -3.96398,0.25932c0.55978,3.92064 0.90431,6.87158 1.0336,8.85284c0,0.25858 -0.04334,0.8404 -0.12929,1.74471c-0.04334,0.64573 -0.58181,0.96896 -1.61542,0.96896c-0.56051,0 -0.88301,-0.19247 -0.96896,-0.57667c-0.04334,-0.08448 -0.30193,-1.23929 -0.77575,-3.46077c-0.25858,-1.45233 -0.62516,-3.50338 -1.09825,-6.1524c0,-0.16896 -0.15133,-0.70303 -0.45179,-1.60146c-0.25712,-0.72653 -0.38567,-1.2819 -0.38567,-1.66611c0,-0.29825 0.20349,-0.67364 0.61414,-1.12102c0.40918,-0.44811 1.02332,-0.73755 1.84168,-0.86611c0.12929,0 0.33278,0 0.61414,0c0.27915,0 0.50541,0 0.67805,0c5.12687,0 7.36671,0 6.72025,0c3.48942,0.13003 6.59096,0.13003 9.30463,0c3.87656,-0.17117 7.70978,-0.51643 11.50186,-1.0336c0.25858,-0.12929 0.64573,-0.25858 1.16216,-0.38714c0.94839,-0.08595 1.72341,0.12929 2.32726,0.64646c0.60238,0.5157 0.81763,1.2055 0.64573,2.06721z" fill="#ffffff"/></g></g></svg>