<svg version="1.1" xmlns="http://www.w3.org/2000/svg" xmlns:xlink="http://www.w3.org/1999/xlink" width="51.556" height="164.80429" viewBox="0,0,51.556,164.80429"><defs><linearGradient x1="203" y1="158" x2="252.50943" y2="158" gradientUnits="userSpaceOnUse" id="color-1"><stop offset="0" stop-color="#f2f2f2"/><stop offset="1" stop-color="#b2b2b2"/></linearGradient></defs><g transform="translate(-201.45343,-96)"><g data-paper-data="{&quot;isPaintingLayer&quot;:true}" fill-rule="nonzero" stroke-linecap="butt" stroke-linejoin="miter" stroke-miterlimit="10" stroke-dasharray="" stroke-dashoffset="0" style="mix-blend-mode: normal"><path d="M247.18838,210.62728c0,2.78192 -8.74741,5.03711 -19.53788,5.03711c-10.79047,0 -19.53788,-2.25519 -19.53788,-5.03711c0,-2.78192 8.74741,-5.03711 19.53788,-5.03711c10.79047,0 19.53788,2.25519 19.53788,5.03711z" fill="#cecece" stroke="#cecece" stroke-width="0.5"/><path d="M246.46841,252.31101c0,3.7319 -8.22607,7.49328 -18.56884,7.49328c-10.34275,0 -18.88562,-4.14747 -18.88562,-7.87941c0,-2.51132 -5.08418,-40.99872 0.55115,-42.16355c2.73899,-0.56615 14.79327,5.28826 18.1761,5.28826c4.02499,0 12.3517,-7.13715 17.76408,-4.35887c8.17782,4.19784 0.96314,39.34066 0.96314,41.62025z" fill="#e6e6e6" stroke="#cecece" stroke-width="2"/><path d="M203,219.5v-123h49.50943v123c0,0 -16.55894,12 -25.31501,12c-7.5755,0 -24.19443,-12 -24.19443,-12z" fill="url(#color-1)" stroke="#b6b6b6" stroke-width="1"/><text transform="translate(203.7448,209.22705) scale(0.5,0.5)" font-size="40" xml:space="preserve" fill="#000000" fill-rule="nonzero" stroke="none" stroke-width="1" stroke-linecap="butt" stroke-linejoin="miter" stroke-miterlimit="10" stroke-dasharray="" stroke-dashoffset="0" font-family="Sans Serif" font-weight="normal" text-anchor="start" style="mix-blend-mode: normal"><tspan x="0" dy="0">Cups</tspan></text></g></g></svg>