<svg version="1.1" xmlns="http://www.w3.org/2000/svg" xmlns:xlink="http://www.w3.org/1999/xlink" width="91.001" height="54.672" viewBox="0,0,91.001,54.672"><defs><linearGradient x1="195.1699" y1="176.1562" x2="286.1699" y2="176.1562" gradientUnits="userSpaceOnUse" id="color-1"><stop offset="0.012" stop-color="#66b3e3"/><stop offset="1" stop-color="#1c75bc"/></linearGradient></defs><g transform="translate(-195.169,-148.82)"><g data-paper-data="{&quot;isPaintingLayer&quot;:true}" fill-rule="nonzero" stroke="none" stroke-width="1" stroke-linecap="butt" stroke-linejoin="miter" stroke-miterlimit="10" stroke-dasharray="" stroke-dashoffset="0" style="mix-blend-mode: normal"><path d="M286.17,194.887c0,4.752 -3.854,8.605 -8.605,8.605h-73.792c-4.752,0 -8.604,-3.854 -8.604,-8.605v-37.463c0,-4.752 3.852,-8.604 8.604,-8.604h73.791c4.754,0 8.605,3.852 8.605,8.604v37.463z" fill="url(#color-1)"/><path d="M282.755,157.424v37.462c0,2.862 -2.327,5.19 -5.191,5.19h-73.791c-2.861,0 -5.19,-2.328 -5.19,-5.19v-37.463c0,-2.862 2.329,-5.19 5.19,-5.19h73.791c2.864,0 5.191,2.329 5.191,5.191z" fill="#27aae1"/><g><path d="M239.23167,196.93234c-20.83855,-4.65776 -36.04219,-6.44362 -31.79799,-15.81575c4.2442,-9.37212 32.08454,-4.8726 44.34605,-3.02453c12.26151,1.84807 26.55602,9.66581 23.37516,18.69256c-1.8329,4.78022 -28.97704,1.70031 -35.92323,0.14772z" fill="#e8ae68"/><path d="M275.05602,196.76972c-1.73402,4.79512 -28.87816,1.71521 -36.02211,0.13282c-17.7041,-3.98307 -31.37978,-5.84203 -32.34943,-12.15707c1.61194,0.04069 2.74436,-0.09201 3.78192,1.07566c1.22042,1.29637 4.32364,4.1912 7.83471,3.70909c3.51107,-0.4821 4.51882,0.88334 6.59536,1.19632c2.07655,0.31298 2.26485,-0.26542 4.63805,0.09228c2.27431,0.34279 8.82354,3.85813 10.9746,3.6767c2.15107,-0.18144 3.46635,-0.18545 4.72203,0.20606c1.25567,0.39152 4.93871,1.45228 7.08032,0.66264c2.04272,-0.80454 9.2205,1.89537 10.80807,1.42675c1.58757,-0.46862 2.98684,-0.35885 4.66786,-0.10549c1.38436,0.20865 5.4251,-1.10378 7.68995,-1.3692c-0.07452,0.49442 -0.24792,0.97393 -0.42132,1.45344z" fill="#d69a51"/><path d="M232.21033,175.74931c-4.08143,2.92437 -7.04131,7.13021 -7.04131,7.13021c-0.36832,-3.59504 0.58267,-5.87882 1.82487,-7.41079c1.72572,-0.04328 3.42164,0.1112 5.21644,0.28058z" fill="#f2c083"/><path d="M238.2365,184.74794c-0.47666,-4.21815 1.01346,-6.72405 2.5523,-8.21132c1.7948,0.16939 3.5747,0.43765 5.15683,0.67611c-4.47696,2.86476 -7.70913,7.5352 -7.70913,7.5352z" fill="#f2c083"/><path d="M250.40859,187.18931c-0.48612,-4.82635 1.41443,-7.37152 3.13614,-8.7301c1.48325,0.22356 3.03557,0.65978 4.58789,1.09601c-4.37808,2.87966 -7.70913,7.5352 -7.72404,7.63409z" fill="#f2c083"/><path d="M212.90582,190.43624c0,0 1.15679,0.37661 3.28751,1.00115c2.03183,0.60963 5.0525,1.3683 8.66647,2.21639c3.61397,0.84809 7.83613,1.68672 12.35495,2.57006c2.25941,0.44167 4.6177,0.89825 6.9909,1.25594c2.3732,0.35769 4.86018,0.6314 7.24828,0.89021c4.87508,0.53252 9.79487,0.76839 14.46273,0.6629c2.33393,-0.05275 4.48499,-0.23418 6.58189,-0.72717c0.94956,-0.2614 2.02782,-0.70566 2.4437,-1.45201c0.23302,-0.87504 0.38206,-1.86388 0.41731,-2.76873c0.0705,-1.8097 -0.59589,-3.42709 -1.42078,-4.66384c-0.82489,-1.23675 -1.69449,-2.17686 -2.49502,-2.90429c-0.80053,-0.72743 -1.43309,-1.22729 -1.8828,-1.59846c-0.4497,-0.37117 -0.73145,-0.51476 -0.73145,-0.51476c0,0 0.28175,0.14359 0.73145,0.51476c0.4497,0.37117 1.19606,0.78705 1.99658,1.51448c0.80053,0.72743 1.78391,1.58356 2.6088,2.82031c0.82489,1.23675 1.59016,2.86904 1.60364,4.79253c-0.03525,0.90485 -0.08541,1.90859 -0.44711,2.96649c-0.28719,0.56349 -0.74234,0.89941 -1.18258,1.13644c-0.44024,0.23703 -0.97937,0.45916 -1.50359,0.58241c-2.1118,0.59187 -4.36175,0.7584 -6.71058,0.91003c-4.68276,0.20437 -9.58765,-0.13038 -14.47763,-0.56402c-2.48698,-0.27371 -4.97396,-0.54742 -7.44604,-0.92002c-2.3732,-0.35769 -4.73149,-0.81427 -6.9909,-1.25594c-4.51882,-0.88334 -8.72608,-1.82085 -12.32514,-2.76783c-3.59906,-0.94697 -6.50594,-1.78962 -8.62175,-2.51304c-2.01693,-0.70851 -3.15882,-1.18401 -3.15882,-1.18401z" fill="#ad7939"/><path d="M250.80386,194.63134c-1.30038,-0.09487 -1.81372,-1.38579 -0.7111,-1.32073c1.10262,0.06506 2.30814,1.46031 0.7111,1.32073z" fill="#d69a51"/><path d="M239.65442,193.45653c-1.30038,-0.09487 0.21811,-0.77616 1.19204,-0.52824c0.97393,0.24792 0.00946,0.6082 -1.19204,0.52824z" fill="#d69a51"/><path d="M262.30411,196.16241c-1.10262,-0.06506 -0.62168,-1.91403 1.65263,-1.57124c2.27431,0.34279 0.04328,1.72572 -1.65263,1.57124z" fill="#d69a51"/><path d="M260.77213,194.92022c-1.27602,0.41445 -1.54286,0.17198 -1.17169,-0.27773c0.37117,-0.4497 1.8097,0.0705 1.17169,0.27773z" fill="#d69a51"/><path d="M216.34379,188.42618c-1.7948,-0.16939 -3.26716,-1.80711 -1.67013,-1.66754c1.59703,0.13958 2.87163,1.7475 1.67013,1.66754z" fill="#d69a51"/><path d="M218.22257,188.70935c-0.86014,-0.3319 -0.97794,-1.56321 -0.18688,-1.44398c0.79107,0.11923 1.1459,1.79078 0.18688,1.44398z" fill="#d69a51"/><path d="M234.30527,192.04352c-0.93466,0.16252 -1.15135,-1.0837 -0.16252,-0.93466c0.98883,0.14904 0.78562,0.82632 0.16252,0.93466z" fill="#d69a51"/><path d="M272.92128,194.82989c-1.1866,-0.17885 -0.39955,-1.3749 0.68817,-1.21096c1.08771,0.16394 0.49843,1.38981 -0.68817,1.21096z" fill="#d69a51"/></g><path d="M250.42349,187.09043c0,0 0.38607,-0.54859 0.91574,-1.37892c0.25738,-0.36572 0.64345,-0.91431 1.11351,-1.34911c0.37117,-0.4497 0.85612,-0.98339 1.34108,-1.51707c0.95501,-0.96848 1.99399,-1.82318 2.88939,-2.39613c0.89539,-0.57295 1.54831,-0.87906 1.54831,-0.87906c0,0 -0.11379,0.08398 -0.35626,0.35082c-0.22757,0.16796 -0.58384,0.51878 -0.9252,0.77072c-0.35626,0.35082 -0.82632,0.78562 -1.29637,1.22042c-0.47005,0.4348 -0.9401,0.8696 -1.42506,1.40328c-0.95501,0.96848 -1.91001,1.93697 -2.62254,2.63861c-0.71253,0.70164 -1.18258,1.13644 -1.18258,1.13644z" fill="#d69a51"/><g fill="#d69a51"><path d="M238.2365,184.74794c0,0 0.38607,-0.54859 0.91574,-1.37892c0.62855,-0.81543 1.49958,-1.8977 2.45458,-2.86618c0.95501,-0.96848 2.0089,-1.92206 2.80541,-2.50992c0.88049,-0.47407 1.5334,-0.78018 1.5334,-0.78018c0,0 -0.11379,0.08398 -0.35626,0.35082c-0.22757,0.16796 -0.56893,0.4199 -0.9252,0.77072c-0.71253,0.70164 -1.66754,1.67013 -2.62254,2.63861c-0.95501,0.96848 -1.91001,1.93697 -2.62254,2.63861c-0.71253,0.70164 -1.18258,1.13644 -1.18258,1.13644z"/><path d="M225.18392,182.78064c0,0 0.28719,-0.56349 0.90084,-1.28004c0.51476,-0.73145 1.37089,-1.71484 2.22701,-2.69823c0.84122,-0.8845 1.78132,-1.75411 2.57783,-2.34196c0.79651,-0.58786 1.33564,-0.80999 1.33564,-0.80999c0,0 -0.11379,0.08398 -0.34136,0.25194c-0.22757,0.16796 -0.47005,0.4348 -0.82632,0.78562c-0.61365,0.71655 -1.55375,1.58615 -2.39497,2.47065c-0.84122,0.8845 -1.68244,1.76901 -2.39497,2.47065c-0.61365,0.71655 -1.0837,1.15135 -1.0837,1.15135z"/></g><text transform="translate(214.50004,171.14285) scale(0.5,0.5)" font-size="40" xml:space="preserve" fill="#ffffff" fill-rule="nonzero" stroke="none" stroke-width="1" stroke-linecap="butt" stroke-linejoin="miter" stroke-miterlimit="10" stroke-dasharray="" stroke-dashoffset="0" font-family="Sans Serif" font-weight="normal" text-anchor="start" style="mix-blend-mode: normal"><tspan x="0" dy="0">Bread</tspan></text></g></g></svg>