<svg version="1.1" xmlns="http://www.w3.org/2000/svg" xmlns:xlink="http://www.w3.org/1999/xlink" width="44.49837" height="61.30661" viewBox="0,0,44.49837,61.30661"><g transform="translate(-232.2425,-170.16433)"><g data-paper-data="{&quot;isPaintingLayer&quot;:true}" fill-rule="nonzero" stroke-linejoin="miter" stroke-miterlimit="10" stroke-dasharray="" stroke-dashoffset="0" style="mix-blend-mode: normal"><path d="M273.52171,181.29394c0,2.78192 -8.74741,5.03711 -19.53788,5.03711c-10.79047,0 -19.53788,-2.25519 -19.53788,-5.03711c0,-2.78192 8.74741,-5.03711 19.53788,-5.03711c10.79047,0 19.53788,2.25519 19.53788,5.03711z" fill="#cecece" stroke="#cecece" stroke-width="0.5" stroke-linecap="butt"/><path d="M235.69323,171.91434l11.95373,0.59893l7.32649,15.5724" fill="none" stroke="#e70000" stroke-width="3.5" stroke-linecap="round"/><path d="M272.80174,222.97767c0,3.7319 -8.22607,7.49328 -18.56884,7.49328c-10.34275,0 -18.88562,-4.14747 -18.88562,-7.87941c0,-2.51132 -5.08418,-40.99872 0.55115,-42.16355c2.73899,-0.56615 14.79327,5.28826 18.1761,5.28826c4.02499,0 12.3517,-7.13715 17.76408,-4.35887c8.17782,4.19784 0.96314,39.34066 0.96314,41.62025z" fill="#e6e6e6" stroke="#cecece" stroke-width="2" stroke-linecap="butt"/></g></g></svg>