<svg version="1.1" xmlns="http://www.w3.org/2000/svg" xmlns:xlink="http://www.w3.org/1999/xlink" width="109.8747" height="32.98932" viewBox="0,0,109.8747,32.98932"><g transform="translate(-185.06265,-163.50534)"><g data-paper-data="{&quot;isPaintingLayer&quot;:true}" fill-rule="nonzero" stroke="none" stroke-width="1" stroke-linecap="butt" stroke-linejoin="miter" stroke-miterlimit="10" stroke-dasharray="" stroke-dashoffset="0" style="mix-blend-mode: normal"><g><path d="M238.67673,195.70924c-33.45904,-2.35627 -57.49299,-1.57085 -53.09462,-17.12223c4.39837,-15.55138 48.69625,-15.08013 68.17475,-15.08013c19.4785,0 43.51246,8.79674 40.68493,23.5627c-1.72793,7.85423 -44.61205,9.42508 -55.76506,8.63966z" fill="#e8ae68"/><path d="M294.28471,187.06958c-1.57085,7.85423 -44.45496,9.42508 -55.92214,8.63966c-28.43233,-2.0421 -50.11001,-1.72793 -53.09462,-11.3101c2.51335,-0.31417 4.24129,-0.78542 6.1263,0.78542c2.19919,1.72793 7.69715,5.49796 13.03803,3.92712c5.34088,-1.57085 7.2259,0.31417 10.52467,0.31417c3.29878,0 3.45586,-0.94251 7.2259,-0.94251c3.61295,0 14.60887,3.92712 17.90765,3.14169c3.29878,-0.78542 5.34088,-1.09959 7.38298,-0.78542c2.0421,0.31417 8.01132,1.09959 11.15301,-0.62834c2.98461,-1.72793 14.76596,0.78542 17.12223,-0.31417c2.35627,-1.09959 4.55546,-1.25668 7.2259,-1.25668c2.19919,0 8.1684,-2.98461 11.62427,-3.92712c0,0.78542 -0.15708,1.57085 -0.31417,2.35627z" fill="#d69a51"/><path d="M222.81118,164.44939c-5.65505,5.49796 -9.268,12.72386 -9.268,12.72386c-1.41376,-5.49796 -0.47125,-9.268 1.09959,-11.93844c2.67044,-0.47125 5.34088,-0.62834 8.1684,-0.78542z" fill="#f2c083"/><path d="M234.27836,177.01616c-1.72793,-6.44047 0,-10.68176 2.0421,-13.3522c2.82752,-0.15708 5.65505,-0.15708 8.1684,-0.15708c-6.28339,5.49796 -10.2105,13.50928 -10.2105,13.50928z" fill="#f2c083"/><path d="M253.75686,177.95867c-1.88502,-7.38298 0.47125,-11.78135 2.82752,-14.29471c2.35627,0 4.86962,0.31417 7.38298,0.62834c-6.1263,5.49796 -10.2105,13.50928 -10.2105,13.66637z" fill="#f2c083"/><path d="M196.26387,191.78212c0,0 1.88502,0.31417 5.34088,0.78542c3.29878,0.47125 8.1684,0.94251 13.98054,1.41376c5.81213,0.47125 12.56677,0.78542 19.79267,1.09959c3.61295,0.15708 7.38298,0.31417 11.15301,0.31417c3.77003,0 7.69715,-0.15708 11.46718,-0.31417c7.69715,-0.31417 15.3943,-1.09959 22.62019,-2.35627c3.61295,-0.62834 6.91173,-1.41376 10.05342,-2.67044c1.41376,-0.62834 2.98461,-1.57085 3.45586,-2.82752c0.15708,-1.41376 0.15708,-2.98461 0,-4.39837c-0.31417,-2.82752 -1.72793,-5.18379 -3.29878,-6.91173c-1.57085,-1.72793 -3.14169,-2.98461 -4.55546,-3.92712c-1.41376,-0.94251 -2.51335,-1.57085 -3.29878,-2.0421c-0.78542,-0.47125 -1.25668,-0.62834 -1.25668,-0.62834c0,0 0.47125,0.15708 1.25668,0.62834c0.78542,0.47125 2.0421,0.94251 3.45586,1.88502c1.41376,0.94251 3.14169,2.0421 4.71254,3.77003c1.57085,1.72793 3.14169,4.0842 3.61295,7.06881c0.15708,1.41376 0.31417,2.98461 0,4.71254c-0.31417,0.94251 -0.94251,1.57085 -1.57085,2.0421c-0.62834,0.47125 -1.41376,0.94251 -2.19919,1.25668c-3.14169,1.41376 -6.59756,2.19919 -10.2105,2.98461c-7.2259,1.41376 -14.92304,2.0421 -22.62019,2.51335c-3.92712,0.15708 -7.85423,0.31417 -11.78135,0.31417c-3.77003,0 -7.54006,-0.15708 -11.15301,-0.31417c-7.2259,-0.31417 -13.98054,-0.78542 -19.79267,-1.41376c-5.81213,-0.62834 -10.52467,-1.25668 -13.98054,-1.88502c-3.29878,-0.62834 -5.18379,-1.09959 -5.18379,-1.09959z" fill="#ad7939"/><path d="M256.11313,189.42585c-2.0421,0.15708 -3.14169,-1.72793 -1.41376,-1.88502c1.72793,-0.15708 3.92712,1.72793 1.41376,1.88502z" fill="#d69a51"/><path d="M238.51965,190.21127c-2.0421,0.15708 0.15708,-1.25668 1.72793,-1.09959c1.57085,0.15708 0.15708,0.94251 -1.72793,1.09959z" fill="#d69a51"/><path d="M274.33496,189.11168c-1.72793,0.15708 -1.41376,-2.82752 2.19919,-2.82752c3.61295,0 0.47125,2.67044 -2.19919,2.82752z" fill="#d69a51"/><path d="M271.66452,187.54083c-1.88502,0.94251 -2.35627,0.62834 -1.88502,-0.15708c0.47125,-0.78542 2.82752,-0.31417 1.88502,0.15708z" fill="#d69a51"/><path d="M201.1335,187.855c-2.82752,0.15708 -5.49796,-2.0421 -2.98461,-2.19919c2.51335,-0.15708 4.86962,2.0421 2.98461,2.19919z" fill="#d69a51"/><path d="M204.11811,187.855c-1.41376,-0.31417 -1.88502,-2.19919 -0.62834,-2.19919c1.25668,0 2.19919,2.51335 0.62834,2.19919z" fill="#d69a51"/><path d="M229.87999,189.26877c-1.41376,0.47125 -2.0421,-1.41376 -0.47125,-1.41376c1.57085,0 1.41376,1.09959 0.47125,1.41376z" fill="#d69a51"/><path d="M290.51468,184.55622c-1.88502,0 -0.94251,-2.0421 0.78542,-2.0421c1.72793,0 1.09959,2.0421 -0.78542,2.0421z" fill="#d69a51"/></g><path d="M253.75686,177.80158c0,0 0.47125,-0.94251 1.09959,-2.35627c0.31417,-0.62834 0.78542,-1.57085 1.41376,-2.35627c0.47125,-0.78542 1.09959,-1.72793 1.72793,-2.67044c1.25668,-1.72793 2.67044,-3.29878 3.92712,-4.39837c1.25668,-1.09959 2.19919,-1.72793 2.19919,-1.72793c0,0 -0.15708,0.15708 -0.47125,0.62834c-0.31417,0.31417 -0.78542,0.94251 -1.25668,1.41376c-0.47125,0.62834 -1.09959,1.41376 -1.72793,2.19919c-0.62834,0.78542 -1.25668,1.57085 -1.88502,2.51335c-1.25668,1.72793 -2.51335,3.45586 -3.45586,4.71254c-0.94251,1.25668 -1.57085,2.0421 -1.57085,2.0421z" fill="#d69a51"/><g fill="#d69a51"><path d="M234.27836,177.01616c0,0 0.47125,-0.94251 1.09959,-2.35627c0.78542,-1.41376 1.88502,-3.29878 3.14169,-5.02671c1.25668,-1.72793 2.67044,-3.45586 3.77003,-4.55546c1.25668,-0.94251 2.19919,-1.57085 2.19919,-1.57085c0,0 -0.15708,0.15708 -0.47125,0.62834c-0.31417,0.31417 -0.78542,0.78542 -1.25668,1.41376c-0.94251,1.25668 -2.19919,2.98461 -3.45586,4.71254c-1.25668,1.72793 -2.51335,3.45586 -3.45586,4.71254c-0.94251,1.25668 -1.57085,2.0421 -1.57085,2.0421z"/><path d="M213.54319,177.01616c0,0 0.31417,-0.94251 1.09959,-2.19919c0.62834,-1.25668 1.72793,-2.98461 2.82752,-4.71254c1.09959,-1.57085 2.35627,-3.14169 3.45586,-4.24129c1.09959,-1.09959 1.88502,-1.57085 1.88502,-1.57085c0,0 -0.15708,0.15708 -0.47125,0.47125c-0.31417,0.31417 -0.62834,0.78542 -1.09959,1.41376c-0.78542,1.25668 -2.0421,2.82752 -3.14169,4.39837c-1.09959,1.57085 -2.19919,3.14169 -3.14169,4.39837c-0.78542,1.25668 -1.41376,2.0421 -1.41376,2.0421z"/></g></g></g></svg>