<svg version="1.1" xmlns="http://www.w3.org/2000/svg" xmlns:xlink="http://www.w3.org/1999/xlink" width="91.001" height="54.672" viewBox="0,0,91.001,54.672"><defs><linearGradient x1="195.1699" y1="176.1562" x2="286.1699" y2="176.1562" gradientUnits="userSpaceOnUse" id="color-1"><stop offset="0" stop-color="#6683e3"/><stop offset="1" stop-color="#1c3ebd"/></linearGradient></defs><g transform="translate(-195.169,-148.82)"><g data-paper-data="{&quot;isPaintingLayer&quot;:true}" fill-rule="nonzero" stroke-linejoin="miter" stroke-miterlimit="10" stroke-dasharray="" stroke-dashoffset="0" style="mix-blend-mode: normal"><path d="M286.17,194.887c0,4.752 -3.854,8.605 -8.605,8.605h-73.792c-4.752,0 -8.604,-3.854 -8.604,-8.605v-37.463c0,-4.752 3.852,-8.604 8.604,-8.604h73.791c4.754,0 8.605,3.852 8.605,8.604v37.463z" fill="url(#color-1)" stroke="none" stroke-width="1" stroke-linecap="butt"/><path d="M282.755,157.424v37.462c0,2.862 -2.327,5.19 -5.191,5.19h-73.791c-2.861,0 -5.19,-2.328 -5.19,-5.19v-37.463c0,-2.862 2.329,-5.19 5.19,-5.19h73.791c2.864,0 5.191,2.329 5.191,5.191z" fill="#2673e0" stroke="none" stroke-width="1" stroke-linecap="butt"/><text transform="translate(210.66418,171.14285) scale(0.5,0.5)" font-size="40" xml:space="preserve" fill="#ffffff" fill-rule="nonzero" stroke="none" stroke-width="1" stroke-linecap="butt" stroke-linejoin="miter" stroke-miterlimit="10" stroke-dasharray="" stroke-dashoffset="0" font-family="Sans Serif" font-weight="normal" text-anchor="start" style="mix-blend-mode: normal"><tspan x="0" dy="0">Drinks</tspan></text><path d="M246.95237,194.47553c0,1.2784 -2.87216,2.31474 -6.41514,2.31474c-3.54299,0 -6.41514,-1.03635 -6.41514,-2.31474c0,-1.2784 2.87216,-2.31474 6.41514,-2.31474c3.54299,0 6.41514,1.03635 6.41514,2.31474z" fill="#e6e6e6" stroke="#cecece" stroke-width="0.5" stroke-linecap="butt"/><path d="M246.7938,194.97832c0,1.27839 -2.47534,1.65339 -6.01833,1.65339c-3.54298,0 -6.81196,-0.50726 -6.81196,-1.78566c0,-0.86027 -1.74162,-14.0444 0.1888,-14.44342c0.93826,-0.19394 5.06754,1.81153 6.22635,1.81153c1.37879,0 4.23116,-2.44488 6.08521,-1.49316c2.80137,1.438 0.32993,13.47642 0.32993,14.25731z" fill="#e6e6e6" stroke="#cecece" stroke-width="0.5" stroke-linecap="butt"/><path d="M233.06392,178.00779l4.1004,0.13227l2.51315,3.43905" fill="none" stroke="#e70000" stroke-width="1.5" stroke-linecap="round"/></g></g></svg>