<svg version="1.1" xmlns="http://www.w3.org/2000/svg" xmlns:xlink="http://www.w3.org/1999/xlink" width="87" height="47.83333" viewBox="0,0,87,47.83333"><defs><radialGradient cx="283.33333" cy="172.50001" r="7.83333" gradientUnits="userSpaceOnUse" id="color-1"><stop offset="0" stop-color="#9e0000"/><stop offset="1" stop-color="#b60000"/></radialGradient><radialGradient cx="240" cy="180.00001" r="43" gradientUnits="userSpaceOnUse" id="color-2"><stop offset="0" stop-color="#b30000"/><stop offset="1" stop-color="#b40000"/></radialGradient><radialGradient cx="198" cy="171.83333" r="7.83334" gradientUnits="userSpaceOnUse" id="color-3"><stop offset="0" stop-color="#9e0000"/><stop offset="1" stop-color="#b60000"/></radialGradient><radialGradient cx="240.16667" cy="172.83333" r="42.83333" gradientUnits="userSpaceOnUse" id="color-4"><stop offset="0" stop-color="#b30000"/><stop offset="1" stop-color="#b30000"/></radialGradient><radialGradient cx="240" cy="164.66668" r="43" gradientUnits="userSpaceOnUse" id="color-5"><stop offset="0" stop-color="#de0000"/><stop offset="1" stop-color="#aa0000"/></radialGradient></defs><g transform="translate(-196.5,-148.16667)"><g data-paper-data="{&quot;isPaintingLayer&quot;:true}" fill-rule="nonzero" stroke-linejoin="miter" stroke-miterlimit="10" stroke-dasharray="" stroke-dashoffset="0" style="mix-blend-mode: normal"><path d="M282.66667,165.5v15.66667" fill="#9e0000" stroke="url(#color-1)" stroke-width="0.5" stroke-linecap="round"/><path d="M240,196.00001c-23.74824,0 -43,-7.16344 -43,-16c0,-8.83656 19.25176,-16 43,-16c23.74824,0 43,7.16344 43,16c0,8.83656 -19.25176,16 -43,16z" fill="url(#color-2)" stroke="none" stroke-width="0" stroke-linecap="butt"/><path d="M197.25,165.16668l-0.16666,15.66667" fill="#8c0000" stroke="url(#color-3)" stroke-width="0.5" stroke-linecap="round"/><path d="M197.33333,182.16668v-18.66667h85.66667v18.66667z" fill="url(#color-4)" stroke="none" stroke-width="0" stroke-linecap="butt"/><path d="M240,180.66668c-23.74824,0 -43,-7.16344 -43,-16c0,-8.83656 19.25176,-16 43,-16c23.74824,0 43,7.16344 43,16c0,8.83656 -19.25176,16 -43,16z" fill="url(#color-5)" stroke="#8e0000" stroke-width="1" stroke-linecap="butt"/><text transform="translate(207.54283,166.89095) scale(0.26941,0.26941)" font-size="40" xml:space="preserve" fill="#000000" fill-rule="nonzero" stroke="none" stroke-width="1" stroke-linecap="butt" stroke-linejoin="miter" stroke-miterlimit="10" stroke-dasharray="" stroke-dashoffset="0" font-family="Sans Serif" font-weight="normal" text-anchor="start" style="mix-blend-mode: normal"><tspan x="0" dy="0">TAKE ORDER</tspan></text></g></g></svg>