<svg version="1.1" xmlns="http://www.w3.org/2000/svg" xmlns:xlink="http://www.w3.org/1999/xlink" width="91.001" height="54.672" viewBox="0,0,91.001,54.672"><defs><linearGradient x1="195.1699" y1="176.1562" x2="286.1699" y2="176.1562" gradientUnits="userSpaceOnUse" id="color-1"><stop offset="0" stop-color="#e37724"/><stop offset="1" stop-color="#b45e1d"/></linearGradient></defs><g transform="translate(-195.169,-148.82)"><g data-paper-data="{&quot;isPaintingLayer&quot;:true}" fill-rule="nonzero" stroke-linecap="butt" stroke-linejoin="miter" stroke-miterlimit="10" stroke-dasharray="" stroke-dashoffset="0" style="mix-blend-mode: normal"><path d="M286.17,194.887c0,4.752 -3.854,8.605 -8.605,8.605h-73.792c-4.752,0 -8.604,-3.854 -8.604,-8.605v-37.463c0,-4.752 3.852,-8.604 8.604,-8.604h73.791c4.754,0 8.605,3.852 8.605,8.604v37.463z" fill="url(#color-1)" stroke="none" stroke-width="1"/><path d="M282.755,157.424v37.462c0,2.862 -2.327,5.19 -5.191,5.19h-73.791c-2.861,0 -5.19,-2.328 -5.19,-5.19v-37.463c0,-2.862 2.329,-5.19 5.19,-5.19h73.791c2.864,0 5.191,2.329 5.191,5.191z" fill="#c66820" stroke="none" stroke-width="1"/><text transform="translate(210.26737,168.95428) scale(0.43921,0.43921)" font-size="40" xml:space="preserve" fill="#ffffff" fill-rule="nonzero" stroke="none" stroke-width="1" stroke-linecap="butt" stroke-linejoin="miter" stroke-miterlimit="10" stroke-dasharray="" stroke-dashoffset="0" font-family="Sans Serif" font-weight="normal" text-anchor="start" style="mix-blend-mode: normal"><tspan x="0" dy="0">Burger</tspan></text><path d="M249.86233,194.34326c0,1.2784 -4.08616,2.31474 -9.1267,2.31474c-5.04054,0 -9.1267,-1.03635 -9.1267,-2.31474c0,-1.2784 4.08616,-2.31474 9.1267,-2.31474c5.04054,0 9.1267,1.03635 9.1267,2.31474z" fill="#e37724" stroke="none" stroke-width="0"/><path d="M251.31731,193.15282c0,0.98619 -4.70797,1.78566 -10.51554,1.78566c-5.80757,0 -10.51554,-0.79947 -10.51554,-1.78566c0,-0.98619 4.70797,-1.78566 10.51554,-1.78566c5.80757,0 10.51554,0.79947 10.51554,1.78566z" fill="#834515" stroke="none" stroke-width="0"/><path d="M232.87846,193.68668c-0.6,-0.45 -0.15,-1.05 -0.15,-1.05l0.02697,-0.03265c-0.60498,0.01133 -1.21057,0.06109 -1.81682,0.16428c0,0 -0.7398,0.1233 -0.86309,-0.6165c-0.1233,-0.7398 0.6165,-0.86309 0.6165,-0.86309c1.15871,-0.18961 2.3191,-0.19179 3.47859,-0.10687c0.60233,-0.62006 1.19325,-1.32677 1.95184,-1.58058c1.06486,-0.35628 1.84073,0.18887 2.66318,0.6513c0.79815,-0.07454 1.67529,0.32038 2.68496,0.75369c0.19733,0.01726 0.39635,0.02965 0.59656,0.03831c0.58108,-0.01148 1.15731,-0.01227 1.72869,0.0098c2.08564,-0.03374 4.14941,-0.11725 5.65688,0.98695l0.2786,-0.2786l0.66135,0.66135l-0.25305,0.25305c0.14683,0.17016 0.28562,0.35768 0.41563,0.56429l-0.69291,0.19818v0.26481h-0.9259c-1.5457,-0.0023 -2.9438,-0.15983 -4.2992,-0.45573c-0.94105,0.04323 -1.87332,0.19661 -2.97571,0.19119c-2.30561,-0.01135 -4.61592,-0.54651 -6.93422,-0.75577c-0.19182,0.18914 -0.38577,0.36162 -0.58601,0.49753l-0.21284,0.35505c0,0 -0.45,0.6 -1.05,0.15zM236.03962,191.37875c0.21458,0.02772 0.42908,0.05658 0.64349,0.08594c0.01004,-0.01425 0.02057,-0.02813 0.03156,-0.04163l0.34806,-0.43507c-0.16368,-0.03129 -0.3146,-0.0271 -0.44378,0.02873c-0.20131,0.087 -0.39335,0.21275 -0.57932,0.36204z" fill="#3fee26" stroke="none" stroke-width="0.5"/><path d="M236.6447,189.97358c0.33541,0.67082 -0.33541,1.00623 -0.33541,1.00623l-0.36278,0.17296c-0.55496,0.1834 -1.12486,0.32747 -1.70112,0.4251c0,0 -0.7398,0.1233 -0.86309,-0.6165c-0.1233,-0.7398 0.6165,-0.86309 0.6165,-0.86309c0.49962,-0.08169 0.99358,-0.20702 1.47338,-0.36853l0.1663,-0.09158c0,0 0.67082,-0.33541 1.00623,0.33541z" fill="#ed2626" stroke="none" stroke-width="0.5"/><path d="M241.75018,190.97035c0,0.75 -0.75,0.75 -0.75,0.75l-0.52011,-0.0102c-0.59959,-0.10854 -1.19058,-0.31984 -1.71755,-0.62576c0,0 -0.64312,-0.38587 -0.25725,-1.02899c0.38587,-0.64312 1.02899,-0.25725 1.02899,-0.25725c0.35793,0.22504 0.77407,0.37117 1.19241,0.43241l0.27351,-0.0102c0,0 0.75,0 0.75,0.75z" fill="#ed2626" stroke="none" stroke-width="0.5"/><path d="M245.84226,191.08172c-0.11137,0.74169 -0.85306,0.63031 -0.85306,0.63031l-0.82535,-0.12604c-0.48139,0.00069 -0.96277,0.00139 -1.44416,0.00208c0,0 -0.75,0 -0.75,-0.75c0,-0.75 0.75,-0.75 0.75,-0.75c0.51861,0.00069 1.03723,0.00139 1.55584,0.00208l0.93641,0.1385c0,0 0.74169,0.11137 0.63031,0.85306z" fill="#ed2626" stroke="none" stroke-width="0.5"/><path d="M250.48006,190.70581c0,0.75 -0.75,0.75 -0.75,0.75l-0.78465,-0.0102c-3.35297,-0.56488 -6.55082,-0.35496 -9.96665,-0.51981c-2.5696,-0.12401 -5.20356,-0.57932 -7.7756,-0.14154c0,0 -0.7398,0.1233 -0.86309,-0.6165c-0.1233,-0.7398 0.6165,-0.86309 0.6165,-0.86309c2.69026,-0.44023 5.4106,-0.00307 8.09692,0.123c3.47648,0.16315 6.72005,-0.02445 10.13853,0.53836l0.53806,-0.0102c0,0 0.75,0 0.75,0.75z" fill="#feff29" stroke="none" stroke-width="0.5"/><path d="M249.43922,188.29863c0,1.68018 -4.08616,2.11633 -9.12669,2.11633c-5.04054,0 -9.1267,-0.56843 -9.1267,-2.2486c0,-1.68018 4.08616,-3.83586 9.1267,-3.83586c5.04054,0 9.12669,2.28796 9.12669,3.96813z" fill="#e37724" stroke="none" stroke-width="0"/><text transform="translate(199.97889,177.9347) rotate(-8.61827) scale(0.33056,0.33056)" font-size="40" xml:space="preserve" fill="#949494" fill-rule="nonzero" stroke="#001717" stroke-width="1" stroke-linecap="butt" stroke-linejoin="miter" stroke-miterlimit="10" stroke-dasharray="" stroke-dashoffset="0" font-family="Sans Serif" font-weight="normal" text-anchor="start" style="mix-blend-mode: normal"><tspan x="0" dy="0">In</tspan><tspan x="0" dy="48px">development</tspan></text></g></g></svg>