<svg version="1.1" xmlns="http://www.w3.org/2000/svg" xmlns:xlink="http://www.w3.org/1999/xlink" width="141" height="171.72516" viewBox="0,0,141,171.72516"><defs><linearGradient x1="169.5" y1="192.14425" x2="204.75" y2="192.14425" gradientUnits="userSpaceOnUse" id="color-1"><stop offset="0" stop-color="#cacaca"/><stop offset="1" stop-color="#424242"/></linearGradient><linearGradient x1="275.25" y1="192.82214" x2="310.5" y2="192.82214" gradientUnits="userSpaceOnUse" id="color-2"><stop offset="0" stop-color="#424242"/><stop offset="1" stop-color="#c8c8c8"/></linearGradient><linearGradient x1="240" y1="117.57694" x2="240" y2="165.02887" gradientUnits="userSpaceOnUse" id="color-3"><stop offset="0" stop-color="#7d7d7d"/><stop offset="1" stop-color="#cacaca"/></linearGradient></defs><g transform="translate(-169.5,-117.57694)"><g data-paper-data="{&quot;isPaintingLayer&quot;:true}" fill-rule="nonzero" stroke="none" stroke-linecap="butt" stroke-linejoin="miter" stroke-miterlimit="10" stroke-dasharray="" stroke-dashoffset="0" style="mix-blend-mode: normal"><path d="M177.63462,261.28846l-8.13462,-96.25962l35.25,-42.02885l2.71154,81.34615z" fill="url(#color-1)" stroke-width="0"/><path d="M275.25,205.70194l2.71154,-84.05769l32.53846,44.74038l-12.20192,97.61538z" data-paper-data="{&quot;index&quot;:null}" fill="url(#color-2)" stroke-width="0"/><path d="M169.5,165.02887l38.33009,-46.09615l71.18446,-1.35577l31.48544,47.45192z" fill="url(#color-3)" stroke-width="0"/><path d="M179.5,263.75001l-7.5,-98h134.5l-9.94306,98zM198.21695,202.25232c-0.07213,-0.00154 -0.14445,-0.00231 -0.21695,-0.00231c-5.00788,0 -9.15598,3.68115 -9.886,8.48515c-0.07507,0.494 -0.114,0.99988 -0.114,1.51485c-0.52926,3.62049 0.17916,7.87199 0.97228,11.38911c1.15031,5.10112 -0.53068,9.93976 0.02772,15.11089c0.72763,6.73829 8.07177,12.62219 15,11.5c6.36526,-1.03101 12.48978,-2.79103 19.0098,-2.5c5.48163,0.24468 10.37954,2.56231 16.43118,2.56231c3.63716,0 7.08354,-2.48988 10.68179,-2.56231c9.46633,-0.19055 19.90857,2.98433 28.37722,-1.25c5.45581,-2.7279 8.60749,-8.2708 10.05394,-14.05662c0.32939,-1.31756 -0.4934,-3.30809 0.33503,-4.74924c3.87515,-6.74133 8.23302,-11.60508 7.11103,-20.44413c-0.55893,-4.40329 -1.79388,-7.14694 -6,-9.25c-4.02516,-2.01258 -9.74247,-1.0734 -13.77864,-1.25c-1.61983,-0.07087 -3.16123,-1.06231 -4.78038,-1.06231c-3.88804,0 -7.60357,1.04432 -11.43209,1.06231c-7.33622,0.03447 -14.6732,-0.09439 -22.00889,0c-8.16156,0.10502 -17.1033,-0.26586 -25.24721,1.38476c-3.0034,0.60873 -6.77859,0.91156 -9.72921,1.73312c-1.82719,0.50876 -3.20607,2.321 -4.80663,2.38442z" fill="#828282" stroke-width="0"/><path d="M272.61803,176.51394c2.23607,1.11803 1.11803,3.3541 1.11803,3.3541l-1.13561,1.80252c-2.39229,1.97751 -6.46925,5.43955 -9.67378,6.04277c-0.59077,0.11121 -4.67895,-0.7712 -5.67302,-0.97549c-8.38105,0.03703 -16.71011,0.1694 -25.00731,1c-3.87303,0.38772 -7.00639,1.70095 -10.95871,0.40852c-4.13433,-1.35195 -5.41278,-4.87947 -8.78763,-7.39636c0,0 -2,-1.5 -0.5,-3.5c1.5,-2 3.5,-0.5 3.5,-0.5c1.76313,1.32883 3.0631,2.14899 4.47051,3.96147c0.49585,0.63856 0.56825,1.57422 1.15041,2.13522c2.49531,2.40459 7.91834,0.18668 10.63273,-0.08452c8.61683,-0.86093 17.28696,-1.03263 25.99269,-1c1.45467,0.28436 2.88055,1.34823 4.32698,1.02451c2.32359,-0.52004 5.5865,-3.49383 7.32622,-4.95723l-0.13561,-0.19748c0,0 1.11803,-2.23607 3.3541,-1.11803z" fill="#575757" stroke-width="0.5"/><text transform="translate(200.50431,283.05211) scale(0.5,0.5)" font-size="40" xml:space="preserve" fill="#c00000" fill-rule="nonzero" stroke="none" stroke-width="1" stroke-linecap="butt" stroke-linejoin="miter" stroke-miterlimit="10" stroke-dasharray="" stroke-dashoffset="0" font-family="Sans Serif" font-weight="normal" text-anchor="start" style="mix-blend-mode: normal"><tspan x="0" dy="0">cooking</tspan></text></g></g></svg>