<svg version="1.1" xmlns="http://www.w3.org/2000/svg" xmlns:xlink="http://www.w3.org/1999/xlink" width="25.30179" height="27.72634" viewBox="0,0,25.30179,27.72634"><g transform="translate(-227.3491,-166.13683)"><g data-paper-data="{&quot;isPaintingLayer&quot;:true}" fill-rule="nonzero" stroke="none" stroke-linecap="butt" stroke-linejoin="miter" stroke-miterlimit="10" stroke-dasharray="" stroke-dashoffset="0" style="mix-blend-mode: normal"><path d="M227.34911,180.87669c0,-7.17223 5.65274,-12.98648 12.62574,-12.98648c6.97301,0 12.62574,5.81425 12.62574,12.98648c0,7.17224 -5.65273,12.98648 -12.62574,12.98648c-6.97301,0 -12.62574,-5.81424 -12.62574,-12.98648zM240.2461,186.2671c2.8995,0 5.25,-2.3505 5.25,-5.25c0,-2.8995 -2.3505,-5.25 -5.25,-5.25c-2.8995,0 -5.25,2.3505 -5.25,5.25c0,2.8995 2.3505,5.25 5.25,5.25z" fill="#cfc29b" stroke-width="0"/><path d="M227.3994,179.12331c0,-7.17224 5.65274,-12.98648 12.62575,-12.98648c6.97301,0 12.62575,5.81425 12.62575,12.98648c0,7.17224 -5.65274,12.98648 -12.62575,12.98648c-6.97301,0 -12.62575,-5.81425 -12.62575,-12.98648zM240.29639,184.51372c2.89949,0 5.25,-2.35051 5.25,-5.25c0,-2.89949 -2.35051,-5.25 -5.25,-5.25c-2.89949,0 -5.25,2.35051 -5.25,5.25c0,2.89949 2.35051,5.25 5.25,5.25z" fill="#f9e9ba" stroke-width="0"/><path d="M232.55315,175.29563c0,-0.54643 0.35061,-1.01096 0.83914,-1.18091c-0.2913,-0.22885 -0.47841,-0.58433 -0.47841,-0.9835c0,-0.69036 0.55964,-1.25 1.25,-1.25c0.16929,0 0.33073,0.03366 0.47798,0.09464c0.22926,-0.27809 0.57641,-0.45538 0.96497,-0.45538c0.69036,0 1.25,0.55964 1.25,1.25c0,0.69036 -0.55964,1.25 -1.25,1.25c-0.16929,0 -0.33073,-0.03366 -0.47798,-0.09464c-0.14434,0.17508 -0.3354,0.3102 -0.55411,0.38629c0.2913,0.22885 0.47841,0.58433 0.47841,0.9835c0,0.69036 -0.55964,1.25 -1.25,1.25c-0.69036,0 -1.25,-0.55964 -1.25,-1.25z" fill="#e7d9ad" stroke-width="0.5"/><path d="M239.76787,171.32754c0,-0.69036 0.55964,-1.25 1.25,-1.25c0.07178,0 0.14214,0.00605 0.21061,0.01767c-0.01162,-0.06847 -0.01767,-0.13883 -0.01767,-0.21061c0,-0.69036 0.55964,-1.25 1.25,-1.25c0.69036,0 1.25,0.55964 1.25,1.25c0,0.69036 -0.55964,1.25 -1.25,1.25c-0.07178,0 -0.14214,-0.00605 -0.21061,-0.01767c0.01162,0.06847 0.01767,0.13883 0.01767,0.21061c0,0.69036 -0.55964,1.25 -1.25,1.25c-0.69036,0 -1.25,-0.55964 -1.25,-1.25z" fill="#e7d9ad" stroke-width="0.5"/><path d="M249.14699,176.37784c0,-0.69036 0.55964,-1.25 1.25,-1.25c0.69036,0 1.25,0.55964 1.25,1.25c0,0.69036 -0.55964,1.25 -1.25,1.25c-0.69036,0 -1.25,-0.55964 -1.25,-1.25z" fill="#e7d9ad" stroke-width="0.5"/><path d="M247.34331,184.67476c0,-0.69036 0.55964,-1.25 1.25,-1.25c0.69036,0 1.25,0.55964 1.25,1.25c0,0.69036 -0.55964,1.25 -1.25,1.25c-0.69036,0 -1.25,-0.55964 -1.25,-1.25z" fill="#e7d9ad" stroke-width="0.5"/><path d="M243.01449,186.47844c0,-0.69036 0.55964,-1.25 1.25,-1.25c0.69036,0 1.25,0.55964 1.25,1.25c0,0.69036 -0.55964,1.25 -1.25,1.25c-0.69036,0 -1.25,-0.55964 -1.25,-1.25z" fill="#e7d9ad" stroke-width="0.5"/><path d="M240.1286,190.08579c0,-0.69036 0.55964,-1.25 1.25,-1.25c0.69036,0 1.25,0.55964 1.25,1.25c0,0.69036 -0.55964,1.25 -1.25,1.25c-0.69036,0 -1.25,-0.55964 -1.25,-1.25z" fill="#e7d9ad" stroke-width="0.5"/><path d="M234.71757,185.75696c0,-0.69036 0.55964,-1.25 1.25,-1.25c0.69036,0 1.25,0.55964 1.25,1.25c0,0.69036 -0.55964,1.25 -1.25,1.25c-0.69036,0 -1.25,-0.55964 -1.25,-1.25z" fill="#e7d9ad" stroke-width="0.5"/><path d="M235.0783,189.00358c0,-0.69036 0.55964,-1.25 1.25,-1.25c0.69036,0 1.25,0.55964 1.25,1.25c0,0.69036 -0.55964,1.25 -1.25,1.25c-0.69036,0 -1.25,-0.55964 -1.25,-1.25z" fill="#e7d9ad" stroke-width="0.5"/><path d="M231.11021,177.82078c0,-0.69036 0.55964,-1.25 1.25,-1.25c0.69036,0 1.25,0.55964 1.25,1.25c0,0.69036 -0.55964,1.25 -1.25,1.25c-0.69036,0 -1.25,-0.55964 -1.25,-1.25z" fill="#e7d9ad" stroke-width="0.5"/><path d="M230.028,180.70667c0,-0.69036 0.55964,-1.25 1.25,-1.25c0.69036,0 1.25,0.55964 1.25,1.25c0,0.69036 -0.55964,1.25 -1.25,1.25c-0.69036,0 -1.25,-0.55964 -1.25,-1.25z" fill="#e7d9ad" stroke-width="0.5"/><path d="M231.47095,183.95329c0,-0.12542 0.01847,-0.24652 0.05284,-0.36074c-0.03437,-0.11422 -0.05284,-0.23532 -0.05284,-0.36074c0,-0.69036 0.55964,-1.25 1.25,-1.25c0.69036,0 1.25,0.55964 1.25,1.25c0,0.12542 -0.01847,0.24652 -0.05284,0.36074c0.03437,0.11422 0.05284,0.23532 0.05284,0.36074c0,0.69036 -0.55964,1.25 -1.25,1.25c-0.69036,0 -1.25,-0.55964 -1.25,-1.25z" fill="#e7d9ad" stroke-width="0.5"/><path d="M231.83168,188.28211c0,-0.69036 0.55964,-1.25 1.25,-1.25c0.69036,0 1.25,0.55964 1.25,1.25c0,0.69036 -0.55964,1.25 -1.25,1.25c-0.69036,0 -1.25,-0.55964 -1.25,-1.25z" fill="#e7d9ad" stroke-width="0.5"/><path d="M246.62184,180.34593c0,-0.69036 0.55964,-1.25 1.25,-1.25c0.69036,0 1.25,0.55964 1.25,1.25c0,0.69036 -0.55964,1.25 -1.25,1.25c-0.69036,0 -1.25,-0.55964 -1.25,-1.25z" fill="#e7d9ad" stroke-width="0.5"/><path d="M245.53964,174.21342c0,-0.69036 0.55964,-1.25 1.25,-1.25c0.69036,0 1.25,0.55964 1.25,1.25c0,0.26873 -0.0848,0.51765 -0.2291,0.72147c0.1443,0.20382 0.2291,0.45274 0.2291,0.72147c0,0.69036 -0.55964,1.25 -1.25,1.25c-0.69036,0 -1.25,-0.55964 -1.25,-1.25c0,-0.26873 0.0848,-0.51765 0.2291,-0.72147c-0.1443,-0.20382 -0.2291,-0.45274 -0.2291,-0.72147z" fill="#e7d9ad" stroke-width="0.5"/><path d="M243.73596,170.9668c0,-0.69036 0.55964,-1.25 1.25,-1.25c0.69036,0 1.25,0.55964 1.25,1.25c0,0.69036 -0.55964,1.25 -1.25,1.25c-0.69036,0 -1.25,-0.55964 -1.25,-1.25z" fill="#e7d9ad" stroke-width="0.5"/><path d="M235.43904,168.08092c0,-0.69036 0.55964,-1.25 1.25,-1.25c0.69036,0 1.25,0.55964 1.25,1.25c0,0.08912 -0.00933,0.17607 -0.02706,0.25991c0.22913,-0.26213 0.56597,-0.4277 0.94147,-0.4277c0.69036,0 1.25,0.55964 1.25,1.25c0,0.69036 -0.55964,1.25 -1.25,1.25c-0.69036,0 -1.25,-0.55964 -1.25,-1.25c0,-0.08912 0.00933,-0.17607 0.02706,-0.25991c-0.22913,0.26213 -0.56597,0.4277 -0.94147,0.4277c-0.69036,0 -1.25,-0.55964 -1.25,-1.25z" fill="#e7d9ad" stroke-width="0.5"/></g></g></svg>