<svg version="1.1" xmlns="http://www.w3.org/2000/svg" xmlns:xlink="http://www.w3.org/1999/xlink" width="57.73132" height="25.05276" viewBox="0,0,57.73132,25.05276"><g transform="translate(-211.13434,-167.47362)"><g data-paper-data="{&quot;isPaintingLayer&quot;:true}" fill-rule="nonzero" stroke-linecap="butt" stroke-linejoin="miter" stroke-miterlimit="10" stroke-dasharray="" stroke-dashoffset="0" style="mix-blend-mode: normal"><path d="M268.36566,180c0,6.64198 -12.69974,12.02638 -28.36566,12.02638c-15.66592,0 -28.36566,-5.38439 -28.36566,-12.02638c0,-6.64198 12.69974,-12.02638 28.36566,-12.02638c15.66592,0 28.36566,5.38439 28.36566,12.02638z" fill="#ece4cb" stroke="#cac3ae" stroke-width="1"/><path d="M265.29686,179.99999c0,5.9234 -11.32579,10.72528 -25.29686,10.72528c-13.97107,0 -25.29686,-4.80187 -25.29686,-10.72528c0,-5.9234 11.32579,-10.72528 25.29686,-10.72528c13.97107,0 25.29686,4.80187 25.29686,10.72528z" fill="#d23232" stroke="none" stroke-width="0"/><path d="M263.72099,179.8341c0,5.46279 -10.62025,9.89127 -23.72099,9.89127c-13.10074,0 -23.72099,-4.42847 -23.72099,-9.89127c0,-5.46279 10.62025,-9.89127 23.72099,-9.89127c13.10074,0 23.72099,4.42847 23.72099,9.89127z" fill="#f2f483" stroke="none" stroke-width="0"/><g fill="#ad4545" stroke="none"><path d="M231.57674,175.90709c0,1.09936 -1.44822,1.99057 -3.23468,1.99057c-1.78646,0 -3.23468,-0.89121 -3.23468,-1.99057c0,-1.09936 1.44822,-1.99057 3.23468,-1.99057c1.78646,0 3.23468,0.89121 3.23468,1.99057z" stroke-width="NaN"/><path d="M238.40626,185.88271c0,1.09936 -1.44822,1.99057 -3.23468,1.99057c-1.78646,0 -3.23468,-0.89121 -3.23468,-1.99057c0,-1.09936 1.44822,-1.99057 3.23468,-1.99057c1.78646,0 3.23468,0.89121 3.23468,1.99057z" stroke-width="NaN"/><path d="M227.33616,181.78933c0,1.09936 -1.44822,1.99057 -3.23468,1.99057c-1.78646,0 -3.23468,-0.89121 -3.23468,-1.99057c0,-1.09936 1.44822,-1.99057 3.23468,-1.99057c1.78646,0 3.23468,0.89121 3.23468,1.99057z" stroke-width="NaN"/><path d="M251.18935,174.90021c0,1.09936 -1.44822,1.99057 -3.23468,1.99057c-1.78646,0 -3.23468,-0.89121 -3.23468,-1.99057c0,-1.09936 1.44822,-1.99057 3.23468,-1.99057c1.78646,0 3.23468,0.89121 3.23468,1.99057z" stroke-width="NaN"/><path d="M240.08133,174.11729c0,1.09936 -1.44822,1.99057 -3.23468,1.99057c-1.78646,0 -3.23468,-0.89121 -3.23468,-1.99057c0,-1.09936 1.44822,-1.99057 3.23468,-1.99057c1.78646,0 3.23468,0.89121 3.23468,1.99057z" stroke-width="NaN"/><path d="M239.2089,180.16791c-0.04982,1.19308 -1.53717,2.09984 -3.32208,2.0253c-1.7849,-0.07454 -3.19147,-1.10215 -3.14165,-2.29522c0.04982,-1.19308 1.53717,-2.09984 3.32208,-2.0253c1.7849,0.07454 3.19147,1.10215 3.14165,2.29522z" stroke-width="NaN"/><path d="M249.23428,185.64335c0,1.09936 -1.44822,1.99057 -3.23468,1.99057c-1.78646,0 -3.23468,-0.89121 -3.23468,-1.99057c0,-1.09936 1.44822,-1.99057 3.23468,-1.99057c1.78646,0 3.23468,0.89121 3.23468,1.99057z" stroke-width="NaN"/><path d="M259.1332,180.61176c0,1.19412 -1.44822,2.16214 -3.23468,2.16214c-1.78646,0 -3.23468,-0.96803 -3.23468,-2.16214c0,-1.19412 1.44822,-2.16215 3.23468,-2.16215c1.78646,0 3.23468,0.96803 3.23468,2.16215z" stroke-width="NaN"/><path d="M248.84328,180.2695c0,1.19412 -1.44822,2.16214 -3.23468,2.16214c-1.78646,0 -3.23468,-0.96803 -3.23468,-2.16214c0,-1.19412 1.44822,-2.16215 3.23468,-2.16215c1.78646,0 3.23468,0.96803 3.23468,2.16215z" stroke-width="NaN"/></g><g fill="#643528" stroke="none"><path d="M241.4375,180c0,0.49642 -0.27503,1.30639 -0.68728,1.54812c-0.21839,0.12805 -0.47529,-0.17312 -0.75022,-0.17312c-0.55623,0 -1.28867,-0.05218 -1.52769,-0.49429c-0.10213,-0.18891 0.09019,-0.65337 0.09019,-0.88071c0,-0.31948 0.61391,0.07399 0.805,-0.15946c0.26313,-0.32145 0.17259,-1.21554 0.6325,-1.21554c0.32797,0 0.25529,0.48006 0.49717,0.65691c0.34364,0.25125 0.94033,0.27241 0.94033,0.71809z" stroke-width="NaN"/><path d="M246.4375,185c0,0.49642 -0.27502,1.30639 -0.68728,1.54812c-0.21839,0.12805 -0.4753,-0.17312 -0.75022,-0.17312c-0.55623,0 -1.28867,-0.05218 -1.52768,-0.49428c-0.10213,-0.18891 0.09018,-0.65337 0.09018,-0.88072c0,-0.31948 0.61391,0.07398 0.805,-0.15947c0.26313,-0.32145 0.17259,-1.21553 0.6325,-1.21553c0.32797,0 0.25528,0.48006 0.49717,0.65691c0.34365,0.25125 0.94033,0.27241 0.94033,0.71809z" stroke-width="NaN"/><path d="M250.9375,180.0625c0,0.49642 -0.27502,1.30639 -0.68728,1.54812c-0.21839,0.12805 -0.4753,-0.17312 -0.75022,-0.17312c-0.55623,0 -1.28867,-0.05218 -1.52768,-0.49428c-0.10213,-0.18891 0.09018,-0.65337 0.09018,-0.88072c0,-0.31948 0.61391,0.07398 0.805,-0.15947c0.26313,-0.32145 0.17259,-1.21553 0.6325,-1.21553c0.32797,0 0.25528,0.48006 0.49717,0.65691c0.34365,0.25125 0.94033,0.27241 0.94033,0.71809z" stroke-width="NaN"/><path d="M231.77534,184.39189c0,0.49642 -0.27503,1.30639 -0.68728,1.54812c-0.21839,0.12805 -0.4753,-0.17312 -0.75022,-0.17312c-0.55623,0 -1.28867,-0.05218 -1.52768,-0.49428c-0.10213,-0.18891 0.09018,-0.65337 0.09018,-0.88072c0,-0.31948 0.61391,0.07398 0.805,-0.15947c0.26313,-0.32145 0.17259,-1.21553 0.6325,-1.21553c0.32797,0 0.25528,0.48006 0.49717,0.65691c0.34365,0.25125 0.94033,0.27241 0.94033,0.71809z" stroke-width="NaN"/><path d="M245.03876,172.71499c0,0.49642 -0.27503,1.30639 -0.68728,1.54812c-0.21839,0.12805 -0.47529,-0.17312 -0.75022,-0.17312c-0.55623,0 -1.28867,-0.05218 -1.52768,-0.49428c-0.10213,-0.18891 0.09018,-0.65337 0.09018,-0.88072c0,-0.31948 0.61391,0.07398 0.80501,-0.15947c0.26312,-0.32145 0.17259,-1.21553 0.63249,-1.21553c0.32797,0 0.25529,0.48006 0.49717,0.65691c0.34365,0.25125 0.94033,0.27241 0.94033,0.71809z" stroke-width="NaN"/><path d="M225.82939,180.2027c0,0.49642 -0.27503,1.30639 -0.68728,1.54812c-0.21839,0.12805 -0.47529,-0.17312 -0.75022,-0.17312c-0.55623,0 -1.28868,-0.05218 -1.52769,-0.49428c-0.10213,-0.18891 0.09019,-0.65337 0.09019,-0.88072c0,-0.31948 0.61391,0.07399 0.805,-0.15946c0.26313,-0.32145 0.17259,-1.21554 0.6325,-1.21554c0.32797,0 0.25528,0.48006 0.49717,0.65691c0.34365,0.25125 0.94033,0.27241 0.94033,0.71809z" stroke-width="NaN"/><path d="M234.95101,180.06757c0,0.49642 -0.27503,1.30639 -0.68728,1.54812c-0.21839,0.12805 -0.47529,-0.17312 -0.75022,-0.17312c-0.55623,0 -1.28868,-0.05218 -1.52769,-0.49428c-0.10213,-0.18891 0.09019,-0.65337 0.09019,-0.88072c0,-0.31948 0.61391,0.07399 0.805,-0.15946c0.26313,-0.32145 0.17259,-1.21554 0.6325,-1.21554c0.32797,0 0.25528,0.48006 0.49717,0.65691c0.34365,0.25125 0.94033,0.27241 0.94033,0.71809z" stroke-width="NaN"/><path d="M230.89696,174.86487c0,0.49642 -0.27503,1.30639 -0.68728,1.54812c-0.21839,0.12805 -0.47529,-0.17312 -0.75022,-0.17312c-0.55623,0 -1.28868,-0.05218 -1.52769,-0.49428c-0.10213,-0.18891 0.09019,-0.65337 0.09019,-0.88072c0,-0.31948 0.61391,0.07399 0.805,-0.15946c0.26313,-0.32145 0.17259,-1.21554 0.6325,-1.21554c0.32797,0 0.25528,0.48006 0.49717,0.65691c0.34365,0.25125 0.94033,0.27241 0.94033,0.71809z" stroke-width="NaN"/><path d="M238.26182,174.25676c0,0.49642 -0.27503,1.30639 -0.68728,1.54812c-0.21839,0.12805 -0.47529,-0.17312 -0.75022,-0.17312c-0.55623,0 -1.28868,-0.05219 -1.52769,-0.49429c-0.10213,-0.18891 0.09019,-0.65337 0.09019,-0.88071c0,-0.31948 0.61391,0.07398 0.805,-0.15947c0.26313,-0.32145 0.17259,-1.21553 0.6325,-1.21553c0.32797,0 0.25528,0.48005 0.49717,0.65691c0.34365,0.25125 0.94033,0.27241 0.94033,0.71809z" stroke-width="NaN"/><path d="M241.91047,184.72973c0,0.49642 -0.27503,1.30639 -0.68728,1.54812c-0.21839,0.12805 -0.47529,-0.17312 -0.75022,-0.17312c-0.55623,0 -1.28868,-0.05219 -1.52769,-0.49429c-0.10213,-0.18891 0.09019,-0.65337 0.09019,-0.88071c0,-0.31948 0.61391,0.07398 0.805,-0.15947c0.26313,-0.32145 0.17259,-1.21553 0.6325,-1.21553c0.32797,0 0.25528,0.48005 0.49717,0.65691c0.34365,0.25125 0.94033,0.27241 0.94033,0.71809z" stroke-width="NaN"/><path d="M236.6402,186.48649c0,0.49642 -0.27503,1.30639 -0.68728,1.54812c-0.21839,0.12805 -0.47529,-0.17312 -0.75022,-0.17312c-0.55623,0 -1.28868,-0.05219 -1.52769,-0.49429c-0.10213,-0.18891 0.09019,-0.65337 0.09019,-0.88071c0,-0.31948 0.61391,0.07398 0.805,-0.15947c0.26313,-0.32145 0.17259,-1.21553 0.6325,-1.21553c0.32797,0 0.25528,0.48005 0.49717,0.65691c0.34365,0.25125 0.94033,0.27241 0.94033,0.71809z" stroke-width="NaN"/><path d="M246.66039,177.91769c0,0.49642 -0.27503,1.30639 -0.68728,1.54812c-0.21839,0.12805 -0.47529,-0.17312 -0.75022,-0.17312c-0.55623,0 -1.28868,-0.05218 -1.52769,-0.49428c-0.10213,-0.18891 0.09019,-0.65337 0.09019,-0.88072c0,-0.31948 0.61391,0.07398 0.805,-0.15947c0.26313,-0.32145 0.17259,-1.21553 0.6325,-1.21553c0.32797,0 0.25528,0.48006 0.49717,0.65691c0.34365,0.25125 0.94033,0.27241 0.94033,0.71809z" stroke-width="NaN"/><path d="M254.90363,183.93121c0,0.49642 -0.27503,1.30639 -0.68728,1.54812c-0.21839,0.12805 -0.47529,-0.17312 -0.75022,-0.17312c-0.55623,0 -1.28868,-0.05218 -1.52769,-0.49428c-0.10213,-0.18891 0.09019,-0.65337 0.09019,-0.88072c0,-0.31948 0.61391,0.07398 0.805,-0.15947c0.26313,-0.32145 0.17259,-1.21553 0.6325,-1.21553c0.32797,0 0.25528,0.48006 0.49717,0.65691c0.34365,0.25125 0.94033,0.27241 0.94033,0.71809z" stroke-width="NaN"/><path d="M259.02525,179.53931c0,0.49642 -0.27503,1.30639 -0.68728,1.54812c-0.21839,0.12805 -0.4753,-0.17312 -0.75022,-0.17312c-0.55623,0 -1.28868,-0.05218 -1.52769,-0.49428c-0.10213,-0.18891 0.09019,-0.65337 0.09019,-0.88072c0,-0.31948 0.61391,0.07398 0.805,-0.15947c0.26313,-0.32145 0.17259,-1.21553 0.6325,-1.21553c0.32797,0 0.25528,0.48006 0.49717,0.65691c0.34365,0.25125 0.94033,0.27241 0.94033,0.71809z" stroke-width="NaN"/><path d="M252.53877,175.21499c0,0.49642 -0.27503,1.30639 -0.68728,1.54812c-0.21839,0.12805 -0.47529,-0.17312 -0.75022,-0.17312c-0.55623,0 -1.28868,-0.05218 -1.52769,-0.49428c-0.10213,-0.18891 0.09019,-0.65337 0.09019,-0.88072c0,-0.31948 0.61391,0.07398 0.805,-0.15947c0.26313,-0.32145 0.17259,-1.21553 0.6325,-1.21553c0.32797,0 0.25528,0.48006 0.49717,0.65691c0.34365,0.25125 0.94033,0.27241 0.94033,0.71809z" stroke-width="NaN"/></g></g></g></svg>