<svg version="1.1" xmlns="http://www.w3.org/2000/svg" xmlns:xlink="http://www.w3.org/1999/xlink" width="92.74277" height="54.672" viewBox="0,0,92.74277,54.672"><defs><linearGradient x1="195.1699" y1="176.1562" x2="286.1699" y2="176.1562" gradientUnits="userSpaceOnUse" id="color-1"><stop offset="0" stop-color="#5f4e44"/><stop offset="1" stop-color="#917767"/></linearGradient></defs><g transform="translate(-195.08344,-148.82)"><g data-paper-data="{&quot;isPaintingLayer&quot;:true}" fill-rule="nonzero" stroke-linecap="butt" stroke-linejoin="miter" stroke-miterlimit="10" stroke-dasharray="" stroke-dashoffset="0" style="mix-blend-mode: normal"><path d="M286.17,194.887c0,4.752 -3.854,8.605 -8.605,8.605h-73.792c-4.752,0 -8.604,-3.854 -8.604,-8.605v-37.463c0,-4.752 3.852,-8.604 8.604,-8.604h73.791c4.754,0 8.605,3.852 8.605,8.604v37.463z" fill="url(#color-1)" stroke="none" stroke-width="1"/><path d="M282.755,157.424v37.462c0,2.862 -2.327,5.19 -5.191,5.19h-73.791c-2.861,0 -5.19,-2.328 -5.19,-5.19v-37.463c0,-2.862 2.329,-5.19 5.19,-5.19h73.791c2.864,0 5.191,2.329 5.191,5.191z" fill="#a78a77" stroke="none" stroke-width="1"/><text transform="translate(209.30904,167.34395) scale(0.36222,0.36222)" font-size="40" xml:space="preserve" fill="#ffffff" fill-rule="nonzero" stroke="none" stroke-width="1" stroke-linecap="butt" stroke-linejoin="miter" stroke-miterlimit="10" stroke-dasharray="" stroke-dashoffset="0" font-family="Sans Serif" font-weight="normal" text-anchor="start" style="mix-blend-mode: normal"><tspan x="0" dy="0">Packages</tspan></text><path d="M221.68862,195.99664v-17.59204h37.03587v17.59204z" fill="#be9d87" stroke="#ad8f7b" stroke-width="1.5"/><path d="M238.09022,196.26119v-17.72431h5.95219v17.72431z" fill="#bfb3ab" stroke="#ada29b" stroke-width="1.5"/><text transform="translate(195.51151,180.96207) rotate(-0.49921) scale(0.48769,0.48769)" font-size="40" xml:space="preserve" fill="#ff0000" fill-rule="nonzero" stroke="#001717" stroke-width="1" stroke-linecap="butt" stroke-linejoin="miter" stroke-miterlimit="10" stroke-dasharray="" stroke-dashoffset="0" font-family="Sans Serif" font-weight="normal" text-anchor="start" style="mix-blend-mode: normal"><tspan x="0" dy="0">Delayed!!!</tspan></text></g></g></svg>