<svg version="1.1" xmlns="http://www.w3.org/2000/svg" xmlns:xlink="http://www.w3.org/1999/xlink" width="51.49637" height="15.46153" viewBox="0,0,51.49637,15.46153"><g transform="translate(-214.25182,-172.26924)"><g data-paper-data="{&quot;isPaintingLayer&quot;:true}" fill-rule="nonzero" stroke="none" stroke-width="1" stroke-linecap="butt" stroke-linejoin="miter" stroke-miterlimit="10" stroke-dasharray="" stroke-dashoffset="0" style="mix-blend-mode: normal"><path d="M239.37981,187.36265c-15.68167,-1.10434 -26.94597,-0.73623 -24.88453,-8.02489c2.06144,-7.28867 22.82309,-7.0678 31.95233,-7.0678c9.12924,0 20.39354,4.12288 19.06833,11.04343c-0.80985,3.68114 -20.9089,4.41737 -26.13612,4.04926z" fill="#f9e9ba"/><path d="M265.44231,183.31339c-0.73623,3.68114 -20.83528,4.41737 -26.20975,4.04926c-13.32574,-0.9571 -23.4857,-0.80985 -24.88453,-5.30085c1.17797,-0.14725 1.98782,-0.36811 2.87129,0.36811c1.03072,0.80985 3.60752,2.5768 6.1107,1.84057c2.50318,-0.73623 3.38665,0.14725 4.93273,0.14725c1.54608,0 1.6197,-0.44174 3.38665,-0.44174c1.69333,0 6.84693,1.84057 8.39301,1.47246c1.54608,-0.36811 2.50318,-0.51536 3.46028,-0.36811c0.9571,0.14725 3.75477,0.51536 5.22722,-0.29449c1.39883,-0.80985 6.92055,0.36811 8.02489,-0.14725c1.10434,-0.51536 2.13506,-0.58898 3.38665,-0.58898c1.03072,0 3.82839,-1.39883 5.44809,-1.84057c0,0.36811 -0.07362,0.73623 -0.14725,1.10434z" fill="#e3d5aa"/><path d="M231.9439,172.7117c-2.65042,2.5768 -4.34375,5.96345 -4.34375,5.96345c-0.66261,-2.5768 -0.22087,-4.34375 0.51536,-5.59534c1.25159,-0.22087 2.50318,-0.29449 3.82839,-0.36811z" fill="#e8daae"/><path d="M237.31837,178.60153c-0.80985,-3.01854 0,-5.00636 0.9571,-6.25794c1.32521,-0.07362 2.65042,-0.07362 3.82839,-0.07362c-2.94492,2.5768 -4.78549,6.33157 -4.78549,6.33157z" fill="#e8daae"/><path d="M246.4476,179.04326c-0.88347,-3.46028 0.22087,-5.52172 1.32521,-6.69968c1.10434,0 2.28231,0.14725 3.46028,0.29449c-2.87129,2.5768 -4.78549,6.33157 -4.78549,6.40519z" fill="#e8daae"/><path d="M219.50163,185.52208c0,0 0.88347,0.14725 2.50318,0.36811c1.54608,0.22087 3.82839,0.44174 6.55244,0.66261c2.72405,0.22087 5.88983,0.36811 9.27648,0.51536c1.69333,0.07362 3.46028,0.14725 5.22722,0.14725c1.76695,0 3.60752,-0.07362 5.37447,-0.14725c3.60752,-0.14725 7.21504,-0.51536 10.60169,-1.10434c1.69333,-0.29449 3.23941,-0.66261 4.71186,-1.25159c0.66261,-0.29449 1.39883,-0.73623 1.6197,-1.32521c0.07362,-0.66261 0.07362,-1.39883 0,-2.06144c-0.14725,-1.32521 -0.80985,-2.42956 -1.54608,-3.23941c-0.73623,-0.80985 -1.47246,-1.39883 -2.13506,-1.84057c-0.66261,-0.44174 -1.17797,-0.73623 -1.54608,-0.9571c-0.36811,-0.22087 -0.58898,-0.29449 -0.58898,-0.29449c0,0 0.22087,0.07362 0.58898,0.29449c0.36811,0.22087 0.9571,0.44174 1.6197,0.88347c0.66261,0.44174 1.47246,0.9571 2.20869,1.76695c0.73623,0.80985 1.47246,1.91419 1.69333,3.31303c0.07362,0.66261 0.14725,1.39883 0,2.20869c-0.14725,0.44174 -0.44174,0.73623 -0.73623,0.9571c-0.29449,0.22087 -0.66261,0.44174 -1.03072,0.58898c-1.47246,0.66261 -3.09216,1.03072 -4.78549,1.39883c-3.38665,0.66261 -6.99417,0.9571 -10.60169,1.17797c-1.84057,0.07362 -3.68114,0.14725 -5.52172,0.14725c-1.76695,0 -3.5339,-0.07362 -5.22722,-0.14725c-3.38665,-0.14725 -6.55244,-0.36811 -9.27648,-0.66261c-2.72405,-0.29449 -4.93273,-0.58898 -6.55244,-0.88347c-1.54608,-0.29449 -2.42956,-0.51536 -2.42956,-0.51536z" fill="#dbcda4"/><path d="M247.55195,184.41773c-0.9571,0.07362 -1.47246,-0.80985 -0.66261,-0.88347c0.80985,-0.07362 1.84057,0.80985 0.66261,0.88347z" fill="#e3d5aa"/><path d="M239.30619,184.78585c-0.9571,0.07362 0.07362,-0.58898 0.80985,-0.51536c0.73623,0.07362 0.07362,0.44174 -0.80985,0.51536z" fill="#e3d5aa"/><path d="M256.0922,184.27049c-0.80985,0.07362 -0.66261,-1.32521 1.03072,-1.32521c1.69333,0 0.22087,1.25159 -1.03072,1.32521z" fill="#e3d5aa"/><path d="M254.84061,183.53426c-0.88347,0.44174 -1.10434,0.29449 -0.88347,-0.07362c0.22087,-0.36811 1.32521,-0.14725 0.88347,0.07362z" fill="#e3d5aa"/><path d="M223.18277,183.6815c-0.66261,-0.14725 -0.88347,-1.03072 -0.29449,-1.03072c0.58898,0 1.03072,1.17797 0.29449,1.03072z" fill="#e3d5aa"/><path d="M235.25693,184.34411c-0.66261,0.22087 -0.9571,-0.66261 -0.22087,-0.66261c0.73623,0 0.66261,0.51536 0.22087,0.66261z" fill="#e3d5aa"/><path d="M263.67536,182.13542c-0.88347,0 -0.44174,-0.9571 0.36811,-0.9571c0.80985,0 0.51536,0.9571 -0.36811,0.9571z" fill="#e3d5aa"/></g></g></svg>