<svg version="1.1" xmlns="http://www.w3.org/2000/svg" xmlns:xlink="http://www.w3.org/1999/xlink" width="91.001" height="55.58331" viewBox="0,0,91.001,55.58331"><defs><linearGradient x1="195.1699" y1="176.1562" x2="286.1699" y2="176.1562" gradientUnits="userSpaceOnUse" id="color-1"><stop offset="0" stop-color="#0eff67"/><stop offset="1" stop-color="#ff0000"/></linearGradient></defs><g transform="translate(-195.169,-147.90869)"><g data-paper-data="{&quot;isPaintingLayer&quot;:true}" fill-rule="nonzero" stroke-linecap="butt" stroke-linejoin="miter" stroke-miterlimit="10" stroke-dasharray="" stroke-dashoffset="0" style="mix-blend-mode: normal"><path d="M286.17,194.887c0,4.752 -3.854,8.605 -8.605,8.605h-73.792c-4.752,0 -8.604,-3.854 -8.604,-8.605v-37.463c0,-4.752 3.852,-8.604 8.604,-8.604h73.791c4.754,0 8.605,3.852 8.605,8.604v37.463z" fill="url(#color-1)" stroke="none" stroke-width="1"/><path d="M282.755,157.424v37.462c0,2.862 -2.327,5.19 -5.191,5.19h-73.791c-2.861,0 -5.19,-2.328 -5.19,-5.19v-37.463c0,-2.862 2.329,-5.19 5.19,-5.19h73.791c2.864,0 5.191,2.329 5.191,5.191z" fill="#ffffff" stroke="none" stroke-width="1"/><text transform="translate(214.99669,169.65869) scale(0.5,0.5)" font-size="40" xml:space="preserve" fill="#5f5f5f" fill-rule="nonzero" stroke="none" stroke-width="1" stroke-linecap="butt" stroke-linejoin="miter" stroke-miterlimit="10" stroke-dasharray="" stroke-dashoffset="0" font-family="Sans Serif" font-weight="normal" text-anchor="start" style="mix-blend-mode: normal"><tspan x="0" dy="0">Pizza</tspan></text><path d="M260.03259,186.81195c0,4.70612 -8.9983,8.5212 -20.09827,8.5212c-11.09997,0 -20.09827,-3.81507 -20.09827,-8.5212c0,-4.70612 8.9983,-8.5212 20.09827,-8.5212c11.09997,0 20.09827,3.81507 20.09827,8.5212z" fill="#ece4cb" stroke="#cac3ae" stroke-width="1"/><path d="M257.85821,186.81195c0,4.19698 -8.0248,7.59931 -17.9239,7.59931c-9.89909,0 -17.9239,-3.40233 -17.9239,-7.59931c0,-4.19698 8.0248,-7.59931 17.9239,-7.59931c9.89909,0 17.9239,3.40233 17.9239,7.59931z" fill="#d23232" stroke="none" stroke-width="0"/><path d="M256.74164,186.69441c0,3.87062 -7.5249,7.00838 -16.80733,7.00838c-9.28243,0 -16.80733,-3.13776 -16.80733,-7.00838c0,-3.87062 7.5249,-7.00838 16.80733,-7.00838c9.28243,0 16.80733,3.13776 16.80733,7.00838z" fill="#f2f483" stroke="none" stroke-width="0"/><g fill="#ad4545" stroke="none"><path d="M233.96608,183.91195c0,0.77894 -1.02613,1.4104 -2.29191,1.4104c-1.26578,0 -2.29191,-0.63146 -2.29191,-1.4104c0,-0.77894 1.02613,-1.4104 2.29191,-1.4104c1.26578,0 2.29191,0.63146 2.29191,1.4104z" stroke-width="NaN"/><path d="M238.80509,190.9801c0,0.77894 -1.02613,1.4104 -2.29191,1.4104c-1.26578,0 -2.29191,-0.63146 -2.29191,-1.4104c0,-0.77894 1.02613,-1.4104 2.29191,-1.4104c1.26578,0 2.29191,0.63146 2.29191,1.4104z" stroke-width="NaN"/><path d="M230.96145,188.07977c0,0.77894 -1.02613,1.4104 -2.29191,1.4104c-1.26578,0 -2.29191,-0.63146 -2.29191,-1.4104c0,-0.77894 1.02613,-1.4104 2.29191,-1.4104c1.26578,0 2.29191,0.63146 2.29191,1.4104z" stroke-width="NaN"/><path d="M247.86245,183.19854c0,0.77894 -1.02613,1.4104 -2.29191,1.4104c-1.26578,0 -2.29191,-0.63146 -2.29191,-1.4104c0,-0.77894 1.02613,-1.4104 2.29191,-1.4104c1.26578,0 2.29191,0.63146 2.29191,1.4104z" stroke-width="NaN"/><path d="M239.99194,182.64381c0,0.77894 -1.02613,1.4104 -2.29191,1.4104c-1.26578,0 -2.29191,-0.63146 -2.29191,-1.4104c0,-0.77894 1.02613,-1.4104 2.29191,-1.4104c1.26578,0 2.29191,0.63146 2.29191,1.4104z" stroke-width="NaN"/><path d="M239.37379,186.93093c-0.0353,0.84535 -1.08915,1.48783 -2.35383,1.43501c-1.26468,-0.05281 -2.26129,-0.78092 -2.22599,-1.62626c0.0353,-0.84535 1.08915,-1.48783 2.35383,-1.43501c1.26468,0.05281 2.26129,0.78092 2.22599,1.62626z" stroke-width="NaN"/><path d="M246.4772,190.81051c0,0.77894 -1.02613,1.4104 -2.29191,1.4104c-1.26578,0 -2.29191,-0.63146 -2.29191,-1.4104c0,-0.77894 1.02613,-1.4104 2.29191,-1.4104c1.26578,0 2.29191,0.63146 2.29191,1.4104z" stroke-width="NaN"/><path d="M253.491,187.24541c0,0.84608 -1.02613,1.53197 -2.29191,1.53197c-1.26578,0 -2.29191,-0.68589 -2.29191,-1.53197c0,-0.84608 1.02613,-1.53197 2.29191,-1.53197c1.26578,0 2.29191,0.68589 2.29191,1.53197z" stroke-width="NaN"/><path d="M246.20016,187.00291c0,0.84608 -1.02613,1.53197 -2.29191,1.53197c-1.26578,0 -2.29191,-0.68589 -2.29191,-1.53197c0,-0.84608 1.02613,-1.53197 2.29191,-1.53197c1.26578,0 2.29191,0.68589 2.29191,1.53197z" stroke-width="NaN"/></g><g fill="#643528" stroke="none"><path d="M240.95285,186.81195c0,0.35173 -0.19487,0.92563 -0.48697,1.09691c-0.15474,0.09073 -0.33676,-0.12266 -0.53156,-0.12266c-0.39411,0 -0.91308,-0.03697 -1.08243,-0.35023c-0.07236,-0.13385 0.0639,-0.46294 0.0639,-0.62402c0,-0.22637 0.43498,0.05243 0.57038,-0.11298c0.18644,-0.22776 0.12229,-0.86126 0.44815,-0.86126c0.23238,0 0.18088,0.34014 0.35227,0.46545c0.24348,0.17802 0.66626,0.19301 0.66626,0.5088z" stroke-width="NaN"/><path d="M244.49556,190.35467c0,0.35173 -0.19486,0.92563 -0.48697,1.09691c-0.15474,0.09073 -0.33677,-0.12266 -0.53156,-0.12266c-0.39411,0 -0.91308,-0.03697 -1.08243,-0.35022c-0.07236,-0.13385 0.0639,-0.46294 0.0639,-0.62403c0,-0.22637 0.43498,0.05242 0.57038,-0.11299c0.18644,-0.22776 0.12229,-0.86125 0.44815,-0.86125c0.23238,0 0.18088,0.34014 0.35227,0.46545c0.24349,0.17802 0.66626,0.19301 0.66626,0.5088z" stroke-width="NaN"/><path d="M247.684,186.85624c0,0.35173 -0.19486,0.92563 -0.48697,1.09691c-0.15474,0.09073 -0.33677,-0.12266 -0.53156,-0.12266c-0.39411,0 -0.91308,-0.03697 -1.08243,-0.35022c-0.07236,-0.13385 0.0639,-0.46294 0.0639,-0.62403c0,-0.22637 0.43498,0.05242 0.57038,-0.11299c0.18644,-0.22776 0.12229,-0.86125 0.44815,-0.86125c0.23238,0 0.18088,0.34014 0.35227,0.46545c0.24349,0.17802 0.66626,0.19301 0.66626,0.5088z" stroke-width="NaN"/><path d="M234.1068,189.92379c0,0.35173 -0.19487,0.92563 -0.48697,1.09691c-0.15474,0.09073 -0.33677,-0.12266 -0.53156,-0.12266c-0.39411,0 -0.91308,-0.03697 -1.08243,-0.35022c-0.07236,-0.13385 0.0639,-0.46294 0.0639,-0.62403c0,-0.22637 0.43498,0.05242 0.57038,-0.11299c0.18644,-0.22776 0.12229,-0.86125 0.44815,-0.86125c0.23238,0 0.18088,0.34014 0.35227,0.46545c0.24349,0.17802 0.66626,0.19301 0.66626,0.5088z" stroke-width="NaN"/><path d="M243.50449,181.65022c0,0.35173 -0.19487,0.92563 -0.48697,1.09691c-0.15474,0.09073 -0.33676,-0.12266 -0.53156,-0.12266c-0.39411,0 -0.91308,-0.03697 -1.08243,-0.35022c-0.07236,-0.13385 0.0639,-0.46294 0.0639,-0.62403c0,-0.22637 0.43498,0.05242 0.57038,-0.11299c0.18643,-0.22776 0.12229,-0.86125 0.44815,-0.86125c0.23238,0 0.18088,0.34014 0.35227,0.46545c0.24349,0.17802 0.66626,0.19301 0.66626,0.5088z" stroke-width="NaN"/><path d="M229.89384,186.95558c0,0.35173 -0.19487,0.92563 -0.48697,1.09691c-0.15474,0.09073 -0.33676,-0.12266 -0.53156,-0.12266c-0.39411,0 -0.91308,-0.03697 -1.08243,-0.35022c-0.07236,-0.13385 0.0639,-0.46294 0.0639,-0.62403c0,-0.22637 0.43498,0.05243 0.57038,-0.11298c0.18644,-0.22776 0.12229,-0.86126 0.44815,-0.86126c0.23238,0 0.18088,0.34014 0.35227,0.46545c0.24349,0.17802 0.66626,0.19301 0.66626,0.5088z" stroke-width="NaN"/><path d="M236.35689,186.85983c0,0.35173 -0.19487,0.92563 -0.48697,1.09691c-0.15474,0.09073 -0.33676,-0.12266 -0.53156,-0.12266c-0.39411,0 -0.91308,-0.03697 -1.08243,-0.35022c-0.07236,-0.13385 0.0639,-0.46294 0.0639,-0.62403c0,-0.22637 0.43498,0.05243 0.57038,-0.11298c0.18644,-0.22776 0.12229,-0.86126 0.44815,-0.86126c0.23238,0 0.18088,0.34014 0.35227,0.46545c0.24349,0.17802 0.66626,0.19301 0.66626,0.5088z" stroke-width="NaN"/><path d="M233.48443,183.1735c0,0.35173 -0.19487,0.92563 -0.48697,1.09691c-0.15474,0.09073 -0.33676,-0.12266 -0.53156,-0.12266c-0.39411,0 -0.91308,-0.03697 -1.08243,-0.35022c-0.07236,-0.13385 0.0639,-0.46294 0.0639,-0.62403c0,-0.22637 0.43498,0.05243 0.57038,-0.11298c0.18644,-0.22776 0.12229,-0.86126 0.44815,-0.86126c0.23238,0 0.18088,0.34014 0.35227,0.46545c0.24349,0.17802 0.66626,0.19301 0.66626,0.5088z" stroke-width="NaN"/><path d="M238.70274,182.74263c0,0.35173 -0.19487,0.92563 -0.48697,1.09691c-0.15474,0.09073 -0.33676,-0.12266 -0.53156,-0.12266c-0.39411,0 -0.91308,-0.03698 -1.08243,-0.35023c-0.07236,-0.13385 0.0639,-0.46294 0.0639,-0.62402c0,-0.22637 0.43498,0.05242 0.57038,-0.11299c0.18644,-0.22776 0.12229,-0.86125 0.44815,-0.86125c0.23238,0 0.18088,0.34014 0.35227,0.46545c0.24349,0.17802 0.66626,0.19301 0.66626,0.5088z" stroke-width="NaN"/><path d="M241.28797,190.16317c0,0.35173 -0.19487,0.92563 -0.48697,1.09691c-0.15474,0.09073 -0.33676,-0.12266 -0.53156,-0.12266c-0.39411,0 -0.91308,-0.03698 -1.08243,-0.35023c-0.07236,-0.13385 0.0639,-0.46294 0.0639,-0.62402c0,-0.22637 0.43498,0.05242 0.57038,-0.11299c0.18644,-0.22776 0.12229,-0.86125 0.44815,-0.86125c0.23238,0 0.18088,0.34014 0.35227,0.46545c0.24349,0.17802 0.66626,0.19301 0.66626,0.5088z" stroke-width="NaN"/><path d="M237.55376,191.40791c0,0.35173 -0.19487,0.92563 -0.48697,1.09691c-0.15474,0.09073 -0.33676,-0.12266 -0.53156,-0.12266c-0.39411,0 -0.91308,-0.03698 -1.08243,-0.35023c-0.07236,-0.13385 0.0639,-0.46294 0.0639,-0.62402c0,-0.22637 0.43498,0.05242 0.57038,-0.11299c0.18644,-0.22776 0.12229,-0.86125 0.44815,-0.86125c0.23238,0 0.18088,0.34014 0.35227,0.46545c0.24349,0.17802 0.66626,0.19301 0.66626,0.5088z" stroke-width="NaN"/><path d="M244.65349,185.33655c0,0.35173 -0.19487,0.92563 -0.48697,1.09691c-0.15474,0.09073 -0.33676,-0.12266 -0.53156,-0.12266c-0.39411,0 -0.91308,-0.03697 -1.08243,-0.35022c-0.07236,-0.13385 0.0639,-0.46294 0.0639,-0.62403c0,-0.22637 0.43498,0.05242 0.57038,-0.11299c0.18644,-0.22776 0.12229,-0.86125 0.44815,-0.86125c0.23238,0 0.18088,0.34014 0.35227,0.46545c0.24349,0.17802 0.66626,0.19301 0.66626,0.5088z" stroke-width="NaN"/><path d="M250.49417,189.59738c0,0.35173 -0.19487,0.92563 -0.48697,1.09691c-0.15474,0.09073 -0.33676,-0.12266 -0.53156,-0.12266c-0.39411,0 -0.91308,-0.03697 -1.08243,-0.35022c-0.07236,-0.13385 0.0639,-0.46294 0.0639,-0.62403c0,-0.22637 0.43498,0.05242 0.57038,-0.11299c0.18644,-0.22776 0.12229,-0.86125 0.44815,-0.86125c0.23238,0 0.18088,0.34014 0.35227,0.46545c0.24349,0.17802 0.66626,0.19301 0.66626,0.5088z" stroke-width="NaN"/><path d="M253.41451,186.48554c0,0.35173 -0.19487,0.92563 -0.48697,1.09691c-0.15474,0.09073 -0.33677,-0.12266 -0.53156,-0.12266c-0.39411,0 -0.91308,-0.03697 -1.08243,-0.35022c-0.07236,-0.13385 0.0639,-0.46294 0.0639,-0.62403c0,-0.22637 0.43498,0.05242 0.57038,-0.11299c0.18644,-0.22776 0.12229,-0.86125 0.44815,-0.86125c0.23238,0 0.18088,0.34014 0.35227,0.46545c0.24349,0.17802 0.66626,0.19301 0.66626,0.5088z" stroke-width="NaN"/><path d="M248.81857,183.42157c0,0.35173 -0.19487,0.92563 -0.48697,1.09691c-0.15474,0.09073 -0.33676,-0.12266 -0.53156,-0.12266c-0.39411,0 -0.91308,-0.03697 -1.08243,-0.35022c-0.07236,-0.13385 0.0639,-0.46294 0.0639,-0.62403c0,-0.22637 0.43498,0.05242 0.57038,-0.11299c0.18644,-0.22776 0.12229,-0.86125 0.44815,-0.86125c0.23238,0 0.18088,0.34014 0.35227,0.46545c0.24349,0.17802 0.66626,0.19301 0.66626,0.5088z" stroke-width="NaN"/></g><text transform="translate(199.97889,177.9347) rotate(-8.61827) scale(0.33056,0.33056)" font-size="40" xml:space="preserve" fill="#949494" fill-rule="nonzero" stroke="#001717" stroke-width="1" stroke-linecap="butt" stroke-linejoin="miter" stroke-miterlimit="10" stroke-dasharray="" stroke-dashoffset="0" font-family="Sans Serif" font-weight="normal" text-anchor="start" style="mix-blend-mode: normal"><tspan x="0" dy="0">In</tspan><tspan x="0" dy="48px">development</tspan></text></g></g></svg>