<svg version="1.1" xmlns="http://www.w3.org/2000/svg" xmlns:xlink="http://www.w3.org/1999/xlink" width="85.29386" height="116.54021" viewBox="0,0,85.29386,116.54021"><g transform="translate(-207.96003,-126.67856)"><g data-paper-data="{&quot;isPaintingLayer&quot;:true}" fill-rule="nonzero" stroke-linecap="butt" stroke-linejoin="miter" stroke-miterlimit="10" stroke-dasharray="" stroke-dashoffset="0" style="mix-blend-mode: normal"><path d="M219.31631,162.45392c20.55574,-19.60114 55.00205,-14.87668 68.83173,-0.37348c13.82968,14.5032 -7.89289,74.60853 -7.89289,74.60853c0,0 -21.08184,6.58097 -31.87891,5.99257c-11.35664,-0.6189 -34.66709,-9.6191 -34.66709,-9.6191c0,0 -14.94856,-51.00738 5.60717,-70.60852z" fill="#a5cce7" stroke="#8dafc7" stroke-width="1"/><path d="M239.70002,146.82428l21.71184,-19.43969l14.86564,16.60316l-21.71184,19.43969z" fill="#a5cce7" stroke="#8dafc7" stroke-width="1"/><path d="M224.11161,234.34551l-7.3274,-20.2758l21.28958,-7.69378l7.3274,20.2758z" fill="#d6eced" stroke="#bed3d3" stroke-width="1.5"/><path d="M243.11161,237.05981l-7.3274,-20.2758l21.28958,-7.69378l7.32741,20.2758z" fill="#d6eced" stroke="#bed3d3" stroke-width="1.5"/><path d="M225.72409,221.88813l4.62765,-21.05667l22.10951,4.85903l-4.62766,21.05668z" fill="#d6eced" stroke="#bed3d3" stroke-width="1.5"/><path d="M255.58122,229.45954l4.62766,-21.05668l22.10952,4.85903l-4.62766,21.05668z" fill="#d6eced" stroke="#bed3d3" stroke-width="1.5"/><path d="M251.15268,215.3167l4.62766,-21.05668l22.10952,4.85903l-4.62766,21.05668z" fill="#d6eced" stroke="#bed3d3" stroke-width="1.5"/><path d="M238.15266,203.45955l4.62766,-21.05668l22.10952,4.85903l-4.62766,21.05668z" fill="#d6eced" stroke="#bed3d3" stroke-width="1.5"/></g></g></svg>