<svg version="1.1" xmlns="http://www.w3.org/2000/svg" xmlns:xlink="http://www.w3.org/1999/xlink" width="44.60804" height="61.30662" viewBox="0,0,44.60804,61.30662"><g transform="translate(-232.31202,-170.16436)"><g data-paper-data="{&quot;isPaintingLayer&quot;:true}" fill-rule="nonzero" stroke-linejoin="miter" stroke-miterlimit="10" stroke-dasharray="" stroke-dashoffset="0" style="mix-blend-mode: normal"><path d="M273.52171,181.41898c0,2.78192 -8.74741,5.03711 -19.53788,5.03711c-10.79047,0 -19.53788,-2.25519 -19.53788,-5.03711c0,-2.78192 8.74741,-5.03711 19.53788,-5.03711c10.79047,0 19.53788,2.25519 19.53788,5.03711z" fill="#cecece" stroke="#cecece" stroke-width="0.5" stroke-linecap="butt"/><path d="M235.69324,171.91437l11.95373,0.59893l7.32649,15.5724" fill="none" stroke="#e70000" stroke-width="3.5" stroke-linecap="round"/><path d="M272.80175,222.97771c0,3.7319 -8.22607,7.49328 -18.56884,7.49328c-10.34275,0 -18.88562,-4.14747 -18.88562,-7.87941c0,-1.31264 -2.51401,-10.70405 -3.03527,-21.20718c-0.47601,-9.59132 0.89661,-20.40038 3.58642,-20.95637c2.73899,-0.56615 14.79327,3.53826 18.1761,3.53826c4.02499,0 18.13908,-2.98387 18.13908,-2.98387c0,0 3.47432,9.41247 3.70644,19.15006c0.24886,10.43984 -3.1183,21.66573 -3.1183,22.84519z" fill="#e6e6e6" stroke="#cecece" stroke-width="2" stroke-linecap="butt"/><path d="M271.76709,224.22077c0,2.36577 -7.77698,4.75022 -17.55511,4.75022c-9.77811,0 -17.8546,-2.62921 -17.8546,-4.995c0,-1.592 -4.80662,-25.99034 0.52106,-26.72876c2.58946,-0.3589 14.34019,-2.91093 17.53834,-2.91093c3.80525,0 11.32286,1.73886 16.43976,3.5001c7.73137,2.66114 0.91056,24.93924 0.91056,26.38435z" fill="#df4e00" stroke="#b13e00" stroke-width="2" stroke-linecap="butt"/><path d="M273.52171,198.79398c0,2.78192 -8.74741,5.03711 -19.53788,5.03711c-10.79047,0 -19.53788,-2.25519 -19.53788,-5.03711c0,-2.78192 8.74741,-5.03711 19.53788,-5.03711c10.79047,0 19.53788,2.25519 19.53788,5.03711z" fill="#df4e00" stroke="#b13e00" stroke-width="1.5" stroke-linecap="butt"/></g></g></svg>