<svg version="1.1" xmlns="http://www.w3.org/2000/svg" xmlns:xlink="http://www.w3.org/1999/xlink" width="105.11981" height="110.07093" viewBox="0,0,105.11981,110.07093"><defs><linearGradient x1="202" y1="218" x2="228" y2="218" gradientUnits="userSpaceOnUse" id="color-1"><stop offset="0" stop-color="#cacaca"/><stop offset="1" stop-color="#818181"/></linearGradient><radialGradient cx="255.5" cy="198" r="32" gradientUnits="userSpaceOnUse" id="color-2"><stop offset="0" stop-color="#cacaca"/><stop offset="1" stop-color="#818181"/></radialGradient><linearGradient x1="251.5" y1="228" x2="251.5" y2="271" gradientUnits="userSpaceOnUse" id="color-3"><stop offset="0" stop-color="#7a7a7a"/><stop offset="1" stop-color="#cacaca"/></linearGradient><linearGradient x1="280" y1="218.5" x2="306" y2="218.5" gradientUnits="userSpaceOnUse" id="color-4"><stop offset="0" stop-color="#7e7e7e"/><stop offset="1" stop-color="#c8c8c8"/></linearGradient><linearGradient x1="254" y1="163" x2="254" y2="198" gradientUnits="userSpaceOnUse" id="color-5"><stop offset="0" stop-color="#7d7d7d"/><stop offset="1" stop-color="#cacaca"/></linearGradient></defs><g transform="translate(-201.46117,-162.49483)"><g data-paper-data="{&quot;isPaintingLayer&quot;:true}" fill-rule="nonzero" stroke-width="1" stroke-linecap="butt" stroke-linejoin="miter" stroke-miterlimit="10" stroke-dasharray="" stroke-dashoffset="0" style="mix-blend-mode: normal"><path d="M208,269l-6,-71l26,-31l2,60z" fill="url(#color-1)" stroke="#000000"/><path d="M229,230v-64h53v64z" fill="url(#color-2)" stroke="#000000"/><path d="M208.20127,270.0741l20.82839,-41.11855l50.97034,0.41732l18,41.62712z" fill="url(#color-3)" stroke="#000000"/><path d="M280,229.37288l2,-63.37288l24,33l-7.79873,71.65678z" data-paper-data="{&quot;index&quot;:null}" fill="url(#color-4)" stroke="#000000"/><path d="M202.51483,198l27.75701,-34l52.50485,-1l22.88008,35z" fill="url(#color-5)" stroke="#000000"/><text transform="translate(230.55263,249.52631) scale(0.5,0.5)" font-size="40" xml:space="preserve" fill="#8c5100" fill-rule="nonzero" stroke="none" stroke-width="1" stroke-linecap="butt" stroke-linejoin="miter" stroke-miterlimit="10" stroke-dasharray="" stroke-dashoffset="0" font-family="Sans Serif" font-weight="normal" text-anchor="start" style="mix-blend-mode: normal"><tspan x="0" dy="0">bred</tspan></text><text transform="translate(231.97368,262.16504) scale(0.26673,0.26673)" font-size="40" xml:space="preserve" fill="#8c5100" fill-rule="nonzero" stroke="none" stroke-width="1" stroke-linecap="butt" stroke-linejoin="miter" stroke-miterlimit="10" stroke-dasharray="" stroke-dashoffset="0" font-family="Sans Serif" font-weight="normal" text-anchor="start" style="mix-blend-mode: normal"><tspan x="0" dy="0">spawner</tspan></text></g></g></svg>