<svg version="1.1" xmlns="http://www.w3.org/2000/svg" xmlns:xlink="http://www.w3.org/1999/xlink" width="26.27242" height="22.23099" viewBox="0,0,26.27242,22.23099"><g transform="translate(-228.3583,-160.39232)"><g data-paper-data="{&quot;isPaintingLayer&quot;:true}" fill-rule="nonzero" stroke-linecap="butt" stroke-linejoin="miter" stroke-miterlimit="10" stroke-dasharray="" stroke-dashoffset="0" style="mix-blend-mode: normal"><path d="M229.3583,172.13417c0,-2.46892 1.10444,-8.10709 3.23353,-6.33717c2.29762,1.91002 5.6918,-4.82023 9.21185,-4.38432c2.68184,0.33211 5.09295,2.30972 5.15718,3.88504c0.02007,0.49237 -3.11858,1.83501 -2.78786,1.93344c1.07805,0.32085 3.15131,-1.46562 4.02448,-0.94401c0.59321,0.35437 2.93568,0.99666 3.41039,1.42733c1.43174,1.29893 0.47678,2.66836 0.47678,4.41969c0,0.93452 1.92276,4.78813 1.47981,5.61794c-1.22942,2.30319 -7.46893,2.08077 -11.52322,1.97351c-1.18717,-0.03141 -6.34064,1.89769 -7.45228,1.89769c-3.74511,0 -1.63649,-2.59173 -1.9453,-4.99684c-0.20867,-1.62515 -3.28536,-2.76328 -3.28536,-4.4923z" fill="#f9e9ba" stroke="#e3d5aa" stroke-width="2"/><path d="M249.25372,175.77567c-1.76777,1.76777 -3.53553,0 -3.53553,0l0.68556,-0.34997c-3.20254,-0.00745 -6.19752,-1.36614 -8.86025,0.39208c0,0 -2.17061,1.24035 -3.41096,-0.93026c-1.24035,-2.17061 0.93026,-3.41096 0.93026,-3.41096c1.09891,-0.576 2.08217,-1.47455 3.29673,-1.72799c2.17719,-0.45432 5.71082,0.68338 8.04422,0.67713l2.84997,1.81444c0,0 1.76777,1.76777 0,3.53553z" fill="#f5e6b8" stroke="none" stroke-width="0.5"/></g></g></svg>