<svg version="1.1" xmlns="http://www.w3.org/2000/svg" xmlns:xlink="http://www.w3.org/1999/xlink" width="711" height="436.83333" viewBox="0,0,711,436.83333"><g transform="translate(98.5,36.5)"><g data-paper-data="{&quot;isPaintingLayer&quot;:true}" fill-rule="nonzero" stroke-linecap="butt" stroke-linejoin="miter" stroke-miterlimit="10" stroke-dasharray="" stroke-dashoffset="0" style="mix-blend-mode: normal"><path d="M-55.5,83.5v-103h576v103z" fill="#9966ff" stroke="#000000" stroke-width="2"/><path d="M-98.5,84.5v-121h711v121z" fill="#7dccc5" stroke="none" stroke-width="0"/><path d="M-70.16667,397.83333v-316h611v316z" fill="#deca94" stroke="#bfae80" stroke-width="5"/><path d="M191.78756,359.04188l4.64944,-89.91577l246.00656,-71.17996l4.8387,85.91577z" fill="#8e8e8e" stroke="none" stroke-width="0"/><path d="M87.78756,304.04188l3.59397,-79.3109l190.16047,-62.78483l3.74027,75.78267z" fill="#8e8e8e" stroke="none" stroke-width="0"/><path d="M-0.21244,236.04188l3.43019,-89.91577l181.4947,-50.17996l3.56981,98.91577z" fill="#8e8e8e" stroke="none" stroke-width="0"/><text transform="translate(16.71944,218.76209) rotate(-18.6683) scale(2.10693,2.10693)" font-size="40" xml:space="preserve" fill="#fc5151" fill-rule="nonzero" stroke="none" stroke-width="1" stroke-linecap="butt" stroke-linejoin="miter" stroke-miterlimit="10" stroke-dasharray="" stroke-dashoffset="0" font-family="Marker" font-weight="normal" text-anchor="start" style="mix-blend-mode: normal"><tspan x="0" dy="0">Tiny</tspan></text><text transform="translate(93.71944,288.7621) rotate(-18.6683) scale(2.10693,2.10693)" font-size="40" xml:space="preserve" fill="#ffa352" fill-rule="nonzero" stroke="none" stroke-width="1" stroke-linecap="butt" stroke-linejoin="miter" stroke-miterlimit="10" stroke-dasharray="" stroke-dashoffset="0" font-family="Marker" font-weight="normal" text-anchor="start" style="mix-blend-mode: normal"><tspan x="0" dy="0">Shop</tspan></text><text transform="translate(201.71944,341.7621) rotate(-18.6683) scale(2.10693,2.10693)" font-size="40" xml:space="preserve" fill="#eeff52" fill-rule="nonzero" stroke="none" stroke-width="1" stroke-linecap="butt" stroke-linejoin="miter" stroke-miterlimit="10" stroke-dasharray="" stroke-dashoffset="0" font-family="Marker" font-weight="normal" text-anchor="start" style="mix-blend-mode: normal"><tspan x="0" dy="0">Owner</tspan></text></g></g></svg>