<svg version="1.1" xmlns="http://www.w3.org/2000/svg" xmlns:xlink="http://www.w3.org/1999/xlink" width="76.1223" height="63.77307" viewBox="0,0,76.1223,63.77307"><g transform="translate(-202.04385,-148.11346)"><g data-paper-data="{&quot;isPaintingLayer&quot;:true}" stroke-miterlimit="10" stroke-dasharray="" stroke-dashoffset="0" style="mix-blend-mode: normal"><g fill-rule="nonzero" stroke="none" stroke-width="1" stroke-linecap="butt" stroke-linejoin="miter"><path d="M275.39337,173.56731c0.48461,1.10761 0.88828,2.24882 1.2077,3.41487h-73.274c0.34871,-1.16467 0.77293,-2.30546 1.27017,-3.41487z" fill="#b5bfea"/><path d="M275.39337,173.56731h-70.75449l0.39563,-0.8329c1.27183,-2.52423 2.93762,-4.82968 4.93491,-6.82974h60.05178c1.99673,1.99576 3.65641,4.30232 4.91408,6.82974c0.14576,0.27069 0.27069,0.5622 0.45809,0.8329z" fill="#afb3eb"/><path d="M270.9582,202.48962h-61.94662c-1.25962,-1.2406 -2.35168,-2.6407 -3.24829,-4.16448h68.44321c-0.89661,1.52378 -1.98868,2.92388 -3.24829,4.16448z" fill="#d2d8f7"/><path d="M270.9582,202.40633c-0.50251,0.50571 -1.03071,0.98518 -1.5825,1.43675h-58.76079c-0.55832,-0.45157 -1.09345,-0.93104 -1.60332,-1.43675z" fill="#e9edff"/><path d="M275.62241,195.59741h-71.27505c-2.48467,-5.90162 -2.83073,-12.48552 -0.97865,-18.61522h73.23236c1.87166,6.1272 1.52517,12.71804 -0.97865,18.61522z" fill="#bdc5ef"/><path d="M275.62241,195.59741c-0.40118,0.94436 -0.87454,1.85625 -1.41592,2.72773h-68.44321c-0.53333,-0.87607 -1.00642,-1.78739 -1.41592,-2.72773z" fill="#c5cdef"/></g><g fill="none" fill-rule="evenodd" stroke="#ffffff" stroke-width="1.8" stroke-linecap="round" stroke-linejoin="round"><path d="M269.79214,174.50432c1.0203,1.72826 1.60332,2.99842 1.60332,2.99842"/><path d="M259.96397,164.34299c2.35959,1.34665 4.47209,3.08588 6.24672,5.14313c0.74267,0.81305 1.43799,1.66815 2.08224,2.56115"/></g><path d="M214.238,173.15087c1.10359,0.54138 0.8329,1.83237 0,3.165c-0.72531,1.37955 -0.7714,3.01703 -0.12493,4.43517c0.48849,1.1816 0.79056,2.43206 0.89536,3.70639c-0.05525,1.48519 -0.40937,2.94415 -1.04112,4.28941c-0.73906,1.17799 -0.97185,2.60433 -0.64549,3.95625c0.6287,1.20923 0.95714,2.55185 0.95783,3.91461c0,1.62415 -0.85372,2.37375 -0.95783,3.70639c0.01527,1.16619 0.16894,2.32656 0.45809,3.45652h-2.72773c-0.46295,-1.18452 -0.64133,-2.46121 -0.52056,-3.72721c0.27069,-1.81155 0.95783,-2.39458 0.81207,-3.87297c-0.14576,-1.47839 -1.29099,-2.08224 -1.41592,-4.16448c-0.11619,-1.6018 0.26181,-3.20068 1.08276,-4.58093c0.74267,-1.36539 0.84178,-2.98968 0.27069,-4.43517c-0.73947,-1.75394 -1.01905,-3.66752 -0.81207,-5.55958c0.3748,-2.18635 2.18635,-5.08066 3.76885,-4.28941z" fill="#9f509e" fill-rule="nonzero" stroke="none" stroke-width="1" stroke-linecap="butt" stroke-linejoin="miter"/><path d="M222.6086,170.02751c1.52003,0.35398 1.49921,1.79073 1.04112,3.12336c-0.4356,1.47464 -0.4356,3.04382 0,4.51846c0.43658,1.3765 0.32469,2.86849 -0.31234,4.16448c-0.89536,1.81155 -1.45757,1.87402 -1.64497,3.64392c-0.0075,1.19312 0.09009,2.38458 0.29151,3.56063c-0.2135,1.40343 -0.50543,2.79381 -0.87454,4.16448c-0.27069,1.72826 0.91619,3.8105 1.0203,5.7678c0.13812,1.73312 -0.26972,3.46596 -1.16605,4.95573h-3.165c0.60316,-1.27225 0.98351,-2.63861 1.12441,-4.03954c0,-1.74908 -1.10359,-2.9776 -1.12441,-5.24724c0.16769,-1.69814 0.48822,-3.37767 0.95783,-5.0182c0.16658,-1.66579 -0.60385,-2.26964 -0.39563,-4.31024c0.20822,-2.04059 1.64497,-3.12336 2.08224,-4.97655c0.43727,-1.85319 -0.58303,-2.45704 -0.68714,-5.0182c-0.1874,-2.29046 0.79125,-5.7678 2.85267,-5.28889z" fill="#9f509e" fill-rule="nonzero" stroke="none" stroke-width="1" stroke-linecap="butt" stroke-linejoin="miter"/><g><path d="M210.6149,203.80143h58.76079c-0.39563,0.31234 -0.79125,0.60385 -1.22852,0.89536c-8.3706,5.7678 -18.71933,6.82974 -28.15188,6.82974c-9.43254,0 -19.84374,-1.06194 -28.1727,-6.82974z" fill="#fdbb38" fill-rule="nonzero" stroke="none" stroke-width="1" stroke-linecap="butt" stroke-linejoin="miter"/><path d="M210.6149,203.80143h58.76079l-1.2077,0.89536c-8.39142,5.7678 -18.74015,6.82974 -28.1727,6.82974c-9.43254,0 -19.84374,-1.06194 -28.1727,-6.82974z" fill="none" fill-rule="evenodd" stroke="none" stroke-width="1" stroke-linecap="butt" stroke-linejoin="miter"/><path d="M245.63817,209.77746c-0.24987,0 0.81207,-1.10359 1.04112,-1.27017c0.75419,-0.16797 1.53628,-0.16797 2.29046,0c-0.06816,0.4406 -0.20156,0.86871 -0.39563,1.27017c-0.97157,0.16672 -1.96438,0.16672 -2.93596,0z" fill="#ffdb48" fill-rule="nonzero" stroke="#ffdb48" stroke-width="0.5" stroke-linecap="round" stroke-linejoin="round"/><path d="M243.97238,207.29959c-0.22905,0 -0.12493,-1.35346 0,-1.45757c0.60538,-0.11438 1.22699,-0.11438 1.83237,0c-0.03151,0.44838 -0.16686,0.88329 -0.39563,1.27017c-0.47003,0.11799 -0.95214,0.18088 -1.43675,0.1874z" fill="#ffdb48" fill-rule="nonzero" stroke="#ffdb48" stroke-width="0.5" stroke-linecap="round" stroke-linejoin="round"/><path d="M248.32426,205.98778c0,-0.24987 1.68661,-0.58303 1.79073,-0.54138c0.10411,0.04164 0,1.12441 -0.22905,1.35346c-0.22905,0.22905 -0.99947,0.29151 -1.12441,0.27069c-0.27166,-0.29637 -0.427,-0.68089 -0.43727,-1.08276z" fill="#ffdb48" fill-rule="nonzero" stroke="#ffdb48" stroke-width="0.5" stroke-linecap="round" stroke-linejoin="round"/><path d="M251.55173,207.88262c0.12493,0 0.89536,0 0.87454,0.22905c-0.02082,0.22905 -0.54138,1.14523 -0.70796,1.14523c-0.16658,0 -0.3748,-1.22852 -0.16658,-1.37428z" fill="#ffdb48" fill-rule="nonzero" stroke="#ffdb48" stroke-width="0.5" stroke-linecap="round" stroke-linejoin="round"/><path d="M252.7386,206.05025c0,-0.20822 1.0203,-0.74961 1.18688,-0.70796c0.16658,0.04164 0.77043,0.54138 0.72878,0.70796c-0.24557,0.34718 -0.57511,0.62662 -0.95783,0.81207c-0.29151,0.16658 -0.99947,-0.52056 -0.95783,-0.81207z" fill="#ffdb48" fill-rule="nonzero" stroke="#ffdb48" stroke-width="0.5" stroke-linecap="round" stroke-linejoin="round"/><path d="M254.57098,207.52864c0.49918,-0.22058 1.03696,-0.34079 1.5825,-0.35398c-0.20087,0.52972 -0.53861,0.9967 -0.97865,1.35346c-0.1874,0.04164 -0.60385,-0.79125 -0.60385,-0.99947z" fill="#ffdb48" fill-rule="nonzero" stroke="#ffdb48" stroke-width="0.5" stroke-linecap="round" stroke-linejoin="round"/><path d="M256.88226,205.59215c0.41797,-0.14603 0.87301,-0.14603 1.29099,0c0,0 -0.5622,0.74961 -0.64549,0.81207c-0.08329,0.06247 -0.87454,-0.62467 -0.64549,-0.81207z" fill="#ffdb48" fill-rule="nonzero" stroke="#ffdb48" stroke-width="0.5" stroke-linecap="round" stroke-linejoin="round"/><path d="M260.81769,205.65462c0.12493,0 1.54086,-0.52056 1.60332,-0.35398c0.06247,0.16658 -0.22905,0.62467 -0.62467,0.79125c-0.30914,0.12979 -0.64397,0.18685 -0.97865,0.16658c-0.24987,-0.02082 -0.20822,-0.52056 0,-0.60385z" fill="#ffdb48" fill-rule="nonzero" stroke="#ffdb48" stroke-width="0.5" stroke-linecap="round" stroke-linejoin="round"/><path d="M258.5897,207.0289c0.1874,-0.14576 0.77043,-0.45809 0.85372,-0.3748c0.07454,0.33802 -0.02735,0.69075 -0.27069,0.93701c-0.31081,0.1316 -0.64175,0.20906 -0.97865,0.22905c0,0 0.14576,-0.5622 0.39563,-0.79125z" fill="#ffdb48" fill-rule="nonzero" stroke="#ffdb48" stroke-width="0.5" stroke-linecap="round" stroke-linejoin="round"/><path d="M263.83694,205.34229c0,-0.16658 0.3748,-0.35398 0.52056,-0.22905c0.14576,0.12493 0,0.60385 -0.29151,0.74961c-0.29151,0.14576 -0.3748,-0.22905 -0.22905,-0.52056z" fill="#ffdb48" fill-rule="nonzero" stroke="#ffdb48" stroke-width="0.5" stroke-linecap="round" stroke-linejoin="round"/><path d="M238.68349,205.90449c0.34482,-0.26139 0.79514,-0.33899 1.2077,-0.20822c0.16658,0.14576 0.24987,1.49921 0,1.62415c-0.38299,0.17741 -0.82471,0.17741 -1.2077,0c-0.22905,-0.29151 -0.1874,-1.04112 0,-1.41592z" fill="#ffdb48" fill-rule="nonzero" stroke="#ffdb48" stroke-width="0.5" stroke-linecap="round" stroke-linejoin="round"/><path d="M241.70274,207.50781c0.1874,0 0.58303,0.72878 0.64549,0.91619c0.06247,0.1874 -0.5622,0.89536 -0.8329,0.87454c-0.27069,-0.02082 -0.58303,-0.74961 -0.47892,-0.99947c0.10411,-0.24987 0.39563,-0.79125 0.66632,-0.79125z" fill="#ffdb48" fill-rule="nonzero" stroke="#ffdb48" stroke-width="0.5" stroke-linecap="round" stroke-linejoin="round"/><path d="M243.72251,209.11114c0.14576,-0.22905 0.70796,0 0.74961,0.12493c0.04164,0.12493 -0.52056,1.16605 -0.74961,1.10359c-0.22905,-0.06247 -0.1874,-1.04112 0,-1.22852z" fill="#ffdb48" fill-rule="nonzero" stroke="#ffdb48" stroke-width="0.5" stroke-linecap="round" stroke-linejoin="round"/><path d="M236.64289,209.46512c0,-0.31234 1.31181,-0.47892 1.49921,-0.45809c0.1874,0.02082 0.87454,0.54138 0.77043,0.77043c-0.10411,0.22905 -0.89536,0.43727 -1.2077,0.35398c-0.31234,-0.08329 -1.14523,-0.33316 -1.06194,-0.66632z" fill="#ffdb48" fill-rule="nonzero" stroke="#ffdb48" stroke-width="0.5" stroke-linecap="round" stroke-linejoin="round"/><path d="M234.66477,206.86232c0.12493,-0.27069 1.27017,-0.58303 1.31181,-0.43727c0.04164,0.14576 0.24987,0.8329 0,1.08276c-0.24987,0.24987 -1.47839,-0.20822 -1.31181,-0.64549z" fill="#ffdb48" fill-rule="nonzero" stroke="#ffdb48" stroke-width="0.5" stroke-linecap="round" stroke-linejoin="round"/><path d="M231.37483,205.59215c0.12493,-0.20822 0.87454,-0.39563 0.99947,-0.24987c0.17227,0.42186 0.2228,0.88356 0.14576,1.33263c-0.28943,0.16991 -0.62287,0.24973 -0.95783,0.22905c-0.1874,-0.04164 -0.39563,-0.95783 -0.1874,-1.31181z" fill="#ffdb48" fill-rule="nonzero" stroke="#ffdb48" stroke-width="0.5" stroke-linecap="round" stroke-linejoin="round"/><path d="M232.74911,209.11114c0,-0.24987 1.24934,-0.43727 1.37428,-0.33316c0.13701,0.25334 0.13701,0.55873 0,0.81207c-0.10411,0.08329 -1.45757,-0.1874 -1.37428,-0.47892z" fill="#ffdb48" fill-rule="nonzero" stroke="#ffdb48" stroke-width="0.5" stroke-linecap="round" stroke-linejoin="round"/><path d="M227.87667,207.67439c0,-0.29151 1.18688,-0.5622 1.45757,-0.5622c0.27069,0 1.12441,0.97865 0.95783,1.24934c-0.42964,0.45948 -1.00197,0.76043 -1.62415,0.85372c-0.47892,0 -0.97865,-1.06194 -0.79125,-1.54086z" fill="#ffdb48" fill-rule="nonzero" stroke="#ffdb48" stroke-width="0.5" stroke-linecap="round" stroke-linejoin="round"/><path d="M226.7939,205.46722c0.10411,-0.1874 0.79125,-0.20822 0.89536,0c0.10411,0.20822 -0.20822,0.79125 -0.43727,0.72878c-0.22905,-0.06247 -0.60385,-0.41645 -0.45809,-0.72878z" fill="#ffdb48" fill-rule="nonzero" stroke="#ffdb48" stroke-width="0.5" stroke-linecap="round" stroke-linejoin="round"/><path d="M223.71219,207.65357c0.22905,-0.20822 1.52003,-0.95783 1.74908,-0.77043c0.22905,0.1874 0.29151,1.10359 0,1.29099c-0.29151,0.1874 -1.0203,0.39563 -1.2077,0.27069c-0.1874,-0.12493 -0.72878,-0.60385 -0.54138,-0.79125z" fill="#ffdb48" fill-rule="nonzero" stroke="#ffdb48" stroke-width="0.5" stroke-linecap="round" stroke-linejoin="round"/><path d="M221.65077,205.77956c0.1874,-0.1874 1.33263,-0.68714 1.47839,-0.45809c0.14576,0.22905 -0.1874,0.97865 -0.41645,1.08276c-0.22905,0.10411 -1.24934,-0.43727 -1.06194,-0.62467z" fill="#ffdb48" fill-rule="nonzero" stroke="#ffdb48" stroke-width="0.5" stroke-linecap="round" stroke-linejoin="round"/><path d="M219.52689,206.50834c0.12493,-0.22905 0.66632,0 0.77043,0c0.10411,0 0,0.72878 -0.24987,0.74961c-0.24987,0.02082 -0.62467,-0.5622 -0.52056,-0.74961z" fill="#ffdb48" fill-rule="nonzero" stroke="#ffdb48" stroke-width="0.5" stroke-linecap="round" stroke-linejoin="round"/><path d="M216.61175,205.17571c0.24987,-0.14576 1.0203,-0.24987 1.18688,0c0.12993,0.33871 0.06622,0.72129 -0.16658,0.99947c-0.37397,0.06136 -0.7546,-0.06288 -1.0203,-0.33316c-0.14576,-0.20822 -0.22905,-0.54138 0,-0.66632z" fill="#ffdb48" fill-rule="nonzero" stroke="#ffdb48" stroke-width="0.5" stroke-linecap="round" stroke-linejoin="round"/></g><path d="M270.02119,165.86303h-59.84356c3.74803,-3.83132 7.45442,-5.70534 7.45442,-8.16238c0,-2.45704 -1.74908,-3.20665 -2.64444,-5.05984c-0.44935,-0.91757 -0.38174,-2.00422 0.1781,-2.85891c0.55984,-0.85469 1.52892,-1.35096 2.54963,-1.30556c3.14418,0 4.72668,3.49816 7.30866,3.49816c2.58198,0 3.72721,-3.49816 6.74646,-3.49816c3.01925,0 3.93543,3.49816 8.32896,3.49816c4.39352,0 5.45547,-3.49816 8.32896,-3.49816c2.87349,0 3.89379,3.49816 6.74646,3.49816c2.85267,0 4.10201,-3.49816 7.30866,-3.49816c1.02071,-0.04539 1.98979,0.45087 2.54963,1.30556c0.55984,0.85469 0.62745,1.94134 0.1781,2.85891c-0.89536,1.85319 -2.64444,2.6028 -2.64444,5.05984c0,2.39458 3.70639,4.33106 7.45442,8.16238z" fill="none" fill-rule="evenodd" stroke="none" stroke-width="1" stroke-linecap="butt" stroke-linejoin="miter"/><path d="M269.58392,203.80143l-1.2077,0.89536c-8.39142,5.7678 -18.74015,6.82974 -28.1727,6.82974c-9.43254,0 -19.84374,-1.06194 -28.1727,-6.82974l-1.2077,-0.89536c-9.2035,-7.3503 -10.53613,-21.09308 -5.5804,-31.10866c1.27183,-2.52423 2.93762,-4.82968 4.93491,-6.82974c3.74803,-3.83132 7.45442,-5.70534 7.45442,-8.16238c0,-2.45704 -1.74908,-3.20665 -2.64444,-5.05984c-0.44935,-0.91757 -0.38174,-2.00422 0.1781,-2.85891c0.55984,-0.85469 1.52892,-1.35096 2.54963,-1.30556c3.14418,0 4.72668,3.49816 7.30866,3.49816c2.58198,0 3.72721,-3.49816 6.74646,-3.49816c3.01925,0 3.93543,3.49816 8.32896,3.49816c4.39352,0 5.45547,-3.49816 8.32896,-3.49816c2.87349,0 3.89379,3.49816 6.74646,3.49816c2.85267,0 4.10201,-3.49816 7.30866,-3.49816c1.02071,-0.04539 1.98979,0.45087 2.54963,1.30556c0.55984,0.85469 0.62745,1.94134 0.1781,2.85891c-0.89536,1.85319 -2.64444,2.66527 -2.64444,5.05984c0,2.39458 3.70639,4.33106 7.45442,8.16238c1.99728,2.00006 3.66308,4.30552 4.93491,6.82974c4.95573,10.01557 3.6231,23.75835 -5.37218,31.10866z" fill="none" fill-rule="evenodd" stroke="#9f509e" stroke-width="0.72" stroke-linecap="round" stroke-linejoin="round"/></g></g></svg>