<svg version="1.1" xmlns="http://www.w3.org/2000/svg" xmlns:xlink="http://www.w3.org/1999/xlink" width="87" height="48.33333" viewBox="0,0,87,48.33333"><defs><radialGradient cx="283.33333" cy="172.50001" r="7.83333" gradientUnits="userSpaceOnUse" id="color-1"><stop offset="0" stop-color="#9e0000"/><stop offset="1" stop-color="#b60000"/></radialGradient><radialGradient cx="240" cy="180.00001" r="43" gradientUnits="userSpaceOnUse" id="color-2"><stop offset="0" stop-color="#b30000"/><stop offset="1" stop-color="#b40000"/></radialGradient><radialGradient cx="239.79167" cy="173.08333" r="42.83333" gradientUnits="userSpaceOnUse" id="color-3"><stop offset="0" stop-color="#b30000"/><stop offset="1" stop-color="#b30000"/></radialGradient><radialGradient cx="240" cy="164.66668" r="43" gradientUnits="userSpaceOnUse" id="color-4"><stop offset="0" stop-color="#de0000"/><stop offset="1" stop-color="#aa0000"/></radialGradient></defs><g transform="translate(-196.5,-148.16667)"><g data-paper-data="{&quot;isPaintingLayer&quot;:true}" fill-rule="nonzero" stroke-linejoin="miter" stroke-miterlimit="10" stroke-dasharray="" stroke-dashoffset="0" style="mix-blend-mode: normal"><path d="M282.66667,165.5v15.66667" fill="#9e0000" stroke="url(#color-1)" stroke-width="0.5" stroke-linecap="round"/><path d="M240,196.00001c-23.74824,0 -43,-7.16344 -43,-16c0,-8.83656 19.25176,-16 43,-16c23.74824,0 43,7.16344 43,16c0,8.83656 -19.25176,16 -43,16z" fill="url(#color-2)" stroke="#000000" stroke-width="1" stroke-linecap="butt"/><path d="M197.25,165.16668l-0.16666,15.66667" fill="#8c0000" stroke="#000000" stroke-width="1" stroke-linecap="round"/><path d="M196.95833,182.41668v-18.66667h85.66667v18.66667z" fill="url(#color-3)" stroke="none" stroke-width="0" stroke-linecap="butt"/><path d="M240,180.66668c-23.74824,0 -43,-7.16344 -43,-16c0,-8.83656 19.25176,-16 43,-16c23.74824,0 43,7.16344 43,16c0,8.83656 -19.25176,16 -43,16z" fill="url(#color-4)" stroke="#000000" stroke-width="1" stroke-linecap="butt"/><path d="M197.15,163.53334l0.2,18.5" fill="none" stroke="#000000" stroke-width="1" stroke-linecap="round"/><path d="M282.65,163.93334l0.2,18.5" fill="none" stroke="#000000" stroke-width="1" stroke-linecap="round"/></g></g></svg>