<svg version="1.1" xmlns="http://www.w3.org/2000/svg" xmlns:xlink="http://www.w3.org/1999/xlink" width="37.375" height="24.49218" viewBox="0,0,37.375,24.49218"><g transform="translate(-221.05701,-159.50782)"><g data-paper-data="{&quot;isPaintingLayer&quot;:true}" fill-rule="nonzero" stroke-linejoin="miter" stroke-miterlimit="10" stroke-dasharray="" stroke-dashoffset="0" style="mix-blend-mode: normal"><path d="M256.79054,178.36261c0,2.56116 -7.51738,4.63739 -16.79054,4.63739c-9.27316,0 -16.79054,-2.07623 -16.79054,-4.63739c0,-1.5283 2.67677,-2.88393 6.80609,-3.72877c1.10392,0.01148 2.21237,0.1047 3.3222,0.19296c0.10882,0.30602 0.46926,0.30602 0.46926,0.30602h0.375c0.05587,0 0.11162,-0.00046 0.16728,-0.00137c1.1768,1.86372 2.45879,2.68556 5.3246,1.42714l0.21119,-0.09386c0,0 0.45691,-0.20307 0.25384,-0.65998c-0.20307,-0.45691 -0.65998,-0.25384 -0.65998,-0.25384l-0.21119,0.09386c-1.38307,0.62319 -2.25744,0.67313 -2.91547,0.31712l0.39606,-0.24214c0.76574,-0.18645 1.47169,-0.53254 2.17112,-0.89585c0.36619,-0.0499 0.72787,-0.10534 1.0864,-0.16317c0.83236,-0.00179 1.65597,-0.01377 2.47266,-0.04645c1.5077,0.52499 3.00614,1.11753 4.62129,1.38672l0.2072,0.0068c0,0 0.5,0 0.5,-0.5c0,-0.5 -0.5,-0.5 -0.5,-0.5l-0.0428,0.0068c-0.79287,-0.13214 -1.55592,-0.33875 -2.30482,-0.57629c0.68193,-0.07283 1.36022,-0.16826 2.03596,-0.29271c5.78061,0.73267 9.79519,2.34534 9.79519,4.21699zM238.49632,178.16858l-0.53386,0.22326c-1.38446,-0.01379 -2.7284,-0.12537 -4.10804,-0.25677c0,0 -0.49775,-0.0474 -0.54515,0.45034c-0.0474,0.49775 0.45034,0.54515 0.45034,0.54515c1.47953,0.14091 2.90625,0.25548 4.39196,0.24323l0.71614,-0.27674c0,0 0.46424,-0.1857 0.27854,-0.64993c-0.1857,-0.46424 -0.64993,-0.27854 -0.64993,-0.27854z" fill="#ea915e" stroke="#ea915e" stroke-width="2" stroke-linecap="butt"/><path d="M235.4341,175.06309c0.2024,-0.02115 0.40393,-0.04629 0.60491,-0.07422l-0.36425,0.2152c0,0 -0.03988,0.02393 -0.08802,0.06935c-0.05164,-0.06694 -0.10243,-0.13711 -0.15264,-0.21033z" fill="#ea915e" stroke="#ea915e" stroke-width="2" stroke-linecap="butt"/><path d="M256.79054,169.88739c0,0.42343 -0.20547,0.8336 -0.59038,1.22333c0.0053,-0.04178 0.01025,-0.08373 0.01482,-0.12591l0.0771,0.01928l0.12228,-0.48912c0.01151,-0.04209 0.01765,-0.0864 0.01765,-0.13215c0,-0.27614 -0.22386,-0.5 -0.5,-0.5c-0.08398,0 -0.16312,0.0207 -0.2326,0.05728l-0.37244,0.18622c-0.11264,-0.27881 -0.22685,-0.52533 -0.32274,-0.71711l-0.57221,-0.27639c0,0 -0.5,0 -0.5,0.5c0,0.27318 0.14926,0.39711 0.28468,0.45333c0.05185,0.11675 0.11356,0.26195 0.17821,0.42424c-0.76122,0.30453 -1.51327,0.60398 -2.29271,0.91632c-1.27401,0.64477 -2.55239,1.10791 -3.84063,1.43927c-0.92881,0.08351 -1.866,0.14185 -2.82954,0.14185c-1.24854,0 -2.44964,0.15322 -3.65857,0.34435c-0.02908,-0.00929 -0.05817,-0.01854 -0.08728,-0.02773c0.00521,-0.06157 -0.00156,-0.13138 -0.02524,-0.2103c-0.14367,-0.47891 -0.62259,-0.33524 -0.62259,-0.33524c-0.19382,0.05885 -0.38428,0.12626 -0.57221,0.20009c-0.85633,-0.20967 -1.73511,-0.34618 -2.65912,-0.34618c0,0 -0.5,0 -0.5,0.5c0,0.5 0.5,0.5 0.5,0.5c0.12377,0 0.24679,0.00257 0.3691,0.00755c-0.03292,0.00537 -0.06583,0.01078 -0.09873,0.01622c-0.9124,-0.01099 -1.83533,-0.02377 -2.77037,-0.02377c-0.23132,0.00041 -0.46115,-0.00601 -0.68977,-0.01814c-0.11656,-0.2274 -0.23784,-0.46571 -0.36694,-0.71315c0,0 -0.23128,-0.44329 -0.67458,-0.21201c-0.44329,0.23128 -0.21201,0.67458 -0.21201,0.67458c0.02486,0.04765 0.0496,0.095 0.07423,0.14203c-0.98315,-0.12435 -1.95357,-0.32005 -2.93659,-0.49348c-0.92337,-0.16291 -2.01877,-0.05603 -3.06721,-0.04939c-0.69567,-0.21663 -1.31902,-0.45138 -1.8596,-0.70136c-0.11698,-0.83659 -0.13942,-1.65989 -0.1422,-2.53224c0.30031,-0.21955 0.59699,-0.43847 0.77467,-0.67185c0,0 0.3,-0.4 -0.1,-0.7c-0.4,-0.3 -0.7,0.1 -0.7,0.1c-0.15571,0.21159 -0.3622,0.38975 -0.58235,0.55852c-0.18294,0.0307 -0.28065,0.13948 -0.33283,0.24692c-0.35032,0.25797 -0.68916,0.5221 -0.87566,0.88363c-0.08091,0.15685 -0.15047,0.30807 -0.20927,0.45388c-0.13,-0.23254 -0.19744,-0.47078 -0.19744,-0.71338c0,-2.56116 7.51738,-4.63739 16.79054,-4.63739c9.27316,0 16.79054,2.07623 16.79054,4.63739z" fill="#ea915e" stroke="#ea915e" stroke-width="2" stroke-linecap="butt"/><path d="M252.51184,172.33894c0.75001,-0.29943 1.4767,-0.59143 2.21089,-0.88516c0.05945,0.2069 0.10774,0.4105 0.13553,0.59546c-0.33145,0.17341 -0.70152,0.34032 -1.10707,0.49984c-0.28395,-0.09616 -0.5623,-0.17786 -0.72963,-0.16501c-0.24458,0.01878 -0.48768,0.03963 -0.72963,0.06198c0.0733,-0.03515 0.1466,-0.07085 0.2199,-0.10711z" fill="#ea915e" stroke="#ea915e" stroke-width="2" stroke-linecap="butt"/><path d="M247.63615,174.01855c0.18331,-0.039 0.36646,-0.0803 0.54947,-0.12402c0.18017,-0.0138 0.36001,-0.02861 0.53965,-0.04427c-0.35461,0.05969 -0.71787,0.11584 -1.08912,0.16829z" fill="#ea915e" stroke="#ea915e" stroke-width="2" stroke-linecap="butt"/><path d="M223.18201,172.12786v7.25496" fill="none" stroke="#b57048" stroke-width="2" stroke-linecap="round"/><path d="M256.80701,179.50782v-10.25" fill="none" stroke="#b57048" stroke-width="2" stroke-linecap="round"/><path d="M242.60894,169.29786c0.09689,-0.03131 0.19936,-0.05052 0.30832,-0.05562c0.10049,-0.00471 0.21518,0.004 0.3406,0.02353c0.30851,0.02452 0.60124,0.10506 0.86804,0.23142c0.96022,0.32815 2.06407,0.87192 2.48834,1.01715c2.61674,0.89576 4.7469,0.26752 6.94278,0.74347c2.53158,0.54872 3.53362,4.10573 1.11803,5.48607c-1.62677,0.92958 -8.06822,-0.88802 -9.77415,-1.53106c-0.10705,-0.04035 -3.89577,-1.25771 -3.94232,-2.09558l-0.08454,-0.2862c-0.13747,0.0455 -0.27334,0.09508 -0.40791,0.14794c-0.85633,-0.20967 -1.73511,-0.34618 -2.65912,-0.34618c0,0 -0.5,0 -0.5,0.5c0,0.5 0.5,0.5 0.5,0.5c0.12377,0 0.24679,0.00257 0.3691,0.00755c-0.83942,0.13702 -1.66922,0.29731 -2.50894,0.39687c-0.19848,-1.28214 -0.06986,-2.62254 0.9017,-2.94639c0.45776,-0.51128 1.12288,-0.83303 1.86315,-0.83303c0.9765,0 1.82224,0.55986 2.23374,1.37611c0.64629,-0.77986 1.06687,-2.0529 1.94319,-2.33607z" fill="#ea915e" stroke="none" stroke-width="0.5" stroke-linecap="butt"/><path d="M240.62222,174.38415c-0.16783,0.42383 -0.39534,0.8316 -0.66921,1.19003c-0.21474,-0.13852 -0.47407,-0.02326 -0.47407,-0.02326l-0.21119,0.09386c-1.38307,0.62319 -2.25744,0.67313 -2.91547,0.31712l0.39606,-0.24214c1.03655,-0.25239 1.96352,-0.79729 2.9131,-1.28147c0.31666,-0.02956 0.63653,-0.04904 0.96077,-0.05415z" fill="#ea915e" stroke="none" stroke-width="0.5" stroke-linecap="butt"/><path d="M235.8803,175.01031c0.05295,-0.00694 0.10585,-0.01409 0.15872,-0.02144l-0.14092,0.08326c-0.00599,-0.0205 -0.01192,-0.0411 -0.01779,-0.06182z" fill="#000000" stroke="none" stroke-width="0.5" stroke-linecap="butt"/><path d="M223.18201,169.13282v2.25363" fill="none" stroke="#b57048" stroke-width="2" stroke-linecap="round"/><path d="M225.12705,177.51042c-5.55759,-3.17576 4.17996,-15.39348 4.17996,-5.4025c0.20933,0.17921 0.38869,0.39242 0.52954,0.63106c1.82863,1.04493 -1.28221,6.72989 -4.7095,4.77144z" fill="#ea915e" stroke="none" stroke-width="0.5" stroke-linecap="butt"/><path d="M257.18201,168.69532c0,2.10559 -7.69511,3.8125 -17.1875,3.8125c-9.49239,0 -17.1875,-1.70691 -17.1875,-3.8125c0,-2.10559 7.69511,-3.8125 17.1875,-3.8125c9.49239,0 17.1875,1.70691 17.1875,3.8125z" fill="#ea915e" stroke="#b57048" stroke-width="2" stroke-linecap="butt"/><path d="M257.43201,168.57256c0,0.88633 -5.01181,6.82278 -6.8159,4.99003c-3.91167,-3.97381 -6.59762,-0.64895 -6.06228,1.40737c0.57328,2.20208 -2.72764,-2.58266 -4.80932,-2.58266c-2.11971,0 -2.80389,3.65647 -4.93609,3.77588c-2.62198,0.14684 -6.60131,-3.14102 -8.00654,-1.86868c-2.77502,2.5126 -4.74487,-4.63446 -4.74487,-5.72194c0,-2.10682 7.91896,-3.81474 17.6875,-3.81474c9.76854,0 17.6875,1.70792 17.6875,3.81474z" fill="#ffffff" stroke="#efefef" stroke-width="2" stroke-linecap="butt"/><path d="M225.30701,164.63282l0.125,4.5" fill="none" stroke="#f00000" stroke-width="2" stroke-linecap="round"/><path d="M232.93201,167.88282l-0.125,-4.625" fill="none" stroke="#f00000" stroke-width="2" stroke-linecap="round"/><path d="M239.43201,169.13282v-4.25" fill="none" stroke="#f00000" stroke-width="2" stroke-linecap="round"/><path d="M246.55701,168.75782v-4.25" fill="none" stroke="#f00000" stroke-width="2" stroke-linecap="round"/><path d="M225.43201,160.50782c0.25,0 0.25,0.25 0.25,0.25l-0.00323,0.29005c-0.02939,0.08014 -1.16426,1.45127 -1.15911,1.45352c0.64018,0.27954 1.91202,1.42387 0.41234,1.50643c0,0 -0.25,0 -0.25,-0.25c0,-0.25 0.25,-0.25 0.25,-0.25c0.68552,0.08453 -0.78318,-0.63829 -0.83766,-0.74357c-0.42173,-0.81489 0.94708,-1.25794 1.09089,-1.79648l-0.00323,-0.20995c0,0 0,-0.25 0.25,-0.25z" fill="#ffc500" stroke="none" stroke-width="0.5" stroke-linecap="butt"/><path d="M232.30701,159.50782c0.25,0 0.25,0.25 0.25,0.25v0.125c0,0.84347 2.60799,2.81555 -0.125,2.875c0,0 -0.25,0 -0.25,-0.25c0,-0.25 0.25,-0.25 0.25,-0.25c1.77409,0.06161 -0.375,-1.72193 -0.375,-2.375v-0.125c0,0 0,-0.25 0.25,-0.25z" fill="#ffc500" stroke="none" stroke-width="0.5" stroke-linecap="butt"/><path d="M239.93182,161.37313c0.00969,0.24981 -0.24012,0.2595 -0.24012,0.2595l-0.26085,0.00839c-1.86258,0.49162 0.71524,1.4664 0.86778,1.92763c0.18205,0.55046 -0.87666,0.6841 -1.00445,1.14322c0,0 -0.07906,0.23717 -0.31623,0.15811c-0.23717,-0.07906 -0.15811,-0.31623 -0.15811,-0.31623c0.15175,-0.41068 1.39299,-0.67313 0.99555,-0.85678c-1.15943,-0.53572 -2.42497,-1.9757 -0.46236,-2.54987l0.31929,-0.01411c0,0 0.24981,-0.00969 0.2595,0.24012z" fill="#ffc500" stroke="none" stroke-width="0.5" stroke-linecap="butt"/><path d="M246.93201,160.13282c0,0.25 -0.25,0.25 -0.25,0.25l0.05178,-0.07322c-0.21553,0.19801 -0.85191,0.24633 -0.94708,0.42191c-0.17259,0.31842 0.90895,1.27577 0.76568,1.69918c-0.26767,0.79104 -0.89439,0.18589 -1.26858,0.55733c-0.04318,0.04286 0.47346,0.28855 0.95566,0.52713c0.06794,-0.01491 0.12818,0.00015 0.12818,0.00015c0.16169,0.04042 0.32338,0.08085 0.48507,0.12127l0.48,0.12c0.11133,0.02526 0.19444,0.12483 0.19444,0.2438c0,0.13649 -0.10938,0.24743 -0.24527,0.24996l-0.34447,0.00745l-0.00184,-0.08511c-0.15422,-0.03856 -0.51258,-0.12814 -0.6668,-0.1667c-0.8825,-0.13559 -1.82199,-0.49726 -1.43856,-1.22832c0.15229,-0.29037 1.18526,-0.2651 1.23142,-0.44267c0.11222,-0.43175 -1.03874,-1.20626 -0.73432,-1.80082c0.32983,-0.64418 0.70578,-0.17563 1.05292,-0.57809l0.30178,-0.07322c0,0 0.25,0 0.25,0.25z" fill="#ffc500" stroke="none" stroke-width="0.5" stroke-linecap="butt"/></g></g></svg>