<svg version="1.1" xmlns="http://www.w3.org/2000/svg" xmlns:xlink="http://www.w3.org/1999/xlink" width="44.60804" height="61.30662" viewBox="0,0,44.60804,61.30662"><g transform="translate(-232.31202,-170.16437)"><g data-paper-data="{&quot;isPaintingLayer&quot;:true}" fill-rule="nonzero" stroke-linejoin="miter" stroke-miterlimit="10" stroke-dasharray="" stroke-dashoffset="0" style="mix-blend-mode: normal"><path d="M273.52171,181.41899c0,2.78192 -8.74741,5.03711 -19.53788,5.03711c-10.79047,0 -19.53788,-2.25519 -19.53788,-5.03711c0,-2.78192 8.74741,-5.03711 19.53788,-5.03711c10.79047,0 19.53788,2.25519 19.53788,5.03711z" fill="#cecece" stroke="#cecece" stroke-width="0.5" stroke-linecap="butt"/><path d="M235.69324,171.91438l11.95373,0.59893l7.32649,15.5724" fill="none" stroke="#e70000" stroke-width="3.5" stroke-linecap="round"/><path d="M272.80175,222.97772c0,3.7319 -8.22607,7.49328 -18.56884,7.49328c-10.34275,0 -18.88562,-4.14747 -18.88562,-7.87941c0,-1.31264 -2.51401,-10.70405 -3.03527,-21.20718c-0.47601,-9.59132 0.89661,-20.40038 3.58642,-20.95637c2.73899,-0.56615 14.79327,3.53826 18.1761,3.53826c4.02499,0 18.13908,-2.98387 18.13908,-2.98387c0,0 3.47432,9.41247 3.70644,19.15006c0.24886,10.43984 -3.1183,21.66573 -3.1183,22.84519z" fill="#e6e6e6" stroke="#cecece" stroke-width="2" stroke-linecap="butt"/><path d="M271.76709,224.22078c0,2.36577 -7.77698,4.75022 -17.55511,4.75022c-9.77811,0 -17.8546,-2.62921 -17.8546,-4.995c0,-1.592 -4.80662,-25.99034 0.52106,-26.72876c2.58946,-0.3589 14.34019,-2.91093 17.53834,-2.91093c3.80525,0 11.32286,1.73886 16.43976,3.5001c7.73137,2.66114 0.91056,24.93924 0.91056,26.38435z" fill="#4e3a2f" stroke="#2c1305" stroke-width="2" stroke-linecap="butt"/><path d="M273.64671,198.79399c0,2.78192 -8.74741,5.03711 -19.53788,5.03711c-10.79047,0 -19.53788,-2.25519 -19.53788,-5.03711c0,-2.78192 8.74741,-5.03711 19.53788,-5.03711c10.79047,0 19.53788,2.25519 19.53788,5.03711z" fill="#ac8069" stroke="#775949" stroke-width="1.5" stroke-linecap="butt"/><path d="" fill="#ac8069" stroke="none" stroke-width="0.5" stroke-linecap="butt"/><path d="M246.05738,199.5104c0,-0.69036 0.55964,-1.25 1.25,-1.25c0.69036,0 1.25,0.55964 1.25,1.25c0,0.69036 -0.55964,1.25 -1.25,1.25c-0.69036,0 -1.25,-0.55964 -1.25,-1.25z" fill="#ac8069" stroke="none" stroke-width="0.5" stroke-linecap="butt"/><path d="M259.02398,200.16039c0.69036,0 1.25,0.55964 1.25,1.25c0,0.69036 -0.55964,1.25 -1.25,1.25c-0.46618,0 -0.87275,-0.25519 -1.08765,-0.6335c-0.00688,0.00011 -0.01377,0.00017 -0.02068,0.00017c-0.0595,0 -0.11804,-0.00416 -0.17533,-0.0122c0.00022,0.00959 0.00033,0.01922 0.00033,0.02886c0,0.69036 -0.55964,1.25 -1.25,1.25c-0.69036,0 -1.25,-0.55964 -1.25,-1.25c0,-0.54519 0.34903,-1.00886 0.83584,-1.17975c-0.2231,-0.22577 -0.36084,-0.53609 -0.36084,-0.87857c0,-0.05852 0.00402,-0.11611 0.0118,-0.17249c-0.38469,-0.21312 -0.64512,-0.62323 -0.64512,-1.09417c0,-0.69036 0.55964,-1.25 1.25,-1.25c0.69036,0 1.25,0.55964 1.25,1.25c0,0.05852 -0.00402,0.11611 -0.0118,0.17249c0.25853,0.14323 0.46094,0.37543 0.5659,0.65526c0.3718,0.06626 0.6867,0.29689 0.86687,0.61407c0.00688,-0.00011 0.01377,-0.00017 0.02068,-0.00017z" fill="#e8ad8d" stroke="none" stroke-width="0.5" stroke-linecap="butt"/><path d="M242.09908,196.02708c0,-0.69036 0.55964,-1.25 1.25,-1.25c0.69036,0 1.25,0.55964 1.25,1.25c0,0.46151 -0.25011,0.86461 -0.62218,1.08114c0.19033,0.21934 0.30552,0.50564 0.30552,0.81884c0,0.69036 -0.55964,1.25 -1.25,1.25c-0.69036,0 -1.25,-0.55964 -1.25,-1.25c0,-0.46151 0.25011,-0.86461 0.62218,-1.08114c-0.19033,-0.21934 -0.30552,-0.50564 -0.30552,-0.81884z" fill="#e8ad8d" stroke="none" stroke-width="0.5" stroke-linecap="butt"/><path d="M250.64903,196.66041c0,-0.69036 0.55964,-1.25 1.25,-1.25c0.21931,0 0.42543,0.05648 0.60461,0.15568c0.22901,-0.28783 0.58231,-0.47235 0.97871,-0.47235c0.69036,0 1.25,0.55964 1.25,1.25c0,0.69036 -0.55964,1.25 -1.25,1.25c-0.21931,0 -0.42543,-0.05648 -0.60461,-0.15568c-0.22901,0.28783 -0.58231,0.47235 -0.97871,0.47235c-0.69036,0 -1.25,-0.55964 -1.25,-1.25z" fill="#e8ad8d" stroke="none" stroke-width="0.5" stroke-linecap="butt"/><path d="M246.35739,198.73539c0.69036,0 1.25,0.55964 1.25,1.25c0,0.2277 -0.06088,0.44118 -0.16726,0.62505c-0.07413,0.61961 -0.60151,1.09995 -1.24109,1.09995c-0.69036,0 -1.25,-0.55964 -1.25,-1.25c0,-0.2277 0.06088,-0.44118 0.16726,-0.62505c0.07413,-0.61961 0.60151,-1.09995 1.24109,-1.09995z" fill="#e8ad8d" stroke="none" stroke-width="0.5" stroke-linecap="butt"/><path d="M248.27403,198.08541c0,-0.69036 0.55964,-1.25 1.25,-1.25c0.69036,0 1.25,0.55964 1.25,1.25c0,0.06432 -0.00486,0.12751 -0.01423,0.18922c0.06171,-0.00937 0.1249,-0.01423 0.18922,-0.01423c0.69036,0 1.25,0.55964 1.25,1.25c0,0.69036 -0.55964,1.25 -1.25,1.25c-0.18029,0 -0.35166,-0.03817 -0.50649,-0.10687c-0.09285,0.59865 -0.6105,1.05686 -1.23517,1.05686c-0.67678,0 -1.22794,-0.53785 -1.24935,-1.20944c-0.19735,-0.22102 -0.3173,-0.51261 -0.3173,-0.83223c0,-0.49993 0.29349,-0.93132 0.71756,-1.13126c-0.0544,-0.14019 -0.08425,-0.29264 -0.08425,-0.45206z" fill="#e8ad8d" stroke="none" stroke-width="0.5" stroke-linecap="butt"/><path d="M261.41563,199.5104c0,-0.69036 0.55964,-1.25 1.25,-1.25c0.69036,0 1.25,0.55964 1.25,1.25c0,0.69036 -0.55964,1.25 -1.25,1.25c-0.69036,0 -1.25,-0.55964 -1.25,-1.25z" fill="#e8ad8d" stroke="none" stroke-width="0.5" stroke-linecap="butt"/><path d="M268.3656,196.99373c0.69036,0 1.25,0.55964 1.25,1.25c0,0.69036 -0.55964,1.25 -1.25,1.25c-0.44764,0 -0.84033,-0.23531 -1.06112,-0.58898c-0.15891,0.07317 -0.33579,0.11398 -0.52221,0.11398c-0.12283,0 -0.24152,-0.01772 -0.35366,-0.05073c0.01335,0.07322 0.02033,0.14866 0.02033,0.22573c0,0.69036 -0.55964,1.25 -1.25,1.25c-0.69036,0 -1.25,-0.55964 -1.25,-1.25c0,-0.69036 0.55964,-1.25 1.25,-1.25c0.12283,0 0.24152,0.01772 0.35366,0.05073c-0.01335,-0.07322 -0.02033,-0.14866 -0.02033,-0.22573c0,-0.69036 0.55964,-1.25 1.25,-1.25c0.44764,0 0.84033,0.23531 1.06112,0.58898c0.15891,-0.07317 0.33579,-0.11398 0.52221,-0.11398z" fill="#e8ad8d" stroke="none" stroke-width="0.5" stroke-linecap="butt"/><path d="M243.98239,201.11037c0.69036,0 1.25,0.55964 1.25,1.25c0,0.69036 -0.55964,1.25 -1.25,1.25c-0.26497,0 -0.51069,-0.08244 -0.71289,-0.22308c-0.22557,0.32611 -0.60221,0.53975 -1.02875,0.53975c-0.69036,0 -1.25,-0.55964 -1.25,-1.25c0,-0.69036 0.55964,-1.25 1.25,-1.25c0.26497,0 0.51069,0.08244 0.71289,0.22308c0.22557,-0.32611 0.60221,-0.53975 1.02875,-0.53975z" fill="#e8ad8d" stroke="none" stroke-width="0.5" stroke-linecap="butt"/><path d="M266.00727,201.88538c0,-0.69036 0.55964,-1.25 1.25,-1.25c0.69036,0 1.25,0.55964 1.25,1.25c0,0.69036 -0.55964,1.25 -1.25,1.25c-0.69036,0 -1.25,-0.55964 -1.25,-1.25z" fill="#e8ad8d" stroke="none" stroke-width="0.5" stroke-linecap="butt"/><path d="M259.48233,196.34374c0,0.24946 -0.07307,0.48185 -0.19898,0.67693c0.56589,0.11941 0.99064,0.62163 0.99064,1.22306c0,0.69036 -0.55964,1.25 -1.25,1.25c-0.69036,0 -1.25,-0.55964 -1.25,-1.25c0,-0.24946 0.07307,-0.48185 0.19898,-0.67693c-0.29061,-0.06132 -0.544,-0.22361 -0.72175,-0.44844c-0.67598,-0.01651 -1.21889,-0.56966 -1.21889,-1.24962c0,-0.69036 0.55964,-1.25 1.25,-1.25c0.39779,0 0.75218,0.18581 0.98112,0.47538c0.67598,0.01651 1.21889,0.56966 1.21889,1.24962z" fill="#e8ad8d" stroke="none" stroke-width="0.5" stroke-linecap="butt"/></g></g></svg>