<svg version="1.1" xmlns="http://www.w3.org/2000/svg" xmlns:xlink="http://www.w3.org/1999/xlink" width="44.49837" height="61.30661" viewBox="0,0,44.49837,61.30661"><g transform="translate(-232.24251,-170.16434)"><g data-paper-data="{&quot;isPaintingLayer&quot;:true}" fill-rule="nonzero" stroke-linejoin="miter" stroke-miterlimit="10" stroke-dasharray="" stroke-dashoffset="0" style="mix-blend-mode: normal"><path d="M273.52171,181.29394c0,2.78192 -8.74741,5.03711 -19.53788,5.03711c-10.79047,0 -19.53788,-2.25519 -19.53788,-5.03711c0,-2.78192 8.74741,-5.03711 19.53788,-5.03711c10.79047,0 19.53788,2.25519 19.53788,5.03711z" fill="#cecece" stroke="#cecece" stroke-width="0.5" stroke-linecap="butt"/><path d="M235.69323,171.91435l11.95373,0.59893l7.32649,15.5724" fill="none" stroke="#e70000" stroke-width="3.5" stroke-linecap="round"/><path d="M272.80174,222.97767c0,3.7319 -8.22607,7.49328 -18.56884,7.49328c-10.34275,0 -18.88562,-4.14747 -18.88562,-7.87941c0,-2.51132 -5.08418,-40.99872 0.55115,-42.16355c2.73899,-0.56615 14.79327,5.28826 18.1761,5.28826c4.02499,0 12.3517,-7.13715 17.76408,-4.35887c8.17782,4.19784 0.96314,39.34066 0.96314,41.62025z" fill="#e6e6e6" stroke="#cecece" stroke-width="2" stroke-linecap="butt"/><path d="M239.86283,227.04389l0.62562,-11.41143l11.98201,0.6569l-0.62562,11.41143z" fill="#d6eced" stroke="#bed3d3" stroke-width="1.5" stroke-linecap="butt"/><path d="M260.46597,227.46094l-3.88427,-10.74824l11.28565,-4.07849l3.88427,10.74824z" fill="#d6eced" stroke="#bed3d3" stroke-width="1.5" stroke-linecap="butt"/><path d="M243.86218,217.32212l2.7786,-11.08565l11.63993,2.91752l-2.7786,11.08565z" fill="#d6eced" stroke="#bed3d3" stroke-width="1.5" stroke-linecap="butt"/><path d="M261.51358,218.60381l-3.88427,-10.74824l11.28565,-4.07849l3.88427,10.74824z" fill="#d6eced" stroke="#bed3d3" stroke-width="1.5" stroke-linecap="butt"/><path d="M255.08501,211.98475l-3.88427,-10.74824l11.28565,-4.07849l3.88427,10.74824z" fill="#d6eced" stroke="#bed3d3" stroke-width="1.5" stroke-linecap="butt"/></g></g></svg>