<svg version="1.1" xmlns="http://www.w3.org/2000/svg" xmlns:xlink="http://www.w3.org/1999/xlink" width="52.60781" height="15.79523" viewBox="0,0,52.60781,15.79523"><g transform="translate(-213.6961,-172.10238)"><g data-paper-data="{&quot;isPaintingLayer&quot;:true}" fill-rule="nonzero" stroke="none" stroke-width="1" stroke-linecap="butt" stroke-linejoin="miter" stroke-miterlimit="10" stroke-dasharray="" stroke-dashoffset="0" style="mix-blend-mode: normal"><g><path d="M239.36642,187.52155c-16.02013,-1.12818 -27.52754,-0.75212 -25.42161,-8.19809c2.10593,-7.44597 23.31568,-7.22034 32.64195,-7.22034c9.32627,0 20.83369,4.21186 19.47987,11.28178c-0.82733,3.76059 -21.36017,4.51271 -26.70021,4.13665z" fill="#e8ae68"/><path d="M265.99142,183.3849c-0.75212,3.76059 -21.28496,4.51271 -26.77542,4.13665c-13.61335,-0.97775 -23.99258,-0.82733 -25.42161,-5.41525c1.20339,-0.15042 2.03072,-0.37606 2.93326,0.37606c1.05297,0.82733 3.68538,2.63242 6.24258,1.8803c2.5572,-0.75212 3.45975,0.15042 5.03919,0.15042c1.57945,0 1.65466,-0.45127 3.45975,-0.45127c1.72987,0 6.9947,1.8803 8.57415,1.50424c1.57945,-0.37606 2.5572,-0.52648 3.53496,-0.37606c0.97775,0.15042 3.83581,0.52648 5.34004,-0.30085c1.42903,-0.82733 7.06992,0.37606 8.19809,-0.15042c1.12818,-0.52648 2.18114,-0.60169 3.45975,-0.60169c1.05297,0 3.91102,-1.42903 5.56568,-1.8803c0,0.37606 -0.07521,0.75212 -0.15042,1.12818z" fill="#d69a51"/><path d="M231.77002,172.55439c-2.70763,2.63242 -4.4375,6.09216 -4.4375,6.09216c-0.67691,-2.63242 -0.22564,-4.4375 0.52648,-5.7161c1.2786,-0.22564 2.5572,-0.30085 3.91102,-0.37606z" fill="#f2c083"/><path d="M237.26049,178.57134c-0.82733,-3.08369 0,-5.11441 0.97775,-6.39301c1.35381,-0.07521 2.70763,-0.07521 3.91102,-0.07521c-3.00847,2.63242 -4.88877,6.46822 -4.88877,6.46822z" fill="#f2c083"/><path d="M246.58676,179.02261c-0.90254,-3.53496 0.22564,-5.64089 1.35381,-6.84428c1.12818,0 2.33157,0.15042 3.53496,0.30085c-2.93326,2.63242 -4.88877,6.46822 -4.88877,6.54343z" fill="#f2c083"/><path d="M219.05922,185.64126c0,0 0.90254,0.15042 2.5572,0.37606c1.57945,0.22564 3.91102,0.45127 6.69386,0.67691c2.78284,0.22564 6.01695,0.37606 9.47669,0.52648c1.72987,0.07521 3.53496,0.15042 5.34004,0.15042c1.80508,0 3.68538,-0.07521 5.49047,-0.15042c3.68538,-0.15042 7.37076,-0.52648 10.83051,-1.12818c1.72987,-0.30085 3.30932,-0.67691 4.81356,-1.2786c0.67691,-0.30085 1.42903,-0.75212 1.65466,-1.35381c0.07521,-0.67691 0.07521,-1.42903 0,-2.10593c-0.15042,-1.35381 -0.82733,-2.48199 -1.57945,-3.30932c-0.75212,-0.82733 -1.50424,-1.42903 -2.18114,-1.8803c-0.67691,-0.45127 -1.20339,-0.75212 -1.57945,-0.97775c-0.37606,-0.22564 -0.60169,-0.30085 -0.60169,-0.30085c0,0 0.22564,0.07521 0.60169,0.30085c0.37606,0.22564 0.97775,0.45127 1.65466,0.90254c0.67691,0.45127 1.50424,0.97775 2.25636,1.80508c0.75212,0.82733 1.50424,1.95551 1.72987,3.38453c0.07521,0.67691 0.15042,1.42903 0,2.25636c-0.15042,0.45127 -0.45127,0.75212 -0.75212,0.97775c-0.30085,0.22564 -0.67691,0.45127 -1.05297,0.60169c-1.50424,0.67691 -3.1589,1.05297 -4.88877,1.42903c-3.45975,0.67691 -7.14513,0.97775 -10.83051,1.20339c-1.8803,0.07521 -3.76059,0.15042 -5.64089,0.15042c-1.80508,0 -3.61017,-0.07521 -5.34004,-0.15042c-3.45975,-0.15042 -6.69386,-0.37606 -9.47669,-0.67691c-2.78284,-0.30085 -5.03919,-0.60169 -6.69386,-0.90254c-1.57945,-0.30085 -2.48199,-0.52648 -2.48199,-0.52648z" fill="#ad7939"/><path d="M247.71494,184.51308c-0.97775,0.07521 -1.50424,-0.82733 -0.67691,-0.90254c0.82733,-0.07521 1.8803,0.82733 0.67691,0.90254z" fill="#d69a51"/><path d="M239.29121,184.88914c-0.97775,0.07521 0.07521,-0.60169 0.82733,-0.52648c0.75212,0.07521 0.07521,0.45127 -0.82733,0.52648z" fill="#d69a51"/><path d="M256.43952,184.36266c-0.82733,0.07521 -0.67691,-1.35381 1.05297,-1.35381c1.72987,0 0.22564,1.2786 -1.05297,1.35381z" fill="#d69a51"/><path d="M255.16091,183.61054c-0.90254,0.45127 -1.12818,0.30085 -0.90254,-0.07521c0.22564,-0.37606 1.35381,-0.15042 0.90254,0.07521z" fill="#d69a51"/><path d="M221.39079,183.76096c-1.35381,0.07521 -2.63242,-0.97775 -1.42903,-1.05297c1.20339,-0.07521 2.33157,0.97775 1.42903,1.05297z" fill="#d69a51"/><path d="M222.81981,183.76096c-0.67691,-0.15042 -0.90254,-1.05297 -0.30085,-1.05297c0.60169,0 1.05297,1.20339 0.30085,1.05297z" fill="#d69a51"/><path d="M235.15456,184.43787c-0.67691,0.22564 -0.97775,-0.67691 -0.22564,-0.67691c0.75212,0 0.67691,0.52648 0.22564,0.67691z" fill="#d69a51"/><path d="M264.18634,182.18151c-0.90254,0 -0.45127,-0.97775 0.37606,-0.97775c0.82733,0 0.52648,0.97775 -0.37606,0.97775z" fill="#d69a51"/></g><g fill="#d69a51"><path d="M237.26049,178.57134c0,0 0.22564,-0.45127 0.52648,-1.12818c0.37606,-0.67691 0.90254,-1.57945 1.50424,-2.40678c0.60169,-0.82733 1.2786,-1.65466 1.80508,-2.18114c0.60169,-0.45127 1.05297,-0.75212 1.05297,-0.75212c0,0 -0.07521,0.07521 -0.22564,0.30085c-0.15042,0.15042 -0.37606,0.37606 -0.60169,0.67691c-0.45127,0.60169 -1.05297,1.42903 -1.65466,2.25636c-0.60169,0.82733 -1.20339,1.65466 -1.65466,2.25636c-0.45127,0.60169 -0.75212,0.97775 -0.75212,0.97775z"/><path d="M227.33252,178.57134c0,0 0.15042,-0.45127 0.52648,-1.05297c0.30085,-0.60169 0.82733,-1.42903 1.35381,-2.25636c0.52648,-0.75212 1.12818,-1.50424 1.65466,-2.03072c0.52648,-0.52648 0.90254,-0.75212 0.90254,-0.75212c0,0 -0.07521,0.07521 -0.22564,0.22564c-0.15042,0.15042 -0.30085,0.37606 -0.52648,0.67691c-0.37606,0.60169 -0.97775,1.35381 -1.50424,2.10593c-0.52648,0.75212 -1.05297,1.50424 -1.50424,2.10593c-0.37606,0.60169 -0.67691,0.97775 -0.67691,0.97775z"/></g></g></g></svg>