<svg version="1.1" xmlns="http://www.w3.org/2000/svg" xmlns:xlink="http://www.w3.org/1999/xlink" width="86.61128" height="80.78349" viewBox="0,0,86.61128,80.78349"><defs><linearGradient x1="243.3691" y1="220.73195" x2="240.00001" y2="151.22055" gradientUnits="userSpaceOnUse" id="color-1"><stop offset="0" stop-color="#6b6b6b"/><stop offset="1" stop-color="#d4d4d4"/></linearGradient></defs><g transform="translate(-196.94428,-137.66191)"><g data-paper-data="{&quot;isPaintingLayer&quot;:true}" fill-rule="nonzero" stroke-linejoin="miter" stroke-miterlimit="10" stroke-dasharray="" stroke-dashoffset="0" style="mix-blend-mode: normal"><path d="M278.86712,149.64605l-1.43195,10.15539c-0.16327,0.05604 -0.33426,0.08807 -0.51558,0.08872c-3.05033,0.01095 -6.06489,0.6729 -9.10707,0.89603c-13.93361,1.02197 -28.33071,-0.02516 -42.29111,-0.02516c-7.23203,0 -14.46406,0 -21.69609,0l-2.14151,-10.96814c0,0 23.28519,-8.96752 37.47815,-8.73665c14.03024,0.22822 39.70515,8.46681 39.70515,8.46681z" data-paper-data="{&quot;index&quot;:null}" fill="#000000" stroke="#000000" stroke-width="1" stroke-linecap="butt"/><path d="M199.46176,150.48158c0,0 16.74534,-6.37904 30.69627,-9.22582c4.03437,-0.82324 7.7216,-1.35109 10.84276,-1.34386c14.05119,0.03256 40.30477,11.52078 40.30477,11.52078" fill="none" stroke="#000000" stroke-width="4.5" stroke-linecap="round"/><path d="M200.04775,150.91307c0,0 16.50827,-6.24285 30.26171,-9.02885c3.97725,-0.80566 7.61229,-1.32224 10.68926,-1.31516c13.85227,0.03187 39.73417,11.27482 39.73417,11.27482" fill="none" stroke="#d1d1d1" stroke-width="4.5" stroke-linecap="round"/><path d="M282.33763,151.90923l-10.52823,57.55891c0,0 -19.97336,8.64257 -30.28407,8.47485c-9.48185,-0.15424 -29.30221,-9.44411 -29.30221,-9.44411l-14.56073,-57.96702c0,0 27.64643,10.46598 41.84203,10.69689c14.02747,0.22818 42.8332,-9.31952 42.8332,-9.31952z" data-paper-data="{&quot;index&quot;:null}" fill="url(#color-1)" stroke="#000000" stroke-width="1" stroke-linecap="butt"/><text transform="translate(216.21346,177.45024) scale(0.3216,0.3216)" font-size="40" xml:space="preserve" fill="#000000" fill-rule="nonzero" stroke="none" stroke-width="1" stroke-linecap="butt" stroke-linejoin="miter" stroke-miterlimit="10" stroke-dasharray="" stroke-dashoffset="0" font-family="Sans Serif" font-weight="normal" text-anchor="start" style="mix-blend-mode: normal"><tspan x="0" dy="0">im a bin</tspan></text><text transform="translate(222.74568,186.61776) rotate(80.86602) scale(0.5,0.5)" font-size="40" xml:space="preserve" fill="#000000" fill-rule="nonzero" stroke="none" stroke-width="1" stroke-linecap="butt" stroke-linejoin="miter" stroke-miterlimit="10" stroke-dasharray="" stroke-dashoffset="0" font-family="Sans Serif" font-weight="normal" text-anchor="start" style="mix-blend-mode: normal"><tspan x="0" dy="0">:D</tspan></text></g></g></svg>