<svg version="1.1" xmlns="http://www.w3.org/2000/svg" xmlns:xlink="http://www.w3.org/1999/xlink" width="116.4306" height="140.53055" viewBox="0,0,116.4306,140.53055"><g transform="translate(-186.4917,-203.77025)"><g data-paper-data="{&quot;isPaintingLayer&quot;:true}" fill-rule="nonzero" stroke-linecap="butt" stroke-linejoin="miter" stroke-miterlimit="10" stroke-dasharray="" stroke-dashoffset="0" style="mix-blend-mode: normal"><path d="M187.2417,342.48404v-137.96379h114.9306v137.96379z" fill="#be9d87" stroke="#ad8f7b" stroke-width="1.5"/><path d="M227.63021,343.55081v-138.57457h30.33728v138.57457z" fill="#cfc1b8" stroke="#aba098" stroke-width="1.5"/><g fill="#000000" stroke="none"><text transform="translate(198.33346,263.61242) scale(0.3091,0.3091)" font-size="40" xml:space="preserve" fill="#000000" fill-rule="nonzero" stroke="none" stroke-width="1" stroke-linecap="butt" stroke-linejoin="miter" stroke-miterlimit="10" stroke-dasharray="" stroke-dashoffset="0" font-family="Serif" font-weight="normal" text-anchor="start" style="mix-blend-mode: normal"><tspan x="0" dy="0">Package Forest </tspan></text><path d="M277.77892,273.81152c2.5,0 2.5,2.5 2.5,2.5v2.59055c0,0.23428 0.00385,9.23497 -0.01216,9.31325c-0.37545,1.83528 -0.38013,4.36379 -2.03711,5.23764c-1.56222,0.82387 -3.3712,-1.06351 -5.08747,-1.48032c-1.74225,-0.42311 -6.05911,-0.48425 -7.13963,-0.53502c0,0 -2.49717,-0.1189 -2.37827,-2.61607c0.11891,-2.49717 2.61607,-2.37827 2.61607,-2.37827c0.25539,0.01232 2.48449,0.06235 4.60845,0.20936l-0.43341,-0.5961c-1.03491,-0.81026 -2.06982,-1.62052 -3.10473,-2.43078c-2.87596,-3.4745 -6.41415,-3.79738 -10.52127,-5.11269c-12.1866,-3.90278 -24.44856,-2.84756 -36.32592,2.04477c-3.56839,1.46983 -6.75122,3.8722 -10.13685,5.72006c0,0 -2.19474,1.19712 -3.39186,-0.99763c-1.19712,-2.19475 0.99762,-3.39186 0.99762,-3.39186c3.54348,-1.93151 6.85351,-4.38869 10.58749,-5.93734c12.92601,-5.36102 26.46228,-6.46257 39.74387,-2.21567c4.85832,1.55349 8.9649,2.26694 12.49732,6.27171c0.90801,0.70089 1.81601,1.40178 2.72402,2.10267l1.63259,1.93592c0.0308,-1.71305 0.16124,-3.4329 0.16124,-5.14362v-2.59055c0,0 0,-2.5 2.5,-2.5zM276.03289,288.96139c0.37542,0.30117 -0.67674,-0.76188 -0.74181,-1.23876c-0.02157,-0.1581 -0.04084,-0.31637 -0.05799,-0.47478c-0.06821,0.07907 -0.14384,0.1577 -0.22749,0.23558c0.38651,0.42995 0.56724,1.10892 1.02728,1.47796z" stroke-width="0.5"/></g></g></g></svg>