<svg version="1.1" xmlns="http://www.w3.org/2000/svg" xmlns:xlink="http://www.w3.org/1999/xlink" width="51.94095" height="15.59501" viewBox="0,0,51.94095,15.59501"><g transform="translate(-214.02952,-172.2025)"><g data-paper-data="{&quot;isPaintingLayer&quot;:true}" fill-rule="nonzero" stroke="none" stroke-width="1" stroke-linecap="butt" stroke-linejoin="miter" stroke-miterlimit="10" stroke-dasharray="" stroke-dashoffset="0" style="mix-blend-mode: normal"><path d="M239.37445,187.42621c-15.81706,-1.11388 -27.1786,-0.74258 -25.09936,-8.09417c2.07924,-7.35159 23.02013,-7.12881 32.22818,-7.12881c9.20805,0 20.5696,4.15847 19.23294,11.13877c-0.81684,3.71292 -21.08941,4.45551 -26.36176,4.08422z" fill="#493c28"/><path d="M265.66195,183.342c-0.74258,3.71292 -21.01515,4.45551 -26.43602,4.08422c-13.44078,-0.96536 -23.68845,-0.81684 -25.09936,-5.34661c1.18814,-0.14852 2.00498,-0.37129 2.89608,0.37129c1.03962,0.81684 3.63867,2.59905 6.16345,1.85646c2.52479,-0.74258 3.41589,0.14852 4.97532,0.14852c1.55943,0 1.63369,-0.44555 3.41589,-0.44555c1.70794,0 6.90604,1.85646 8.46547,1.48517c1.55943,-0.37129 2.52479,-0.51981 3.49015,-0.37129c0.96536,0.14852 3.78718,0.51981 5.27235,-0.29703c1.41091,-0.81684 6.9803,0.37129 8.09417,-0.14852c1.11388,-0.51981 2.1535,-0.59407 3.41589,-0.59407c1.03962,0 3.86144,-1.41091 5.49513,-1.85646c0,0.37129 -0.07426,0.74258 -0.14852,1.11388z" fill="#3b3020"/><path d="M231.87435,172.64877c-2.67331,2.59905 -4.38125,6.01494 -4.38125,6.01494c-0.66833,-2.59905 -0.22278,-4.38125 0.51981,-5.64364c1.26239,-0.22278 2.52479,-0.29703 3.86144,-0.37129z" fill="#5f4d34"/><path d="M237.29522,178.58945c-0.81684,-3.0446 0,-5.04958 0.96536,-6.31197c1.33665,-0.07426 2.67331,-0.07426 3.86144,-0.07426c-2.97034,2.59905 -4.8268,6.38623 -4.8268,6.38623z" fill="#5f4d34"/><path d="M246.50327,179.035c-0.8911,-3.49015 0.22278,-5.56939 1.33665,-6.75752c1.11388,0 2.30201,0.14852 3.49015,0.29703c-2.89608,2.59905 -4.8268,6.38623 -4.8268,6.46049z" fill="#5f4d34"/><path d="M219.32467,185.56975c0,0 0.8911,0.14852 2.52479,0.37129c1.55943,0.22278 3.86144,0.44555 6.609,0.66833c2.74756,0.22278 5.94068,0.37129 9.35657,0.51981c1.70794,0.07426 3.49015,0.14852 5.27235,0.14852c1.7822,0 3.63867,-0.07426 5.42087,-0.14852c3.63867,-0.14852 7.27733,-0.51981 10.69322,-1.11388c1.70794,-0.29703 3.26737,-0.66833 4.75254,-1.26239c0.66833,-0.29703 1.41091,-0.74258 1.63369,-1.33665c0.07426,-0.66833 0.07426,-1.41091 0,-2.07924c-0.14852,-1.33665 -0.81684,-2.45053 -1.55943,-3.26737c-0.74258,-0.81684 -1.48517,-1.41091 -2.1535,-1.85646c-0.66833,-0.44555 -1.18814,-0.74258 -1.55943,-0.96536c-0.37129,-0.22278 -0.59407,-0.29703 -0.59407,-0.29703c0,0 0.22278,0.07426 0.59407,0.29703c0.37129,0.22278 0.96536,0.44555 1.63369,0.8911c0.66833,0.44555 1.48517,0.96536 2.22775,1.7822c0.74258,0.81684 1.48517,1.93072 1.70794,3.34163c0.07426,0.66833 0.14852,1.41091 0,2.22775c-0.14852,0.44555 -0.44555,0.74258 -0.74258,0.96536c-0.29703,0.22278 -0.66833,0.44555 -1.03962,0.59407c-1.48517,0.66833 -3.11886,1.03962 -4.8268,1.41091c-3.41589,0.66833 -7.05456,0.96536 -10.69322,1.18814c-1.85646,0.07426 -3.71292,0.14852 -5.56939,0.14852c-1.7822,0 -3.56441,-0.07426 -5.27235,-0.14852c-3.41589,-0.14852 -6.609,-0.37129 -9.35657,-0.66833c-2.74756,-0.29703 -4.97532,-0.59407 -6.609,-0.8911c-1.55943,-0.29703 -2.45053,-0.51981 -2.45053,-0.51981z" fill="#3b3020"/><path d="M247.61714,184.45587c-0.96536,0.07426 -1.48517,-0.81684 -0.66833,-0.8911c0.81684,-0.07426 1.85646,0.81684 0.66833,0.8911z" fill="#3b3020"/><path d="M239.3002,184.82716c-0.96536,0.07426 0.07426,-0.59407 0.81684,-0.51981c0.74258,0.07426 0.07426,0.44555 -0.81684,0.51981z" fill="#3b3020"/><path d="M256.23113,184.30736c-0.81684,0.07426 -0.66833,-1.33665 1.03962,-1.33665c1.70794,0 0.22278,1.26239 -1.03962,1.33665z" fill="#3b3020"/><path d="M254.96873,183.56477c-0.8911,0.44555 -1.11388,0.29703 -0.8911,-0.07426c0.22278,-0.37129 1.33665,-0.14852 0.8911,0.07426z" fill="#3b3020"/><path d="M221.62668,183.71329c-1.33665,0.07426 -2.59905,-0.96536 -1.41091,-1.03962c1.18814,-0.07426 2.30201,0.96536 1.41091,1.03962z" fill="#3b3020"/><path d="M223.03759,183.71329c-0.66833,-0.14852 -0.8911,-1.03962 -0.29703,-1.03962c0.59407,0 1.03962,1.18814 0.29703,1.03962z" fill="#3b3020"/><path d="M235.21598,184.38161c-0.66833,0.22278 -0.96536,-0.66833 -0.22278,-0.66833c0.74258,0 0.66833,0.51981 0.22278,0.66833z" fill="#3b3020"/><path d="M263.87975,182.15386c-0.8911,0 -0.44555,-0.96536 0.37129,-0.96536c0.81684,0 0.51981,0.96536 -0.37129,0.96536z" fill="#3b3020"/></g></g></svg>