<svg version="1.1" xmlns="http://www.w3.org/2000/svg" xmlns:xlink="http://www.w3.org/1999/xlink" width="90.0149" height="105.63117" viewBox="0,0,90.0149,105.63117"><g transform="translate(-195.71255,-127.18442)"><g data-paper-data="{&quot;isPaintingLayer&quot;:true}" fill-rule="nonzero" stroke-linejoin="miter" stroke-miterlimit="10" stroke-dasharray="" stroke-dashoffset="0" style="mix-blend-mode: normal"><path d="M229.19475,232.09558v-31.00771" fill="none" stroke="#e54529" stroke-width="1.44" stroke-linecap="round"/><path d="M242.31025,232.09558v-31.00771" fill="none" stroke="#e54529" stroke-width="1.44" stroke-linecap="round"/><g><path d="M276.20705,161.85815h8.0804" fill="none" stroke="#e54529" stroke-width="2.88" stroke-linecap="round"/><path d="M276.43917,158.80264c0,11.0308 -8.80888,19.97253 -19.67617,19.97253c-10.86584,0 -19.67617,-8.94172 -19.67617,-19.97253c0,-11.0308 8.81034,-19.97253 19.67617,-19.97253c10.8673,0 19.67617,8.94172 19.67617,19.97253" fill="#ffdb5d" stroke="none" stroke-width="1" stroke-linecap="butt"/><path d="M264.83172,158.80264c0,4.52123 -3.61319,8.18843 -8.06872,8.18843c-4.45553,0 -8.0658,-3.6672 -8.0658,-8.18843c0,-4.52269 3.61027,-8.18843 8.0658,-8.18843c4.45553,0 8.06872,3.66574 8.06872,8.18843" fill="#fff4e3" stroke="none" stroke-width="1" stroke-linecap="butt"/><path d="M262.0273,158.80264c0,2.95186 -2.35624,5.34314 -5.2643,5.34314c-2.90661,0 -5.2643,-2.39127 -5.2643,-5.34314c0,-2.95186 2.3577,-5.34314 5.2643,-5.34314c2.90807,0 5.2643,2.39127 5.2643,5.34314" fill="#17242d" stroke="none" stroke-width="1" stroke-linecap="butt"/><path d="M260.474,140.51772c-3.4307,0 -6.21176,-2.8234 -6.21176,-6.30665c0,-3.48326 2.78106,-6.30665 6.21176,-6.30665" fill="none" stroke="#ffdb5d" stroke-width="1.44" stroke-linecap="butt"/></g><path d="M269.18944,173.5824c0,20.59589 -16.44839,37.29247 -36.73918,37.29247c-20.28932,0 -36.73772,-16.69657 -36.73772,-37.29247z" fill="#ffdb5d" stroke="none" stroke-width="1" stroke-linecap="butt"/><path d="M244.29568,173.62765c0,9.50524 -7.59134,17.21191 -16.95643,17.21191c-9.36509,0 -16.95643,-7.70667 -16.95643,-17.21191z" fill="#fecb43" stroke="none" stroke-width="1" stroke-linecap="butt"/><path d="M195.71255,173.73568v-16.33598h18.23382c2.87887,0 5.66139,1.04527 7.84682,2.94894l15.42502,13.43084z" fill="#ffdb5d" stroke="none" stroke-width="1" stroke-linecap="butt"/></g></g></svg>