<svg version="1.1" xmlns="http://www.w3.org/2000/svg" xmlns:xlink="http://www.w3.org/1999/xlink" width="87" height="36.36257" viewBox="0,0,87,36.36257"><defs><radialGradient cx="283.33333" cy="179.6162" r="7.83333" gradientUnits="userSpaceOnUse" id="color-1"><stop offset="0" stop-color="#9e0000"/><stop offset="1" stop-color="#b60000"/></radialGradient><radialGradient cx="240" cy="184.84508" r="43" gradientUnits="userSpaceOnUse" id="color-2"><stop offset="0" stop-color="#b30000"/><stop offset="1" stop-color="#b40000"/></radialGradient><radialGradient cx="198" cy="179.15141" r="7.83334" gradientUnits="userSpaceOnUse" id="color-3"><stop offset="0" stop-color="#9e0000"/><stop offset="1" stop-color="#b60000"/></radialGradient><radialGradient cx="240.16667" cy="179.84859" r="42.83333" gradientUnits="userSpaceOnUse" id="color-4"><stop offset="0" stop-color="#b30000"/><stop offset="1" stop-color="#b30000"/></radialGradient><radialGradient cx="240" cy="174.15494" r="43" gradientUnits="userSpaceOnUse" id="color-5"><stop offset="0" stop-color="#de0000"/><stop offset="1" stop-color="#aa0000"/></radialGradient></defs><g transform="translate(-196.5,-159.63744)"><g data-paper-data="{&quot;isPaintingLayer&quot;:true}" fill-rule="nonzero" stroke-linejoin="miter" stroke-miterlimit="10" stroke-dasharray="" stroke-dashoffset="0" style="mix-blend-mode: normal"><path d="M282.66667,174.73592v10.92254" fill="#9e0000" stroke="url(#color-1)" stroke-width="0.5" stroke-linecap="round"/><path d="M240,196.00001c-23.74824,0 -43,-4.99423 -43,-11.15493c0,-6.1607 19.25176,-11.15493 43,-11.15493c23.74824,0 43,4.99423 43,11.15493c0,6.1607 -19.25176,11.15493 -43,11.15493z" fill="url(#color-2)" stroke="none" stroke-width="0" stroke-linecap="butt"/><path d="M197.25,174.50353l-0.16666,10.92254" fill="#8c0000" stroke="url(#color-3)" stroke-width="0.5" stroke-linecap="round"/><path d="M197.33333,186.35564v-13.01409h85.66667v13.01409z" fill="url(#color-4)" stroke="none" stroke-width="0" stroke-linecap="butt"/><path d="M240,185.30987c-23.74824,0 -43,-4.99423 -43,-11.15493c0,-6.1607 19.25176,-11.15493 43,-11.15493c23.74824,0 43,4.99423 43,11.15493c0,6.1607 -19.25176,11.15493 -43,11.15493z" fill="url(#color-5)" stroke="#8e0000" stroke-width="1" stroke-linecap="butt"/><text transform="translate(233.4418,166.62613) rotate(69.39403) scale(0.44628,0.44628)" font-size="40" xml:space="preserve" fill="#000000" fill-rule="nonzero" stroke="none" stroke-width="1" stroke-linecap="butt" stroke-linejoin="miter" stroke-miterlimit="10" stroke-dasharray="" stroke-dashoffset="0" font-family="Sans Serif" font-weight="normal" text-anchor="start" style="mix-blend-mode: normal"><tspan x="0" dy="0">:D</tspan></text></g></g></svg>