<svg version="1.1" xmlns="http://www.w3.org/2000/svg" xmlns:xlink="http://www.w3.org/1999/xlink" width="286.26161" height="124.62914" viewBox="0,0,286.26161,124.62914"><g transform="translate(-96.86919,-117.68543)"><g data-paper-data="{&quot;isPaintingLayer&quot;:true}" fill="#696969" fill-rule="nonzero" stroke="none" stroke-width="0" stroke-linecap="butt" stroke-linejoin="miter" stroke-miterlimit="10" stroke-dasharray="" stroke-dashoffset="0" style="mix-blend-mode: normal"><path d="M97.00193,196.71893c0,0 -0.78993,-1.97105 1.48425,-6.31931c8.6809,-16.59802 30.12685,-57.603 35.30318,-67.50021c2.1938,-4.19458 5.08436,-5.00581 5.08436,-5.00581c0,0 3.24846,-0.82396 6.36772,0.8067c9.46446,4.94776 53.56446,28.73241 68.93813,36.76935c2.94546,1.53981 4.41117,4.13535 4.41117,4.13535c0,0 1.38201,3.15994 -0.85871,7.44421c-4.67234,8.93358 -22.30026,42.63843 -32.13292,61.4386c-4.01699,7.68055 -6.93978,8.09719 -6.93978,8.09719c0,0 -5.11258,1.99546 -10.12376,-0.62425c-10.46984,-5.47335 -49.65731,-25.9595 -66.23774,-34.6273c-4.61932,-2.41486 -5.29589,-4.61452 -5.29589,-4.61452z"/><path d="M304.28887,242.23028c0,0 -2.07469,-0.45244 -4.39719,-4.77508c-8.86536,-16.50023 -30.76701,-57.26363 -36.05332,-67.10253c-2.24041,-4.16986 -1.28954,-7.01754 -1.28954,-7.01754c0,0 -0.36332,-2.86244 2.73695,-4.52892c9.40685,-5.05642 55.34746,-28.49571 70.62756,-36.70915c2.92753,-1.57362 5.89836,-1.33 5.89836,-1.33c0,0 3.39097,0.62965 5.6793,4.88869c4.77162,8.88095 22.77411,42.38723 32.81569,61.07665c4.10235,7.6353 2.52676,11.20014 2.52676,11.20014c0,0 -0.93779,4.43943 -5.91847,7.11667c-10.40612,5.59355 -49.35508,26.52961 -65.83459,35.38777c-4.59121,2.46789 -6.79149,1.79332 -6.79149,1.79332z"/></g></g></svg>