<svg version="1.1" xmlns="http://www.w3.org/2000/svg" xmlns:xlink="http://www.w3.org/1999/xlink" width="34.61129" height="38.87346" viewBox="0,0,34.61129,38.87346"><g transform="translate(-234.75374,-148.66517)"><g data-paper-data="{&quot;isPaintingLayer&quot;:true}" fill="#aaaaaa" fill-rule="nonzero" stroke="none" stroke-linecap="butt" stroke-linejoin="miter" stroke-miterlimit="10" stroke-dasharray="" stroke-dashoffset="0" style="mix-blend-mode: normal"><path d="M245.51909,178.59951c-1.0111,-0.039 -1.79914,-0.8902 -1.76014,-1.9013l0.22098,-5.7283c0.039,-1.0111 0.89028,-1.79914 1.90138,-1.76013c1.01102,0.039 1.79905,0.89028 1.76005,1.90138l-0.22098,5.7283c-0.039,1.0111 -0.89028,1.79905 -1.90129,1.76005z" stroke-width="1"/><path d="M242.95691,187.4747c-0.97679,-0.26405 -1.55461,-1.26987 -1.29056,-2.24666l1.49594,-5.53393c0.26405,-0.97679 1.26995,-1.55458 2.24674,-1.29054c0.97671,0.26403 1.55451,1.26993 1.29046,2.24672l-1.49594,5.53393c-0.26405,0.97679 -1.26992,1.55451 -2.24663,1.29048z" stroke-width="1"/><path d="M253.74531,178.55532c-0.96764,0.29583 -1.99186,-0.2487 -2.28769,-1.21634l-1.67599,-5.48209c-0.29583,-0.96764 0.24878,-1.99188 1.21642,-2.28771c0.96756,-0.2958 1.99181,0.24881 2.28764,1.21645l1.67599,5.48209c0.29583,0.96764 -0.24881,1.99181 -1.21637,2.28761z" stroke-width="1"/><path d="M256.53031,187.32081c-0.97277,0.27848 -1.9871,-0.28427 -2.26558,-1.25704l-1.57772,-5.51117c-0.27848,-0.97277 0.28435,-1.98712 1.25712,-2.2656c0.97269,-0.27846 1.98704,0.28437 2.26552,1.25714l1.57772,5.51117c0.27848,0.97277 -0.28437,1.98704 -1.25706,2.2655z" stroke-width="1"/><path d="M243.93568,169.20967c0,0 -0.44966,-0.10833 -0.62207,-0.80144c-0.52271,-2.10137 -1.60179,-6.47323 -1.80628,-7.56788c-0.08248,-0.44153 -0.06698,-0.8669 0.28911,-1.20096c0.35609,-0.33406 0.62929,-0.33777 1.3511,-0.33777c1.496,0 7.09732,0 10.02065,0c1.08528,0 1.16366,-0.12657 1.56543,0.45037c0.40177,0.57693 0.01527,0.95873 -0.16246,1.85728c-0.264,1.33464 -1.01917,4.85948 -1.40111,6.79037c-0.13782,0.69676 -0.45222,0.92264 -0.45222,0.92264c0,0 -0.2179,0.22518 -0.90073,0.22518c-1.95013,0 -5.85579,0 -6.98068,0c-0.59364,0 -0.90073,-0.33777 -0.90073,-0.33777z" stroke-width="0"/><path d="M237.52237,169.25263c-0.94389,-0.36457 -1.41355,-1.42521 -1.04899,-2.3691l2.06544,-5.34754c0.36457,-0.94389 1.42529,-1.41353 2.36918,-1.04895c0.94382,0.36454 1.41344,1.42526 1.04888,2.36915l-2.06544,5.34754c-0.36457,0.94389 -1.42526,1.41344 -2.36907,1.04891z" stroke-width="1"/><path d="M236.33622,177.95449c-1.0024,-0.138 -1.70314,-1.0624 -1.56514,-2.06479l0.78183,-5.67899c0.138,-1.0024 1.06248,-1.70312 2.06487,-1.56513c1.00231,0.13799 1.70305,1.06247 1.56505,2.06486l-0.78183,5.67899c-0.138,1.0024 -1.06246,1.70305 -2.06477,1.56506z" stroke-width="1"/><path d="M261.62913,167.39398c-0.71835,0.71261 -1.87831,0.70802 -2.59093,-0.01032l-4.03725,-4.06975c-0.71261,-0.71835 -0.70797,-1.87838 0.01039,-2.59098c0.71829,-0.71256 1.87831,-0.7079 2.59093,0.01044l4.03725,4.06975c0.71261,0.71835 0.7079,1.87831 -0.01038,2.59087z" stroke-width="1"/><path d="M269.08725,172.03141c-0.53545,0.85857 -1.66546,1.12055 -2.52402,0.58511l-4.86415,-3.03353c-0.85857,-0.53545 -1.1205,-1.66552 -0.58507,-2.52409c0.5354,-0.85849 1.66548,-1.12044 2.52405,-0.585l4.86415,3.03353c0.85857,0.53545 1.12045,1.66547 0.58504,2.52397z" stroke-width="1"/><path d="M253.61464,154.22767c0,3.07208 -2.49042,5.5625 -5.5625,5.5625c-3.07208,0 -5.5625,-2.49042 -5.5625,-5.5625c0,-3.07208 2.49042,-5.5625 5.5625,-5.5625c3.07208,0 5.5625,2.49042 5.5625,5.5625z" stroke-width="0"/></g></g></svg>