<svg version="1.1" xmlns="http://www.w3.org/2000/svg" xmlns:xlink="http://www.w3.org/1999/xlink" width="154.27219" height="277.88319" viewBox="0,0,154.27219,277.88319"><g transform="translate(-324.91681,-40.48797)"><g data-paper-data="{&quot;isPaintingLayer&quot;:true}" fill-rule="nonzero" stroke-linejoin="miter" stroke-miterlimit="10" stroke-dasharray="" stroke-dashoffset="0" style="mix-blend-mode: normal"><path d="M410.22642,308.47498c0,0 -83.60505,-86.78867 -83.90069,-129.84664c-0.30808,-44.86794 82.08798,-134.15471 82.08798,-134.15471" fill="none" stroke="#fce700" stroke-width="1" stroke-linecap="round"/><g fill="#e1cf00" stroke="#e1cf00" stroke-width="10" stroke-linecap="round"><path d="M407.42826,45.48797l40.87675,60.41599l12.05307,72.83354"/><path d="M460.52128,178.76804l-10.16029,71.15635l-39.22598,63.44676" data-paper-data="{&quot;index&quot;:null}"/></g><path d="M449.06748,208.45803c0,0 4.0778,-22.34043 3.90998,-33.96001c-0.15341,-10.6217 -4.18229,-26.44236 -4.18229,-26.44236l14.3263,-5.20744c0,0 0.60695,1.38703 0.07884,2.60764c-0.54476,1.25908 -2.61695,2.58415 -2.26441,4.30281c1.52564,7.43776 6.9629,19.18288 7.0458,24.92268c0.124,8.58572 -3.13763,25.27964 -3.59583,32.88002c-0.06731,1.11642 1.81311,1.06239 2.63694,1.80198c1.12199,1.00725 0.09481,2.43435 0.09481,2.43435z" fill="#e1cf00" stroke="#e1cf00" stroke-width="0" stroke-linecap="butt"/><path d="M357.79747,179.86947l101.99456,1.05321" fill="none" stroke="#dcdcdc" stroke-width="2" stroke-linecap="round"/><path d="M458.01692,187.59573l0.51804,-13.38528l17.78032,6.86294z" fill="#dcdcdc" stroke="#dcdcdc" stroke-width="2" stroke-linecap="butt"/><g fill="#dcdcdc" stroke="#dcdcdc" stroke-width="2" stroke-linecap="butt"><path d="M363.85376,180.42561l-11.32768,8.63992l-0.41161,-5.72863l-10.30666,4.93705l-2.4569,-5.37497l-11.71886,5.22045l5.28416,-8.02237z"/><path d="M332.92499,179.24502l-5.11737,-8.12977l11.60856,5.46133l2.56737,-5.32308l10.20252,5.14884l0.52982,-5.71891l11.14686,8.87199z" data-paper-data="{&quot;index&quot;:null}"/></g></g></g></svg>