<svg version="1.1" xmlns="http://www.w3.org/2000/svg" xmlns:xlink="http://www.w3.org/1999/xlink" width="229.57349" height="129.37357" viewBox="0,0,229.57349,129.37357"><g transform="translate(-125.21326,-115.31321)"><g data-paper-data="{&quot;isPaintingLayer&quot;:true}" fill="#696969" fill-rule="nonzero" stroke="none" stroke-width="0" stroke-linecap="butt" stroke-linejoin="miter" stroke-miterlimit="10" stroke-dasharray="" stroke-dashoffset="0" style="mix-blend-mode: normal"><path d="M260.98136,240.7441c0,0 -1.60375,-1.39177 -1.56938,-6.29871c0.1312,-18.73059 0.45531,-65.00404 0.53354,-76.17288c0.03316,-4.73351 2.23295,-6.77663 2.23295,-6.77663c0,0 1.05358,-2.68617 4.57327,-2.66217c10.67946,0.07282 62.23348,1.52981 79.58076,1.6481c3.32358,0.02266 5.81388,1.66083 5.81388,1.66083c0,0 2.67391,2.17839 2.64004,7.01312c-0.07061,10.0814 -0.33703,48.11677 -0.48564,69.33247c-0.06071,8.66737 -1.72663,11.81939 -1.72663,11.81939c0,0 -4.37742,2.6672 -10.03192,2.62865c-11.81392,-0.08056 -56.03212,-0.38211 -74.74107,-0.50968c-5.21233,-0.03555 -6.81979,-1.68246 -6.81979,-1.68246z"/><path d="M127.3716,241.67255c0,0 -2.20485,-1.91342 -2.1576,-8.65951c0.18037,-25.75096 0.62596,-89.36805 0.73351,-104.72306c0.04558,-6.50767 3.06987,-9.31657 3.06987,-9.31657c0,0 1.44847,-3.69297 6.28737,-3.65998c14.68221,0.10012 85.55907,2.10319 109.40824,2.26582c4.56929,0.03116 7.99296,2.28333 7.99296,2.28333c0,0 3.67611,2.99486 3.62955,9.64169c-0.09708,13.85999 -0.46335,66.1513 -0.66765,95.3188c-0.08346,11.91597 -2.91542,15.16613 -2.91542,15.16613c0,0 -5.47648,4.75015 -13.25033,4.69714c-16.24187,-0.11076 -77.03339,-0.52532 -102.7546,-0.70072c-7.16596,-0.04887 -9.37591,-2.31307 -9.37591,-2.31307z"/></g></g></svg>