<svg version="1.1" xmlns="http://www.w3.org/2000/svg" xmlns:xlink="http://www.w3.org/1999/xlink" width="64.55194" height="277.90386" viewBox="0,0,64.55194,277.90386"><g transform="translate(-399.02791,-41.56802)"><g data-paper-data="{&quot;isPaintingLayer&quot;:true}" fill-rule="nonzero" stroke-linejoin="miter" stroke-miterlimit="10" stroke-dasharray="" stroke-dashoffset="0" style="mix-blend-mode: normal"><path d="M405.02119,45.56135l-0.23159,264.00747" fill="none" stroke="#fce700" stroke-width="1" stroke-linecap="round"/><g fill="#e1cf00" stroke="#e1cf00" stroke-width="10" stroke-linecap="round"><path d="M404.02791,46.56802l40.4077,60.7307l11.48874,72.92468"/><path d="M456.08731,180.25522l-10.71097,71.07554l-39.71609,63.14112" data-paper-data="{&quot;index&quot;:null}"/></g><path d="M444.40395,209.85563c0,0 4.25067,-22.30818 4.17283,-33.92871c-0.07116,-10.62257 -3.97742,-26.47395 -3.97742,-26.47395l14.36619,-5.09635c0,0 0.59619,1.39168 0.05864,2.60818c-0.5545,1.25483 -2.63688,2.56381 -2.29766,4.28515c1.468,7.44935 6.81415,19.23622 6.8526,24.97649c0.05752,8.58642 -3.33329,25.25458 -3.85032,32.85119c-0.07595,1.11586 1.80482,1.07639 2.6229,1.82235c1.11416,1.01591 0.07596,2.43501 0.07596,2.43501z" fill="#e1cf00" stroke="#e1cf00" stroke-width="0" stroke-linecap="butt"/></g></g></svg>