<svg version="1.1" xmlns="http://www.w3.org/2000/svg" xmlns:xlink="http://www.w3.org/1999/xlink" width="458.65277" height="277.90529" viewBox="0,0,458.65277,277.90529"><defs><radialGradient cx="380.34768" cy="189.1821" r="89.01366" gradientUnits="userSpaceOnUse" id="color-1"><stop offset="0" stop-color="#888888"/><stop offset="1" stop-color="#888888" stop-opacity="0"/></radialGradient></defs><g transform="translate(-10.72346,-41.52748)"><g data-paper-data="{&quot;isPaintingLayer&quot;:true}" fill-rule="nonzero" stroke-linejoin="miter" stroke-miterlimit="10" stroke-dasharray="" stroke-dashoffset="0" style="mix-blend-mode: normal"><path d="M69.15759,315.4385l0.48274,-264.00713" fill="none" stroke="#fce700" stroke-width="1" stroke-linecap="round"/><g fill="#e1cf00" stroke="#e1cf00" stroke-width="10" stroke-linecap="round"><path d="M70.15183,314.43277l-40.34991,-60.76911l-11.41936,-72.93558"/><path d="M18.21963,180.69611l10.77858,-71.06532l39.77614,-63.10331" data-paper-data="{&quot;index&quot;:null}"/></g><path d="M29.93114,151.10683c0,0 -4.27189,22.30413 -4.2051,33.92473c0.06105,10.62263 3.95223,26.47772 3.95223,26.47772l-14.37103,5.08268c0,0 -0.59487,-1.39225 -0.05616,-2.60823c0.55569,-1.2543 2.63932,-2.5613 2.30174,-4.28296c-1.46091,-7.45074 -6.79585,-19.24269 -6.82884,-24.983c-0.04935,-8.58647 3.35731,-25.2514 3.88157,-32.84751c0.07701,-1.11579 -1.8038,-1.07811 -2.62117,-1.82484c-1.11319,-1.01697 -0.07364,-2.43508 -0.07364,-2.43508z" fill="#e1cf00" stroke="#e1cf00" stroke-width="0" stroke-linecap="butt"/><path d="M383.83286,100.16268c0.67385,0.11115 0.54707,0.59165 1.52755,1.652c6.09811,6.59492 28.96148,31.32098 41.24379,44.60395c12.39935,13.40953 35.58235,38.48126 41.41352,44.7875c0.87367,0.94484 1.3364,0.68821 1.35782,1.46844c0.02142,0.78023 -0.45659,0.42219 -1.28488,1.18809c-5.77511,5.34005 -29.61996,27.3886 -42.76839,39.54652c-13.77374,12.73613 -40.46004,37.41207 -46.99016,43.45025c-0.9455,0.87428 -1.46844,1.35782 -1.46844,1.35782c0,0 -0.41544,-0.44929 -1.18809,-1.28488c-9.80498,-10.6038 -77.1343,-83.41846 -82.99677,-89.75855c-0.80321,-0.86865 -1.38835,-0.68851 -1.35782,-1.46844c0.03053,-0.77993 0.5998,-0.55462 1.46844,-1.35782c6.34009,-5.86247 79.15476,-73.1918 89.75855,-82.99677c0.8356,-0.77266 0.61103,-1.29924 1.28488,-1.18809z" fill="url(#color-1)" stroke="none" stroke-width="NaN" stroke-linecap="butt"/></g></g></svg>