<svg version="1.1" xmlns="http://www.w3.org/2000/svg" xmlns:xlink="http://www.w3.org/1999/xlink" width="187.74791" height="210.86795" viewBox="0,0,187.74791,210.86795"><g transform="translate(-146.12605,-74.56603)"><g data-paper-data="{&quot;isPaintingLayer&quot;:true}" fill="#aaaaaa" fill-rule="nonzero" stroke="none" stroke-linecap="butt" stroke-linejoin="miter" stroke-miterlimit="10" stroke-dasharray="" stroke-dashoffset="0" style="mix-blend-mode: normal"><path d="M275.47764,236.94396c-5.48419,0.21155 -10.10194,-4.06266 -10.31349,-9.54734l-1.1987,-31.07299c-0.21155,-5.48468 4.06309,-10.10243 9.54734,-10.31398c5.48468,-0.21161 10.10243,4.06309 10.31398,9.54777l1.1987,31.07299c0.21155,5.48468 -4.06315,10.10199 -9.54783,10.31354z" data-paper-data="{&quot;index&quot;:null}" stroke-width="1"/><path d="M289.37606,285.08716c-5.29814,1.43222 -10.75445,-1.7016 -12.18678,-7.00017l-8.11468,-30.01864c-1.43233,-5.29857 1.70193,-10.75505 7.00006,-12.18727c5.29856,-1.43227 10.75504,1.70193 12.18737,7.0005l8.11468,30.01864c1.43234,5.29857 -1.70203,10.75461 -7.0006,12.18694z" data-paper-data="{&quot;index&quot;:null}" stroke-width="1"/><path d="M230.85477,236.70431c-5.2485,-1.60456 -8.20288,-7.16014 -6.59816,-12.40907l9.09136,-29.73743c1.60472,-5.24894 7.16073,-8.20316 12.40923,-6.5986c5.24893,1.60472 8.20315,7.16068 6.59843,12.40961l-9.09136,29.73743c-1.60473,5.24893 -7.16058,8.20272 -12.40951,6.598z" data-paper-data="{&quot;index&quot;:null}" stroke-width="1"/><path d="M215.7476,284.25238c-5.27632,-1.5105 -8.32949,-7.01238 -6.81888,-12.28914l8.55829,-29.89518c1.51061,-5.27676 7.01292,-8.32982 12.28925,-6.81932c5.27676,1.51061 8.32982,7.01292 6.81921,12.28968l-8.55829,29.89518c-1.51061,5.27677 -7.01281,8.32939 -12.28957,6.81878z" data-paper-data="{&quot;index&quot;:null}" stroke-width="1"/><path d="M284.06673,186.00916c0,0 -1.6658,1.83222 -4.88598,1.83222c-6.10193,0 -27.28807,0 -37.86649,0c-3.70399,0 -4.88598,-1.22148 -4.88598,-1.22148c0,0 -1.70545,-1.22528 -2.45305,-5.00483c-2.07182,-10.47406 -6.16822,-29.59445 -7.60028,-36.83416c-0.96409,-4.87416 -3.06065,-6.94522 -0.88126,-10.07476c2.17939,-3.1296 2.60456,-2.44302 8.49163,-2.44302c15.85752,0 46.24171,0 54.35672,0c3.91544,0 5.3974,0.02012 7.329,1.83222c1.9316,1.8121 2.01568,4.1195 1.56827,6.51457c-1.10925,5.9379 -6.96269,29.65292 -9.79811,41.05174c-0.93523,3.75976 -3.3744,4.34739 -3.3744,4.34739z" data-paper-data="{&quot;index&quot;:null}" stroke-width="0"/><path d="M318.8556,186.24213c-5.11967,1.97738 -10.87335,-0.56968 -12.85095,-5.68978l-11.20392,-29.00757c-1.97754,-5.1201 0.5699,-10.87394 5.68962,-12.85138c5.12011,-1.97765 10.87395,0.5699 12.85155,5.69l11.20392,29.00757c1.97755,5.1201 -0.57011,10.87351 -5.69021,12.85111z" data-paper-data="{&quot;index&quot;:null}" stroke-width="1"/><path d="M325.28978,233.44506c-5.437,0.74852 -10.4517,-3.05213 -11.20028,-8.48962l-4.24101,-30.80551c-0.74857,-5.43743 3.05257,-10.45225 8.48957,-11.20077c5.43744,-0.74852 10.45225,3.05251 11.20083,8.49l4.24101,30.80551c0.74858,5.43743 -3.05256,10.45181 -8.49005,11.20039z" data-paper-data="{&quot;index&quot;:null}" stroke-width="1"/><path d="M188.08917,176.15995c-3.89629,-3.86526 -3.92184,-10.15743 -0.05631,-14.0541l21.89994,-22.07624c3.86558,-3.89661 10.15808,-3.92189 14.05442,-0.05663c3.89672,3.86547 3.92189,10.15802 0.05636,14.05469l-21.89994,22.07624c-3.86558,3.89661 -10.15775,3.92151 -14.05442,0.05598z" data-paper-data="{&quot;index&quot;:null}" stroke-width="1"/><path d="M147.63287,201.31544c-2.90432,-4.65691 -1.48376,-10.78667 3.17353,-13.6912l26.38544,-16.45529c4.65728,-2.90448 10.78737,-1.48354 13.69163,3.17331c2.90443,4.65729 1.4836,10.78732 -3.17369,13.69185l-26.38544,16.45529c-4.65723,2.90448 -10.78694,1.48338 -13.69147,-3.17391z" data-paper-data="{&quot;index&quot;:null}" stroke-width="1"/><path d="M261.73719,74.56603c16.6644,0 30.17361,13.5092 30.17361,30.17361c0,16.6644 -13.5092,30.17361 -30.17361,30.17361c-16.6644,0 -30.17361,-13.5092 -30.17361,-30.17361c0,-16.6644 13.5092,-30.17361 30.17361,-30.17361z" data-paper-data="{&quot;index&quot;:null}" stroke-width="0"/></g></g></svg>