<svg version="1.1" xmlns="http://www.w3.org/2000/svg" xmlns:xlink="http://www.w3.org/1999/xlink" width="288.48549" height="96.01891" viewBox="0,0,288.48549,96.01891"><g transform="translate(-95.75725,-131.99054)"><g data-paper-data="{&quot;isPaintingLayer&quot;:true}" fill="#696969" fill-rule="nonzero" stroke="none" stroke-width="0" stroke-linecap="butt" stroke-linejoin="miter" stroke-miterlimit="10" stroke-dasharray="" stroke-dashoffset="0" style="mix-blend-mode: normal"><path d="M290.43737,225.81689c0,0 -1.60375,-1.39177 -1.56938,-6.29871c0.1312,-18.73059 0.45531,-65.00404 0.53354,-76.17288c0.03316,-4.73351 2.23294,-6.77663 2.23294,-6.77663c0,0 1.05358,-2.68617 4.57328,-2.66217c10.67946,0.07282 62.23349,1.52981 79.58076,1.6481c3.32358,0.02266 5.81387,1.66084 5.81387,1.66084c0,0 2.67391,2.17838 2.64005,7.01312c-0.07062,10.0814 -0.33703,48.11677 -0.48563,69.33246c-0.06071,8.66738 -1.72664,11.81938 -1.72664,11.81938c0,0 -4.37742,2.6672 -10.03192,2.62864c-11.81392,-0.08056 -56.03212,-0.3821 -74.74107,-0.50968c-5.21233,-0.03554 -6.8198,-1.68247 -6.8198,-1.68247z"/><path d="M194.15309,224.85899c0,0 -1.60375,-1.39177 -1.56938,-6.29871c0.13119,-18.73059 0.45531,-65.00404 0.53354,-76.17288c0.03316,-4.73351 2.23294,-6.77663 2.23294,-6.77663c0,0 1.05358,-2.68617 4.57328,-2.66217c10.67946,0.07282 62.23349,1.52981 79.58076,1.6481c3.32358,0.02266 5.81388,1.66083 5.81388,1.66083c0,0 2.67391,2.17839 2.64004,7.01312c-0.07061,10.0814 -0.33703,48.11677 -0.48564,69.33247c-0.06071,8.66737 -1.72663,11.81938 -1.72663,11.81938c0,0 -4.37742,2.66721 -10.03192,2.62865c-11.81392,-0.08056 -56.03212,-0.3821 -74.74108,-0.50968c-5.21233,-0.03555 -6.81979,-1.68246 -6.81979,-1.68246z"/><path d="M97.32718,223.90109c0,0 -1.60375,-1.39177 -1.56938,-6.29871c0.13119,-18.73059 0.45531,-65.00404 0.53354,-76.17288c0.03315,-4.73351 2.23295,-6.77663 2.23295,-6.77663c0,0 1.05358,-2.68617 4.57327,-2.66217c10.67946,0.07282 62.23349,1.52981 79.58076,1.6481c3.32358,0.02266 5.81387,1.66083 5.81387,1.66083c0,0 2.67391,2.17839 2.64004,7.01312c-0.07061,10.0814 -0.33703,48.11677 -0.48564,69.33247c-0.06071,8.66737 -1.72663,11.81938 -1.72663,11.81938c0,0 -4.37742,2.66721 -10.03192,2.62865c-11.81392,-0.08056 -56.03212,-0.3821 -74.74107,-0.50968c-5.21233,-0.03555 -6.81979,-1.68246 -6.81979,-1.68246z"/></g></g></svg>