<svg version="1.1" xmlns="http://www.w3.org/2000/svg" xmlns:xlink="http://www.w3.org/1999/xlink" width="194.21037" height="194.05332" viewBox="0,0,194.21037,194.05332"><g transform="translate(-142.89482,-82.97334)"><g data-paper-data="{&quot;isPaintingLayer&quot;:true}" fill="#696969" fill-rule="nonzero" stroke="none" stroke-width="0" stroke-linecap="butt" stroke-linejoin="miter" stroke-miterlimit="10" stroke-dasharray="" stroke-dashoffset="0" style="mix-blend-mode: normal"><path d="M142.89529,176.32719c0,0 -0.15772,-3.24214 5.29813,-8.38994c20.82588,-19.65001 72.27569,-68.19488 84.69393,-79.91196c5.26302,-4.96586 9.84436,-4.6955 9.84436,-4.6955c0,0 4.08023,-1.67517 7.77341,2.23756c11.20587,11.87203 64.08015,70.35127 82.28249,89.6357c3.48741,3.69473 4.30991,8.17641 4.30991,8.17641c0,0 0.4199,5.2554 -4.95567,10.32745c-11.20916,10.57627 -53.49934,50.47866 -77.08832,72.73576c-9.63695,9.09283 -14.87881,10.58399 -14.87881,10.58399c0,0 -7.57198,-2.01593 -13.5052,-8.30187c-12.39624,-13.13317 -58.794,-62.28918 -78.42514,-83.08734c-5.46926,-5.79439 -5.3491,-9.31027 -5.3491,-9.31027z"/></g></g></svg>